<?xml version="1.0" encoding="utf-8" standalone="no"?>
<!DOCTYPE svg PUBLIC "-//W3C//DTD SVG 1.1//EN"
  "http://www.w3.org/Graphics/SVG/1.1/DTD/svg11.dtd">
<svg xmlns:xlink="http://www.w3.org/1999/xlink" width="400.785625pt" height="299.624667pt" viewBox="0 0 400.785625 299.624667" xmlns="http://www.w3.org/2000/svg" version="1.1">
 <metadata>
  <rdf:RDF xmlns:dc="http://purl.org/dc/elements/1.1/" xmlns:cc="http://creativecommons.org/ns#" xmlns:rdf="http://www.w3.org/1999/02/22-rdf-syntax-ns#">
   <cc:Work>
    <dc:type rdf:resource="http://purl.org/dc/dcmitype/StillImage"/>
    <dc:date>2024-03-08T16:56:37.578131</dc:date>
    <dc:format>image/svg+xml</dc:format>
    <dc:creator>
     <cc:Agent>
      <dc:title>Matplotlib v3.8.2, https://matplotlib.org/</dc:title>
     </cc:Agent>
    </dc:creator>
   </cc:Work>
  </rdf:RDF>
 </metadata>
 <defs>
  <style type="text/css">*{stroke-linejoin: round; stroke-linecap: butt}</style>
 </defs>
 <g id="figure_1">
  <g id="patch_1">
   <path d="M 0 299.624667 
L 400.785625 299.624667 
L 400.785625 0 
L 0 0 
z
" style="fill: #ffffff"/>
  </g>
  <g id="axes_1">
   <g id="patch_2">
    <path d="M 36.465625 275.746542 
L 393.585625 275.746542 
L 393.585625 9.634542 
L 36.465625 9.634542 
z
" style="fill: #ffffff"/>
   </g>
   <g id="patch_3">
    <path d="M 52.698352 275.746542 
L 54.746646 275.746542 
L 54.746646 275.746542 
L 52.698352 275.746542 
z
" clip-path="url(#p539fdce34a)" style="fill: #1f77b4"/>
   </g>
   <g id="patch_4">
    <path d="M 55.258719 275.746542 
L 57.307013 275.746542 
L 57.307013 275.746542 
L 55.258719 275.746542 
z
" clip-path="url(#p539fdce34a)" style="fill: #1f77b4"/>
   </g>
   <g id="patch_5">
    <path d="M 57.819086 275.746542 
L 59.86738 275.746542 
L 59.86738 275.746542 
L 57.819086 275.746542 
z
" clip-path="url(#p539fdce34a)" style="fill: #1f77b4"/>
   </g>
   <g id="patch_6">
    <path d="M 60.379454 275.746542 
L 62.427747 275.746542 
L 62.427747 275.746542 
L 60.379454 275.746542 
z
" clip-path="url(#p539fdce34a)" style="fill: #1f77b4"/>
   </g>
   <g id="patch_7">
    <path d="M 62.939821 275.746542 
L 64.988114 275.746542 
L 64.988114 275.746542 
L 62.939821 275.746542 
z
" clip-path="url(#p539fdce34a)" style="fill: #1f77b4"/>
   </g>
   <g id="patch_8">
    <path d="M 65.500188 275.746542 
L 67.548481 275.746542 
L 67.548481 275.746542 
L 65.500188 275.746542 
z
" clip-path="url(#p539fdce34a)" style="fill: #1f77b4"/>
   </g>
   <g id="patch_9">
    <path d="M 68.060555 275.746542 
L 70.108848 275.746542 
L 70.108848 275.746542 
L 68.060555 275.746542 
z
" clip-path="url(#p539fdce34a)" style="fill: #1f77b4"/>
   </g>
   <g id="patch_10">
    <path d="M 70.620922 275.746542 
L 72.669215 275.746542 
L 72.669215 275.746542 
L 70.620922 275.746542 
z
" clip-path="url(#p539fdce34a)" style="fill: #1f77b4"/>
   </g>
   <g id="patch_11">
    <path d="M 73.181289 275.746542 
L 75.229583 275.746542 
L 75.229583 275.746542 
L 73.181289 275.746542 
z
" clip-path="url(#p539fdce34a)" style="fill: #1f77b4"/>
   </g>
   <g id="patch_12">
    <path d="M 75.741656 275.746542 
L 77.78995 275.746542 
L 77.78995 275.746542 
L 75.741656 275.746542 
z
" clip-path="url(#p539fdce34a)" style="fill: #1f77b4"/>
   </g>
   <g id="patch_13">
    <path d="M 78.302023 275.746542 
L 80.350317 275.746542 
L 80.350317 275.746542 
L 78.302023 275.746542 
z
" clip-path="url(#p539fdce34a)" style="fill: #1f77b4"/>
   </g>
   <g id="patch_14">
    <path d="M 80.86239 275.746542 
L 82.910684 275.746542 
L 82.910684 275.746542 
L 80.86239 275.746542 
z
" clip-path="url(#p539fdce34a)" style="fill: #1f77b4"/>
   </g>
   <g id="patch_15">
    <path d="M 83.422757 275.746542 
L 85.471051 275.746542 
L 85.471051 275.746542 
L 83.422757 275.746542 
z
" clip-path="url(#p539fdce34a)" style="fill: #1f77b4"/>
   </g>
   <g id="patch_16">
    <path d="M 85.983124 275.746542 
L 88.031418 275.746542 
L 88.031418 275.746542 
L 85.983124 275.746542 
z
" clip-path="url(#p539fdce34a)" style="fill: #1f77b4"/>
   </g>
   <g id="patch_17">
    <path d="M 88.543491 275.746542 
L 90.591785 275.746542 
L 90.591785 275.746542 
L 88.543491 275.746542 
z
" clip-path="url(#p539fdce34a)" style="fill: #1f77b4"/>
   </g>
   <g id="patch_18">
    <path d="M 91.103858 275.746542 
L 93.152152 275.746542 
L 93.152152 275.746542 
L 91.103858 275.746542 
z
" clip-path="url(#p539fdce34a)" style="fill: #1f77b4"/>
   </g>
   <g id="patch_19">
    <path d="M 93.664226 275.746542 
L 95.712519 275.746542 
L 95.712519 275.746542 
L 93.664226 275.746542 
z
" clip-path="url(#p539fdce34a)" style="fill: #1f77b4"/>
   </g>
   <g id="patch_20">
    <path d="M 96.224593 275.746542 
L 98.272886 275.746542 
L 98.272886 275.746542 
L 96.224593 275.746542 
z
" clip-path="url(#p539fdce34a)" style="fill: #1f77b4"/>
   </g>
   <g id="patch_21">
    <path d="M 98.78496 275.746542 
L 100.833253 275.746542 
L 100.833253 275.746542 
L 98.78496 275.746542 
z
" clip-path="url(#p539fdce34a)" style="fill: #1f77b4"/>
   </g>
   <g id="patch_22">
    <path d="M 101.345327 275.746542 
L 103.39362 275.746542 
L 103.39362 275.746542 
L 101.345327 275.746542 
z
" clip-path="url(#p539fdce34a)" style="fill: #1f77b4"/>
   </g>
   <g id="patch_23">
    <path d="M 103.905694 275.746542 
L 105.953987 275.746542 
L 105.953987 275.746542 
L 103.905694 275.746542 
z
" clip-path="url(#p539fdce34a)" style="fill: #1f77b4"/>
   </g>
   <g id="patch_24">
    <path d="M 106.466061 275.746542 
L 108.514355 275.746542 
L 108.514355 275.746542 
L 106.466061 275.746542 
z
" clip-path="url(#p539fdce34a)" style="fill: #1f77b4"/>
   </g>
   <g id="patch_25">
    <path d="M 109.026428 275.746542 
L 111.074722 275.746542 
L 111.074722 275.746542 
L 109.026428 275.746542 
z
" clip-path="url(#p539fdce34a)" style="fill: #1f77b4"/>
   </g>
   <g id="patch_26">
    <path d="M 111.586795 275.746542 
L 113.635089 275.746542 
L 113.635089 275.746542 
L 111.586795 275.746542 
z
" clip-path="url(#p539fdce34a)" style="fill: #1f77b4"/>
   </g>
   <g id="patch_27">
    <path d="M 114.147162 275.746542 
L 116.195456 275.746542 
L 116.195456 275.746542 
L 114.147162 275.746542 
z
" clip-path="url(#p539fdce34a)" style="fill: #1f77b4"/>
   </g>
   <g id="patch_28">
    <path d="M 116.707529 275.746542 
L 118.755823 275.746542 
L 118.755823 275.746542 
L 116.707529 275.746542 
z
" clip-path="url(#p539fdce34a)" style="fill: #1f77b4"/>
   </g>
   <g id="patch_29">
    <path d="M 119.267896 275.746542 
L 121.31619 275.746542 
L 121.31619 275.746542 
L 119.267896 275.746542 
z
" clip-path="url(#p539fdce34a)" style="fill: #1f77b4"/>
   </g>
   <g id="patch_30">
    <path d="M 121.828263 275.746542 
L 123.876557 275.746542 
L 123.876557 275.746542 
L 121.828263 275.746542 
z
" clip-path="url(#p539fdce34a)" style="fill: #1f77b4"/>
   </g>
   <g id="patch_31">
    <path d="M 124.38863 275.746542 
L 126.436924 275.746542 
L 126.436924 275.746542 
L 124.38863 275.746542 
z
" clip-path="url(#p539fdce34a)" style="fill: #1f77b4"/>
   </g>
   <g id="patch_32">
    <path d="M 126.948998 275.746542 
L 128.997291 275.746542 
L 128.997291 275.746542 
L 126.948998 275.746542 
z
" clip-path="url(#p539fdce34a)" style="fill: #1f77b4"/>
   </g>
   <g id="patch_33">
    <path d="M 129.509365 275.746542 
L 131.557658 275.746542 
L 131.557658 275.746542 
L 129.509365 275.746542 
z
" clip-path="url(#p539fdce34a)" style="fill: #1f77b4"/>
   </g>
   <g id="patch_34">
    <path d="M 132.069732 275.746542 
L 134.118025 275.746542 
L 134.118025 275.746542 
L 132.069732 275.746542 
z
" clip-path="url(#p539fdce34a)" style="fill: #1f77b4"/>
   </g>
   <g id="patch_35">
    <path d="M 134.630099 275.746542 
L 136.678392 275.746542 
L 136.678392 275.746542 
L 134.630099 275.746542 
z
" clip-path="url(#p539fdce34a)" style="fill: #1f77b4"/>
   </g>
   <g id="patch_36">
    <path d="M 137.190466 275.746542 
L 139.238759 275.746542 
L 139.238759 275.746542 
L 137.190466 275.746542 
z
" clip-path="url(#p539fdce34a)" style="fill: #1f77b4"/>
   </g>
   <g id="patch_37">
    <path d="M 139.750833 275.746542 
L 141.799127 275.746542 
L 141.799127 275.746542 
L 139.750833 275.746542 
z
" clip-path="url(#p539fdce34a)" style="fill: #1f77b4"/>
   </g>
   <g id="patch_38">
    <path d="M 142.3112 275.746542 
L 144.359494 275.746542 
L 144.359494 275.746542 
L 142.3112 275.746542 
z
" clip-path="url(#p539fdce34a)" style="fill: #1f77b4"/>
   </g>
   <g id="patch_39">
    <path d="M 144.871567 275.746542 
L 146.919861 275.746542 
L 146.919861 275.746542 
L 144.871567 275.746542 
z
" clip-path="url(#p539fdce34a)" style="fill: #1f77b4"/>
   </g>
   <g id="patch_40">
    <path d="M 147.431934 275.746542 
L 149.480228 275.746542 
L 149.480228 275.746542 
L 147.431934 275.746542 
z
" clip-path="url(#p539fdce34a)" style="fill: #1f77b4"/>
   </g>
   <g id="patch_41">
    <path d="M 149.992301 275.746542 
L 152.040595 275.746542 
L 152.040595 275.746542 
L 149.992301 275.746542 
z
" clip-path="url(#p539fdce34a)" style="fill: #1f77b4"/>
   </g>
   <g id="patch_42">
    <path d="M 152.552668 275.746542 
L 154.600962 275.746542 
L 154.600962 275.746542 
L 152.552668 275.746542 
z
" clip-path="url(#p539fdce34a)" style="fill: #1f77b4"/>
   </g>
   <g id="patch_43">
    <path d="M 155.113035 275.746542 
L 157.161329 275.746542 
L 157.161329 275.746542 
L 155.113035 275.746542 
z
" clip-path="url(#p539fdce34a)" style="fill: #1f77b4"/>
   </g>
   <g id="patch_44">
    <path d="M 157.673402 275.746542 
L 159.721696 275.746542 
L 159.721696 275.746542 
L 157.673402 275.746542 
z
" clip-path="url(#p539fdce34a)" style="fill: #1f77b4"/>
   </g>
   <g id="patch_45">
    <path d="M 160.23377 275.746542 
L 162.282063 275.746542 
L 162.282063 275.746542 
L 160.23377 275.746542 
z
" clip-path="url(#p539fdce34a)" style="fill: #1f77b4"/>
   </g>
   <g id="patch_46">
    <path d="M 162.794137 275.746542 
L 164.84243 275.746542 
L 164.84243 275.746542 
L 162.794137 275.746542 
z
" clip-path="url(#p539fdce34a)" style="fill: #1f77b4"/>
   </g>
   <g id="patch_47">
    <path d="M 165.354504 275.746542 
L 167.402797 275.746542 
L 167.402797 275.746542 
L 165.354504 275.746542 
z
" clip-path="url(#p539fdce34a)" style="fill: #1f77b4"/>
   </g>
   <g id="patch_48">
    <path d="M 167.914871 275.746542 
L 169.963164 275.746542 
L 169.963164 275.746542 
L 167.914871 275.746542 
z
" clip-path="url(#p539fdce34a)" style="fill: #1f77b4"/>
   </g>
   <g id="patch_49">
    <path d="M 170.475238 275.746542 
L 172.523532 275.746542 
L 172.523532 256.251157 
L 170.475238 256.251157 
z
" clip-path="url(#p539fdce34a)" style="fill: #1f77b4"/>
   </g>
   <g id="patch_50">
    <path d="M 173.035605 275.746542 
L 175.083899 275.746542 
L 175.083899 275.746542 
L 173.035605 275.746542 
z
" clip-path="url(#p539fdce34a)" style="fill: #1f77b4"/>
   </g>
   <g id="patch_51">
    <path d="M 175.595972 275.746542 
L 177.644266 275.746542 
L 177.644266 275.746542 
L 175.595972 275.746542 
z
" clip-path="url(#p539fdce34a)" style="fill: #1f77b4"/>
   </g>
   <g id="patch_52">
    <path d="M 178.156339 275.746542 
L 180.204633 275.746542 
L 180.204633 217.260388 
L 178.156339 217.260388 
z
" clip-path="url(#p539fdce34a)" style="fill: #1f77b4"/>
   </g>
   <g id="patch_53">
    <path d="M 180.716706 275.746542 
L 182.765 275.746542 
L 182.765 217.260388 
L 180.716706 217.260388 
z
" clip-path="url(#p539fdce34a)" style="fill: #1f77b4"/>
   </g>
   <g id="patch_54">
    <path d="M 183.277073 275.746542 
L 185.325367 275.746542 
L 185.325367 256.251157 
L 183.277073 256.251157 
z
" clip-path="url(#p539fdce34a)" style="fill: #1f77b4"/>
   </g>
   <g id="patch_55">
    <path d="M 185.83744 275.746542 
L 187.885734 275.746542 
L 187.885734 275.746542 
L 185.83744 275.746542 
z
" clip-path="url(#p539fdce34a)" style="fill: #1f77b4"/>
   </g>
   <g id="patch_56">
    <path d="M 188.397807 275.746542 
L 190.446101 275.746542 
L 190.446101 119.783465 
L 188.397807 119.783465 
z
" clip-path="url(#p539fdce34a)" style="fill: #1f77b4"/>
   </g>
   <g id="patch_57">
    <path d="M 190.958174 275.746542 
L 193.006468 275.746542 
L 193.006468 236.755773 
L 190.958174 236.755773 
z
" clip-path="url(#p539fdce34a)" style="fill: #1f77b4"/>
   </g>
   <g id="patch_58">
    <path d="M 193.518542 275.746542 
L 195.566835 275.746542 
L 195.566835 256.251157 
L 193.518542 256.251157 
z
" clip-path="url(#p539fdce34a)" style="fill: #1f77b4"/>
   </g>
   <g id="patch_59">
    <path d="M 196.078909 275.746542 
L 198.127202 275.746542 
L 198.127202 61.297311 
L 196.078909 61.297311 
z
" clip-path="url(#p539fdce34a)" style="fill: #1f77b4"/>
   </g>
   <g id="patch_60">
    <path d="M 198.639276 275.746542 
L 200.687569 275.746542 
L 200.687569 275.746542 
L 198.639276 275.746542 
z
" clip-path="url(#p539fdce34a)" style="fill: #1f77b4"/>
   </g>
   <g id="patch_61">
    <path d="M 201.199643 275.746542 
L 203.247936 275.746542 
L 203.247936 197.765003 
L 201.199643 197.765003 
z
" clip-path="url(#p539fdce34a)" style="fill: #1f77b4"/>
   </g>
   <g id="patch_62">
    <path d="M 203.76001 275.746542 
L 205.808304 275.746542 
L 205.808304 256.251157 
L 203.76001 256.251157 
z
" clip-path="url(#p539fdce34a)" style="fill: #1f77b4"/>
   </g>
   <g id="patch_63">
    <path d="M 206.320377 275.746542 
L 208.368671 275.746542 
L 208.368671 217.260388 
L 206.320377 217.260388 
z
" clip-path="url(#p539fdce34a)" style="fill: #1f77b4"/>
   </g>
   <g id="patch_64">
    <path d="M 208.880744 275.746542 
L 210.929038 275.746542 
L 210.929038 61.297311 
L 208.880744 61.297311 
z
" clip-path="url(#p539fdce34a)" style="fill: #1f77b4"/>
   </g>
   <g id="patch_65">
    <path d="M 211.441111 275.746542 
L 213.489405 275.746542 
L 213.489405 275.746542 
L 211.441111 275.746542 
z
" clip-path="url(#p539fdce34a)" style="fill: #1f77b4"/>
   </g>
   <g id="patch_66">
    <path d="M 214.001478 275.746542 
L 216.049772 275.746542 
L 216.049772 158.774234 
L 214.001478 158.774234 
z
" clip-path="url(#p539fdce34a)" style="fill: #1f77b4"/>
   </g>
   <g id="patch_67">
    <path d="M 216.561845 275.746542 
L 218.610139 275.746542 
L 218.610139 275.746542 
L 216.561845 275.746542 
z
" clip-path="url(#p539fdce34a)" style="fill: #1f77b4"/>
   </g>
   <g id="patch_68">
    <path d="M 219.122212 275.746542 
L 221.170506 275.746542 
L 221.170506 275.746542 
L 219.122212 275.746542 
z
" clip-path="url(#p539fdce34a)" style="fill: #1f77b4"/>
   </g>
   <g id="patch_69">
    <path d="M 221.682579 275.746542 
L 223.730873 275.746542 
L 223.730873 275.746542 
L 221.682579 275.746542 
z
" clip-path="url(#p539fdce34a)" style="fill: #1f77b4"/>
   </g>
   <g id="patch_70">
    <path d="M 224.242946 275.746542 
L 226.29124 275.746542 
L 226.29124 275.746542 
L 224.242946 275.746542 
z
" clip-path="url(#p539fdce34a)" style="fill: #1f77b4"/>
   </g>
   <g id="patch_71">
    <path d="M 226.803314 275.746542 
L 228.851607 275.746542 
L 228.851607 256.251157 
L 226.803314 256.251157 
z
" clip-path="url(#p539fdce34a)" style="fill: #1f77b4"/>
   </g>
   <g id="patch_72">
    <path d="M 229.363681 275.746542 
L 231.411974 275.746542 
L 231.411974 275.746542 
L 229.363681 275.746542 
z
" clip-path="url(#p539fdce34a)" style="fill: #1f77b4"/>
   </g>
   <g id="patch_73">
    <path d="M 231.924048 275.746542 
L 233.972341 275.746542 
L 233.972341 256.251157 
L 231.924048 256.251157 
z
" clip-path="url(#p539fdce34a)" style="fill: #1f77b4"/>
   </g>
   <g id="patch_74">
    <path d="M 234.484415 275.746542 
L 236.532708 275.746542 
L 236.532708 275.746542 
L 234.484415 275.746542 
z
" clip-path="url(#p539fdce34a)" style="fill: #1f77b4"/>
   </g>
   <g id="patch_75">
    <path d="M 237.044782 275.746542 
L 239.093076 275.746542 
L 239.093076 236.755773 
L 237.044782 236.755773 
z
" clip-path="url(#p539fdce34a)" style="fill: #1f77b4"/>
   </g>
   <g id="patch_76">
    <path d="M 239.605149 275.746542 
L 241.653443 275.746542 
L 241.653443 119.783465 
L 239.605149 119.783465 
z
" clip-path="url(#p539fdce34a)" style="fill: #1f77b4"/>
   </g>
   <g id="patch_77">
    <path d="M 242.165516 275.746542 
L 244.21381 275.746542 
L 244.21381 275.746542 
L 242.165516 275.746542 
z
" clip-path="url(#p539fdce34a)" style="fill: #1f77b4"/>
   </g>
   <g id="patch_78">
    <path d="M 244.725883 275.746542 
L 246.774177 275.746542 
L 246.774177 22.306542 
L 244.725883 22.306542 
z
" clip-path="url(#p539fdce34a)" style="fill: #1f77b4"/>
   </g>
   <g id="patch_79">
    <path d="M 247.28625 275.746542 
L 249.334544 275.746542 
L 249.334544 236.755773 
L 247.28625 236.755773 
z
" clip-path="url(#p539fdce34a)" style="fill: #1f77b4"/>
   </g>
   <g id="patch_80">
    <path d="M 249.846617 275.746542 
L 251.894911 275.746542 
L 251.894911 275.746542 
L 249.846617 275.746542 
z
" clip-path="url(#p539fdce34a)" style="fill: #1f77b4"/>
   </g>
   <g id="patch_81">
    <path d="M 252.406984 275.746542 
L 254.455278 275.746542 
L 254.455278 22.306542 
L 252.406984 22.306542 
z
" clip-path="url(#p539fdce34a)" style="fill: #1f77b4"/>
   </g>
   <g id="patch_82">
    <path d="M 254.967351 275.746542 
L 257.015645 275.746542 
L 257.015645 256.251157 
L 254.967351 256.251157 
z
" clip-path="url(#p539fdce34a)" style="fill: #1f77b4"/>
   </g>
   <g id="patch_83">
    <path d="M 257.527718 275.746542 
L 259.576012 275.746542 
L 259.576012 256.251157 
L 257.527718 256.251157 
z
" clip-path="url(#p539fdce34a)" style="fill: #1f77b4"/>
   </g>
   <g id="patch_84">
    <path d="M 260.088086 275.746542 
L 262.136379 275.746542 
L 262.136379 275.746542 
L 260.088086 275.746542 
z
" clip-path="url(#p539fdce34a)" style="fill: #1f77b4"/>
   </g>
   <g id="patch_85">
    <path d="M 262.648453 275.746542 
L 264.696746 275.746542 
L 264.696746 275.746542 
L 262.648453 275.746542 
z
" clip-path="url(#p539fdce34a)" style="fill: #1f77b4"/>
   </g>
   <g id="patch_86">
    <path d="M 265.20882 275.746542 
L 267.257113 275.746542 
L 267.257113 275.746542 
L 265.20882 275.746542 
z
" clip-path="url(#p539fdce34a)" style="fill: #1f77b4"/>
   </g>
   <g id="patch_87">
    <path d="M 267.769187 275.746542 
L 269.81748 275.746542 
L 269.81748 275.746542 
L 267.769187 275.746542 
z
" clip-path="url(#p539fdce34a)" style="fill: #1f77b4"/>
   </g>
   <g id="patch_88">
    <path d="M 270.329554 275.746542 
L 272.377848 275.746542 
L 272.377848 275.746542 
L 270.329554 275.746542 
z
" clip-path="url(#p539fdce34a)" style="fill: #1f77b4"/>
   </g>
   <g id="patch_89">
    <path d="M 272.889921 275.746542 
L 274.938215 275.746542 
L 274.938215 275.746542 
L 272.889921 275.746542 
z
" clip-path="url(#p539fdce34a)" style="fill: #1f77b4"/>
   </g>
   <g id="patch_90">
    <path d="M 275.450288 275.746542 
L 277.498582 275.746542 
L 277.498582 275.746542 
L 275.450288 275.746542 
z
" clip-path="url(#p539fdce34a)" style="fill: #1f77b4"/>
   </g>
   <g id="patch_91">
    <path d="M 278.010655 275.746542 
L 280.058949 275.746542 
L 280.058949 275.746542 
L 278.010655 275.746542 
z
" clip-path="url(#p539fdce34a)" style="fill: #1f77b4"/>
   </g>
   <g id="patch_92">
    <path d="M 280.571022 275.746542 
L 282.619316 275.746542 
L 282.619316 275.746542 
L 280.571022 275.746542 
z
" clip-path="url(#p539fdce34a)" style="fill: #1f77b4"/>
   </g>
   <g id="patch_93">
    <path d="M 283.131389 275.746542 
L 285.179683 275.746542 
L 285.179683 275.746542 
L 283.131389 275.746542 
z
" clip-path="url(#p539fdce34a)" style="fill: #1f77b4"/>
   </g>
   <g id="patch_94">
    <path d="M 285.691756 275.746542 
L 287.74005 275.746542 
L 287.74005 275.746542 
L 285.691756 275.746542 
z
" clip-path="url(#p539fdce34a)" style="fill: #1f77b4"/>
   </g>
   <g id="patch_95">
    <path d="M 288.252123 275.746542 
L 290.300417 275.746542 
L 290.300417 275.746542 
L 288.252123 275.746542 
z
" clip-path="url(#p539fdce34a)" style="fill: #1f77b4"/>
   </g>
   <g id="patch_96">
    <path d="M 290.812491 275.746542 
L 292.860784 275.746542 
L 292.860784 275.746542 
L 290.812491 275.746542 
z
" clip-path="url(#p539fdce34a)" style="fill: #1f77b4"/>
   </g>
   <g id="patch_97">
    <path d="M 293.372858 275.746542 
L 295.421151 275.746542 
L 295.421151 275.746542 
L 293.372858 275.746542 
z
" clip-path="url(#p539fdce34a)" style="fill: #1f77b4"/>
   </g>
   <g id="patch_98">
    <path d="M 295.933225 275.746542 
L 297.981518 275.746542 
L 297.981518 275.746542 
L 295.933225 275.746542 
z
" clip-path="url(#p539fdce34a)" style="fill: #1f77b4"/>
   </g>
   <g id="patch_99">
    <path d="M 298.493592 275.746542 
L 300.541885 275.746542 
L 300.541885 275.746542 
L 298.493592 275.746542 
z
" clip-path="url(#p539fdce34a)" style="fill: #1f77b4"/>
   </g>
   <g id="patch_100">
    <path d="M 301.053959 275.746542 
L 303.102252 275.746542 
L 303.102252 275.746542 
L 301.053959 275.746542 
z
" clip-path="url(#p539fdce34a)" style="fill: #1f77b4"/>
   </g>
   <g id="patch_101">
    <path d="M 303.614326 275.746542 
L 305.66262 275.746542 
L 305.66262 275.746542 
L 303.614326 275.746542 
z
" clip-path="url(#p539fdce34a)" style="fill: #1f77b4"/>
   </g>
   <g id="patch_102">
    <path d="M 306.174693 275.746542 
L 308.222987 275.746542 
L 308.222987 275.746542 
L 306.174693 275.746542 
z
" clip-path="url(#p539fdce34a)" style="fill: #1f77b4"/>
   </g>
   <g id="patch_103">
    <path d="M 308.73506 275.746542 
L 310.783354 275.746542 
L 310.783354 275.746542 
L 308.73506 275.746542 
z
" clip-path="url(#p539fdce34a)" style="fill: #1f77b4"/>
   </g>
   <g id="patch_104">
    <path d="M 311.295427 275.746542 
L 313.343721 275.746542 
L 313.343721 275.746542 
L 311.295427 275.746542 
z
" clip-path="url(#p539fdce34a)" style="fill: #1f77b4"/>
   </g>
   <g id="patch_105">
    <path d="M 313.855794 275.746542 
L 315.904088 275.746542 
L 315.904088 275.746542 
L 313.855794 275.746542 
z
" clip-path="url(#p539fdce34a)" style="fill: #1f77b4"/>
   </g>
   <g id="patch_106">
    <path d="M 316.416161 275.746542 
L 318.464455 275.746542 
L 318.464455 275.746542 
L 316.416161 275.746542 
z
" clip-path="url(#p539fdce34a)" style="fill: #1f77b4"/>
   </g>
   <g id="patch_107">
    <path d="M 318.976528 275.746542 
L 321.024822 275.746542 
L 321.024822 275.746542 
L 318.976528 275.746542 
z
" clip-path="url(#p539fdce34a)" style="fill: #1f77b4"/>
   </g>
   <g id="patch_108">
    <path d="M 321.536895 275.746542 
L 323.585189 275.746542 
L 323.585189 275.746542 
L 321.536895 275.746542 
z
" clip-path="url(#p539fdce34a)" style="fill: #1f77b4"/>
   </g>
   <g id="patch_109">
    <path d="M 324.097263 275.746542 
L 326.145556 275.746542 
L 326.145556 275.746542 
L 324.097263 275.746542 
z
" clip-path="url(#p539fdce34a)" style="fill: #1f77b4"/>
   </g>
   <g id="patch_110">
    <path d="M 326.65763 275.746542 
L 328.705923 275.746542 
L 328.705923 275.746542 
L 326.65763 275.746542 
z
" clip-path="url(#p539fdce34a)" style="fill: #1f77b4"/>
   </g>
   <g id="patch_111">
    <path d="M 329.217997 275.746542 
L 331.26629 275.746542 
L 331.26629 275.746542 
L 329.217997 275.746542 
z
" clip-path="url(#p539fdce34a)" style="fill: #1f77b4"/>
   </g>
   <g id="patch_112">
    <path d="M 331.778364 275.746542 
L 333.826657 275.746542 
L 333.826657 275.746542 
L 331.778364 275.746542 
z
" clip-path="url(#p539fdce34a)" style="fill: #1f77b4"/>
   </g>
   <g id="patch_113">
    <path d="M 334.338731 275.746542 
L 336.387024 275.746542 
L 336.387024 275.746542 
L 334.338731 275.746542 
z
" clip-path="url(#p539fdce34a)" style="fill: #1f77b4"/>
   </g>
   <g id="patch_114">
    <path d="M 336.899098 275.746542 
L 338.947392 275.746542 
L 338.947392 275.746542 
L 336.899098 275.746542 
z
" clip-path="url(#p539fdce34a)" style="fill: #1f77b4"/>
   </g>
   <g id="patch_115">
    <path d="M 339.459465 275.746542 
L 341.507759 275.746542 
L 341.507759 275.746542 
L 339.459465 275.746542 
z
" clip-path="url(#p539fdce34a)" style="fill: #1f77b4"/>
   </g>
   <g id="patch_116">
    <path d="M 342.019832 275.746542 
L 344.068126 275.746542 
L 344.068126 275.746542 
L 342.019832 275.746542 
z
" clip-path="url(#p539fdce34a)" style="fill: #1f77b4"/>
   </g>
   <g id="patch_117">
    <path d="M 344.580199 275.746542 
L 346.628493 275.746542 
L 346.628493 275.746542 
L 344.580199 275.746542 
z
" clip-path="url(#p539fdce34a)" style="fill: #1f77b4"/>
   </g>
   <g id="patch_118">
    <path d="M 347.140566 275.746542 
L 349.18886 275.746542 
L 349.18886 275.746542 
L 347.140566 275.746542 
z
" clip-path="url(#p539fdce34a)" style="fill: #1f77b4"/>
   </g>
   <g id="patch_119">
    <path d="M 349.700933 275.746542 
L 351.749227 275.746542 
L 351.749227 275.746542 
L 349.700933 275.746542 
z
" clip-path="url(#p539fdce34a)" style="fill: #1f77b4"/>
   </g>
   <g id="patch_120">
    <path d="M 352.2613 275.746542 
L 354.309594 275.746542 
L 354.309594 275.746542 
L 352.2613 275.746542 
z
" clip-path="url(#p539fdce34a)" style="fill: #1f77b4"/>
   </g>
   <g id="patch_121">
    <path d="M 354.821667 275.746542 
L 356.869961 275.746542 
L 356.869961 275.746542 
L 354.821667 275.746542 
z
" clip-path="url(#p539fdce34a)" style="fill: #1f77b4"/>
   </g>
   <g id="patch_122">
    <path d="M 357.382035 275.746542 
L 359.430328 275.746542 
L 359.430328 275.746542 
L 357.382035 275.746542 
z
" clip-path="url(#p539fdce34a)" style="fill: #1f77b4"/>
   </g>
   <g id="patch_123">
    <path d="M 359.942402 275.746542 
L 361.990695 275.746542 
L 361.990695 275.746542 
L 359.942402 275.746542 
z
" clip-path="url(#p539fdce34a)" style="fill: #1f77b4"/>
   </g>
   <g id="patch_124">
    <path d="M 362.502769 275.746542 
L 364.551062 275.746542 
L 364.551062 275.746542 
L 362.502769 275.746542 
z
" clip-path="url(#p539fdce34a)" style="fill: #1f77b4"/>
   </g>
   <g id="patch_125">
    <path d="M 365.063136 275.746542 
L 367.111429 275.746542 
L 367.111429 275.746542 
L 365.063136 275.746542 
z
" clip-path="url(#p539fdce34a)" style="fill: #1f77b4"/>
   </g>
   <g id="patch_126">
    <path d="M 367.623503 275.746542 
L 369.671796 275.746542 
L 369.671796 275.746542 
L 367.623503 275.746542 
z
" clip-path="url(#p539fdce34a)" style="fill: #1f77b4"/>
   </g>
   <g id="patch_127">
    <path d="M 370.18387 275.746542 
L 372.232164 275.746542 
L 372.232164 275.746542 
L 370.18387 275.746542 
z
" clip-path="url(#p539fdce34a)" style="fill: #1f77b4"/>
   </g>
   <g id="patch_128">
    <path d="M 372.744237 275.746542 
L 374.792531 275.746542 
L 374.792531 275.746542 
L 372.744237 275.746542 
z
" clip-path="url(#p539fdce34a)" style="fill: #1f77b4"/>
   </g>
   <g id="patch_129">
    <path d="M 375.304604 275.746542 
L 377.352898 275.746542 
L 377.352898 275.746542 
L 375.304604 275.746542 
z
" clip-path="url(#p539fdce34a)" style="fill: #1f77b4"/>
   </g>
   <g id="matplotlib.axis_1">
    <g id="xtick_1">
     <g id="line2d_1">
      <path d="M 53.722499 275.746542 
L 53.722499 9.634542 
" clip-path="url(#p539fdce34a)" style="fill: none; stroke: #b0b0b0; stroke-width: 0.8; stroke-linecap: square"/>
     </g>
     <g id="line2d_2">
      <defs>
       <path id="m9234c65b4e" d="M 0 0 
L 0 3.5 
" style="stroke: #000000; stroke-width: 0.8"/>
      </defs>
      <g>
       <use xlink:href="#m9234c65b4e" x="53.722499" y="275.746542" style="stroke: #000000; stroke-width: 0.8"/>
      </g>
     </g>
     <g id="text_1">
      <!-- 0 -->
      <g transform="translate(50.541249 290.344979) scale(0.1 -0.1)">
       <defs>
        <path id="DejaVuSans-30" d="M 2034 4250 
Q 1547 4250 1301 3770 
Q 1056 3291 1056 2328 
Q 1056 1369 1301 889 
Q 1547 409 2034 409 
Q 2525 409 2770 889 
Q 3016 1369 3016 2328 
Q 3016 3291 2770 3770 
Q 2525 4250 2034 4250 
z
M 2034 4750 
Q 2819 4750 3233 4129 
Q 3647 3509 3647 2328 
Q 3647 1150 3233 529 
Q 2819 -91 2034 -91 
Q 1250 -91 836 529 
Q 422 1150 422 2328 
Q 422 3509 836 4129 
Q 1250 4750 2034 4750 
z
" transform="scale(0.015625)"/>
       </defs>
       <use xlink:href="#DejaVuSans-30"/>
      </g>
     </g>
    </g>
    <g id="xtick_2">
     <g id="line2d_3">
      <path d="M 104.929841 275.746542 
L 104.929841 9.634542 
" clip-path="url(#p539fdce34a)" style="fill: none; stroke: #b0b0b0; stroke-width: 0.8; stroke-linecap: square"/>
     </g>
     <g id="line2d_4">
      <g>
       <use xlink:href="#m9234c65b4e" x="104.929841" y="275.746542" style="stroke: #000000; stroke-width: 0.8"/>
      </g>
     </g>
     <g id="text_2">
      <!-- 20 -->
      <g transform="translate(98.567341 290.344979) scale(0.1 -0.1)">
       <defs>
        <path id="DejaVuSans-32" d="M 1228 531 
L 3431 531 
L 3431 0 
L 469 0 
L 469 531 
Q 828 903 1448 1529 
Q 2069 2156 2228 2338 
Q 2531 2678 2651 2914 
Q 2772 3150 2772 3378 
Q 2772 3750 2511 3984 
Q 2250 4219 1831 4219 
Q 1534 4219 1204 4116 
Q 875 4013 500 3803 
L 500 4441 
Q 881 4594 1212 4672 
Q 1544 4750 1819 4750 
Q 2544 4750 2975 4387 
Q 3406 4025 3406 3419 
Q 3406 3131 3298 2873 
Q 3191 2616 2906 2266 
Q 2828 2175 2409 1742 
Q 1991 1309 1228 531 
z
" transform="scale(0.015625)"/>
       </defs>
       <use xlink:href="#DejaVuSans-32"/>
       <use xlink:href="#DejaVuSans-30" x="63.623047"/>
      </g>
     </g>
    </g>
    <g id="xtick_3">
     <g id="line2d_5">
      <path d="M 156.137182 275.746542 
L 156.137182 9.634542 
" clip-path="url(#p539fdce34a)" style="fill: none; stroke: #b0b0b0; stroke-width: 0.8; stroke-linecap: square"/>
     </g>
     <g id="line2d_6">
      <g>
       <use xlink:href="#m9234c65b4e" x="156.137182" y="275.746542" style="stroke: #000000; stroke-width: 0.8"/>
      </g>
     </g>
     <g id="text_3">
      <!-- 40 -->
      <g transform="translate(149.774682 290.344979) scale(0.1 -0.1)">
       <defs>
        <path id="DejaVuSans-34" d="M 2419 4116 
L 825 1625 
L 2419 1625 
L 2419 4116 
z
M 2253 4666 
L 3047 4666 
L 3047 1625 
L 3713 1625 
L 3713 1100 
L 3047 1100 
L 3047 0 
L 2419 0 
L 2419 1100 
L 313 1100 
L 313 1709 
L 2253 4666 
z
" transform="scale(0.015625)"/>
       </defs>
       <use xlink:href="#DejaVuSans-34"/>
       <use xlink:href="#DejaVuSans-30" x="63.623047"/>
      </g>
     </g>
    </g>
    <g id="xtick_4">
     <g id="line2d_7">
      <path d="M 207.344524 275.746542 
L 207.344524 9.634542 
" clip-path="url(#p539fdce34a)" style="fill: none; stroke: #b0b0b0; stroke-width: 0.8; stroke-linecap: square"/>
     </g>
     <g id="line2d_8">
      <g>
       <use xlink:href="#m9234c65b4e" x="207.344524" y="275.746542" style="stroke: #000000; stroke-width: 0.8"/>
      </g>
     </g>
     <g id="text_4">
      <!-- 60 -->
      <g transform="translate(200.982024 290.344979) scale(0.1 -0.1)">
       <defs>
        <path id="DejaVuSans-36" d="M 2113 2584 
Q 1688 2584 1439 2293 
Q 1191 2003 1191 1497 
Q 1191 994 1439 701 
Q 1688 409 2113 409 
Q 2538 409 2786 701 
Q 3034 994 3034 1497 
Q 3034 2003 2786 2293 
Q 2538 2584 2113 2584 
z
M 3366 4563 
L 3366 3988 
Q 3128 4100 2886 4159 
Q 2644 4219 2406 4219 
Q 1781 4219 1451 3797 
Q 1122 3375 1075 2522 
Q 1259 2794 1537 2939 
Q 1816 3084 2150 3084 
Q 2853 3084 3261 2657 
Q 3669 2231 3669 1497 
Q 3669 778 3244 343 
Q 2819 -91 2113 -91 
Q 1303 -91 875 529 
Q 447 1150 447 2328 
Q 447 3434 972 4092 
Q 1497 4750 2381 4750 
Q 2619 4750 2861 4703 
Q 3103 4656 3366 4563 
z
" transform="scale(0.015625)"/>
       </defs>
       <use xlink:href="#DejaVuSans-36"/>
       <use xlink:href="#DejaVuSans-30" x="63.623047"/>
      </g>
     </g>
    </g>
    <g id="xtick_5">
     <g id="line2d_9">
      <path d="M 258.551865 275.746542 
L 258.551865 9.634542 
" clip-path="url(#p539fdce34a)" style="fill: none; stroke: #b0b0b0; stroke-width: 0.8; stroke-linecap: square"/>
     </g>
     <g id="line2d_10">
      <g>
       <use xlink:href="#m9234c65b4e" x="258.551865" y="275.746542" style="stroke: #000000; stroke-width: 0.8"/>
      </g>
     </g>
     <g id="text_5">
      <!-- 80 -->
      <g transform="translate(252.189365 290.344979) scale(0.1 -0.1)">
       <defs>
        <path id="DejaVuSans-38" d="M 2034 2216 
Q 1584 2216 1326 1975 
Q 1069 1734 1069 1313 
Q 1069 891 1326 650 
Q 1584 409 2034 409 
Q 2484 409 2743 651 
Q 3003 894 3003 1313 
Q 3003 1734 2745 1975 
Q 2488 2216 2034 2216 
z
M 1403 2484 
Q 997 2584 770 2862 
Q 544 3141 544 3541 
Q 544 4100 942 4425 
Q 1341 4750 2034 4750 
Q 2731 4750 3128 4425 
Q 3525 4100 3525 3541 
Q 3525 3141 3298 2862 
Q 3072 2584 2669 2484 
Q 3125 2378 3379 2068 
Q 3634 1759 3634 1313 
Q 3634 634 3220 271 
Q 2806 -91 2034 -91 
Q 1263 -91 848 271 
Q 434 634 434 1313 
Q 434 1759 690 2068 
Q 947 2378 1403 2484 
z
M 1172 3481 
Q 1172 3119 1398 2916 
Q 1625 2713 2034 2713 
Q 2441 2713 2670 2916 
Q 2900 3119 2900 3481 
Q 2900 3844 2670 4047 
Q 2441 4250 2034 4250 
Q 1625 4250 1398 4047 
Q 1172 3844 1172 3481 
z
" transform="scale(0.015625)"/>
       </defs>
       <use xlink:href="#DejaVuSans-38"/>
       <use xlink:href="#DejaVuSans-30" x="63.623047"/>
      </g>
     </g>
    </g>
    <g id="xtick_6">
     <g id="line2d_11">
      <path d="M 309.759207 275.746542 
L 309.759207 9.634542 
" clip-path="url(#p539fdce34a)" style="fill: none; stroke: #b0b0b0; stroke-width: 0.8; stroke-linecap: square"/>
     </g>
     <g id="line2d_12">
      <g>
       <use xlink:href="#m9234c65b4e" x="309.759207" y="275.746542" style="stroke: #000000; stroke-width: 0.8"/>
      </g>
     </g>
     <g id="text_6">
      <!-- 100 -->
      <g transform="translate(300.215457 290.344979) scale(0.1 -0.1)">
       <defs>
        <path id="DejaVuSans-31" d="M 794 531 
L 1825 531 
L 1825 4091 
L 703 3866 
L 703 4441 
L 1819 4666 
L 2450 4666 
L 2450 531 
L 3481 531 
L 3481 0 
L 794 0 
L 794 531 
z
" transform="scale(0.015625)"/>
       </defs>
       <use xlink:href="#DejaVuSans-31"/>
       <use xlink:href="#DejaVuSans-30" x="63.623047"/>
       <use xlink:href="#DejaVuSans-30" x="127.246094"/>
      </g>
     </g>
    </g>
    <g id="xtick_7">
     <g id="line2d_13">
      <path d="M 360.966548 275.746542 
L 360.966548 9.634542 
" clip-path="url(#p539fdce34a)" style="fill: none; stroke: #b0b0b0; stroke-width: 0.8; stroke-linecap: square"/>
     </g>
     <g id="line2d_14">
      <g>
       <use xlink:href="#m9234c65b4e" x="360.966548" y="275.746542" style="stroke: #000000; stroke-width: 0.8"/>
      </g>
     </g>
     <g id="text_7">
      <!-- 120 -->
      <g transform="translate(351.422798 290.344979) scale(0.1 -0.1)">
       <use xlink:href="#DejaVuSans-31"/>
       <use xlink:href="#DejaVuSans-32" x="63.623047"/>
       <use xlink:href="#DejaVuSans-30" x="127.246094"/>
      </g>
     </g>
    </g>
   </g>
   <g id="matplotlib.axis_2">
    <g id="ytick_1">
     <g id="line2d_15">
      <path d="M 36.465625 275.746542 
L 393.585625 275.746542 
" clip-path="url(#p539fdce34a)" style="fill: none; stroke: #b0b0b0; stroke-width: 0.8; stroke-linecap: square"/>
     </g>
     <g id="line2d_16">
      <defs>
       <path id="m701c4da6c0" d="M 0 0 
L -3.5 0 
" style="stroke: #000000; stroke-width: 0.8"/>
      </defs>
      <g>
       <use xlink:href="#m701c4da6c0" x="36.465625" y="275.746542" style="stroke: #000000; stroke-width: 0.8"/>
      </g>
     </g>
     <g id="text_8">
      <!-- 0.00 -->
      <g transform="translate(7.2 279.545761) scale(0.1 -0.1)">
       <defs>
        <path id="DejaVuSans-2e" d="M 684 794 
L 1344 794 
L 1344 0 
L 684 0 
L 684 794 
z
" transform="scale(0.015625)"/>
       </defs>
       <use xlink:href="#DejaVuSans-30"/>
       <use xlink:href="#DejaVuSans-2e" x="63.623047"/>
       <use xlink:href="#DejaVuSans-30" x="95.410156"/>
       <use xlink:href="#DejaVuSans-30" x="159.033203"/>
      </g>
     </g>
    </g>
    <g id="ytick_2">
     <g id="line2d_17">
      <path d="M 36.465625 237.925496 
L 393.585625 237.925496 
" clip-path="url(#p539fdce34a)" style="fill: none; stroke: #b0b0b0; stroke-width: 0.8; stroke-linecap: square"/>
     </g>
     <g id="line2d_18">
      <g>
       <use xlink:href="#m701c4da6c0" x="36.465625" y="237.925496" style="stroke: #000000; stroke-width: 0.8"/>
      </g>
     </g>
     <g id="text_9">
      <!-- 0.02 -->
      <g transform="translate(7.2 241.724714) scale(0.1 -0.1)">
       <use xlink:href="#DejaVuSans-30"/>
       <use xlink:href="#DejaVuSans-2e" x="63.623047"/>
       <use xlink:href="#DejaVuSans-30" x="95.410156"/>
       <use xlink:href="#DejaVuSans-32" x="159.033203"/>
      </g>
     </g>
    </g>
    <g id="ytick_3">
     <g id="line2d_19">
      <path d="M 36.465625 200.10445 
L 393.585625 200.10445 
" clip-path="url(#p539fdce34a)" style="fill: none; stroke: #b0b0b0; stroke-width: 0.8; stroke-linecap: square"/>
     </g>
     <g id="line2d_20">
      <g>
       <use xlink:href="#m701c4da6c0" x="36.465625" y="200.10445" style="stroke: #000000; stroke-width: 0.8"/>
      </g>
     </g>
     <g id="text_10">
      <!-- 0.04 -->
      <g transform="translate(7.2 203.903668) scale(0.1 -0.1)">
       <use xlink:href="#DejaVuSans-30"/>
       <use xlink:href="#DejaVuSans-2e" x="63.623047"/>
       <use xlink:href="#DejaVuSans-30" x="95.410156"/>
       <use xlink:href="#DejaVuSans-34" x="159.033203"/>
      </g>
     </g>
    </g>
    <g id="ytick_4">
     <g id="line2d_21">
      <path d="M 36.465625 162.283403 
L 393.585625 162.283403 
" clip-path="url(#p539fdce34a)" style="fill: none; stroke: #b0b0b0; stroke-width: 0.8; stroke-linecap: square"/>
     </g>
     <g id="line2d_22">
      <g>
       <use xlink:href="#m701c4da6c0" x="36.465625" y="162.283403" style="stroke: #000000; stroke-width: 0.8"/>
      </g>
     </g>
     <g id="text_11">
      <!-- 0.06 -->
      <g transform="translate(7.2 166.082622) scale(0.1 -0.1)">
       <use xlink:href="#DejaVuSans-30"/>
       <use xlink:href="#DejaVuSans-2e" x="63.623047"/>
       <use xlink:href="#DejaVuSans-30" x="95.410156"/>
       <use xlink:href="#DejaVuSans-36" x="159.033203"/>
      </g>
     </g>
    </g>
    <g id="ytick_5">
     <g id="line2d_23">
      <path d="M 36.465625 124.462357 
L 393.585625 124.462357 
" clip-path="url(#p539fdce34a)" style="fill: none; stroke: #b0b0b0; stroke-width: 0.8; stroke-linecap: square"/>
     </g>
     <g id="line2d_24">
      <g>
       <use xlink:href="#m701c4da6c0" x="36.465625" y="124.462357" style="stroke: #000000; stroke-width: 0.8"/>
      </g>
     </g>
     <g id="text_12">
      <!-- 0.08 -->
      <g transform="translate(7.2 128.261576) scale(0.1 -0.1)">
       <use xlink:href="#DejaVuSans-30"/>
       <use xlink:href="#DejaVuSans-2e" x="63.623047"/>
       <use xlink:href="#DejaVuSans-30" x="95.410156"/>
       <use xlink:href="#DejaVuSans-38" x="159.033203"/>
      </g>
     </g>
    </g>
    <g id="ytick_6">
     <g id="line2d_25">
      <path d="M 36.465625 86.641311 
L 393.585625 86.641311 
" clip-path="url(#p539fdce34a)" style="fill: none; stroke: #b0b0b0; stroke-width: 0.8; stroke-linecap: square"/>
     </g>
     <g id="line2d_26">
      <g>
       <use xlink:href="#m701c4da6c0" x="36.465625" y="86.641311" style="stroke: #000000; stroke-width: 0.8"/>
      </g>
     </g>
     <g id="text_13">
      <!-- 0.10 -->
      <g transform="translate(7.2 90.44053) scale(0.1 -0.1)">
       <use xlink:href="#DejaVuSans-30"/>
       <use xlink:href="#DejaVuSans-2e" x="63.623047"/>
       <use xlink:href="#DejaVuSans-31" x="95.410156"/>
       <use xlink:href="#DejaVuSans-30" x="159.033203"/>
      </g>
     </g>
    </g>
    <g id="ytick_7">
     <g id="line2d_27">
      <path d="M 36.465625 48.820265 
L 393.585625 48.820265 
" clip-path="url(#p539fdce34a)" style="fill: none; stroke: #b0b0b0; stroke-width: 0.8; stroke-linecap: square"/>
     </g>
     <g id="line2d_28">
      <g>
       <use xlink:href="#m701c4da6c0" x="36.465625" y="48.820265" style="stroke: #000000; stroke-width: 0.8"/>
      </g>
     </g>
     <g id="text_14">
      <!-- 0.12 -->
      <g transform="translate(7.2 52.619484) scale(0.1 -0.1)">
       <use xlink:href="#DejaVuSans-30"/>
       <use xlink:href="#DejaVuSans-2e" x="63.623047"/>
       <use xlink:href="#DejaVuSans-31" x="95.410156"/>
       <use xlink:href="#DejaVuSans-32" x="159.033203"/>
      </g>
     </g>
    </g>
    <g id="ytick_8">
     <g id="line2d_29">
      <path d="M 36.465625 10.999219 
L 393.585625 10.999219 
" clip-path="url(#p539fdce34a)" style="fill: none; stroke: #b0b0b0; stroke-width: 0.8; stroke-linecap: square"/>
     </g>
     <g id="line2d_30">
      <g>
       <use xlink:href="#m701c4da6c0" x="36.465625" y="10.999219" style="stroke: #000000; stroke-width: 0.8"/>
      </g>
     </g>
     <g id="text_15">
      <!-- 0.14 -->
      <g transform="translate(7.2 14.798437) scale(0.1 -0.1)">
       <use xlink:href="#DejaVuSans-30"/>
       <use xlink:href="#DejaVuSans-2e" x="63.623047"/>
       <use xlink:href="#DejaVuSans-31" x="95.410156"/>
       <use xlink:href="#DejaVuSans-34" x="159.033203"/>
      </g>
     </g>
    </g>
   </g>
   <g id="patch_130">
    <path d="M 36.465625 275.746542 
L 36.465625 9.634542 
" style="fill: none; stroke: #000000; stroke-width: 0.8; stroke-linejoin: miter; stroke-linecap: square"/>
   </g>
   <g id="patch_131">
    <path d="M 393.585625 275.746542 
L 393.585625 9.634542 
" style="fill: none; stroke: #000000; stroke-width: 0.8; stroke-linejoin: miter; stroke-linecap: square"/>
   </g>
   <g id="patch_132">
    <path d="M 36.465625 275.746542 
L 393.585625 275.746542 
" style="fill: none; stroke: #000000; stroke-width: 0.8; stroke-linejoin: miter; stroke-linecap: square"/>
   </g>
   <g id="patch_133">
    <path d="M 36.465625 9.634542 
L 393.585625 9.634542 
" style="fill: none; stroke: #000000; stroke-width: 0.8; stroke-linejoin: miter; stroke-linecap: square"/>
   </g>
  </g>
 </g>
 <defs>
  <clipPath id="p539fdce34a">
   <rect x="36.465625" y="9.634542" width="357.12" height="266.112"/>
  </clipPath>
 </defs>
</svg>