<?xml version="1.0" encoding="utf-8" standalone="no"?>
<!DOCTYPE svg PUBLIC "-//W3C//DTD SVG 1.1//EN"
  "http://www.w3.org/Graphics/SVG/1.1/DTD/svg11.dtd">
<svg xmlns:xlink="http://www.w3.org/1999/xlink" width="400.785625pt" height="312.30825pt" viewBox="0 0 400.785625 312.30825" xmlns="http://www.w3.org/2000/svg" version="1.1">
 <metadata>
  <rdf:RDF xmlns:dc="http://purl.org/dc/elements/1.1/" xmlns:cc="http://creativecommons.org/ns#" xmlns:rdf="http://www.w3.org/1999/02/22-rdf-syntax-ns#">
   <cc:Work>
    <dc:type rdf:resource="http://purl.org/dc/dcmitype/StillImage"/>
    <dc:date>2024-08-22T20:17:15.661943</dc:date>
    <dc:format>image/svg+xml</dc:format>
    <dc:creator>
     <cc:Agent>
      <dc:title>Matplotlib v3.8.4, https://matplotlib.org/</dc:title>
     </cc:Agent>
    </dc:creator>
   </cc:Work>
  </rdf:RDF>
 </metadata>
 <defs>
  <style type="text/css">*{stroke-linejoin: round; stroke-linecap: butt}</style>
 </defs>
 <g id="figure_1">
  <g id="patch_1">
   <path d="M 0 312.30825 
L 400.785625 312.30825 
L 400.785625 0 
L 0 0 
z
" style="fill: #ffffff"/>
  </g>
  <g id="axes_1">
   <g id="patch_2">
    <path d="M 36.465625 288.430125 
L 393.585625 288.430125 
L 393.585625 22.318125 
L 36.465625 22.318125 
z
" style="fill: #ffffff"/>
   </g>
   <g id="patch_3">
    <path d="M 52.698352 288.430125 
L 55.65648 288.430125 
L 55.65648 288.409103 
L 52.698352 288.409103 
z
" clip-path="url(#pd7494f2ca4)" style="fill: #1f77b4"/>
   </g>
   <g id="patch_4">
    <path d="M 56.396012 288.430125 
L 59.35414 288.430125 
L 59.35414 288.391933 
L 56.396012 288.391933 
z
" clip-path="url(#pd7494f2ca4)" style="fill: #1f77b4"/>
   </g>
   <g id="patch_5">
    <path d="M 60.093672 288.430125 
L 63.0518 288.430125 
L 63.0518 288.404402 
L 60.093672 288.404402 
z
" clip-path="url(#pd7494f2ca4)" style="fill: #1f77b4"/>
   </g>
   <g id="patch_6">
    <path d="M 63.791332 288.430125 
L 66.74946 288.430125 
L 66.74946 287.968689 
L 63.791332 287.968689 
z
" clip-path="url(#pd7494f2ca4)" style="fill: #1f77b4"/>
   </g>
   <g id="patch_7">
    <path d="M 67.488992 288.430125 
L 70.44712 288.430125 
L 70.44712 288.350478 
L 67.488992 288.350478 
z
" clip-path="url(#pd7494f2ca4)" style="fill: #1f77b4"/>
   </g>
   <g id="patch_8">
    <path d="M 71.186652 288.430125 
L 74.14478 288.430125 
L 74.14478 288.118482 
L 71.186652 288.118482 
z
" clip-path="url(#pd7494f2ca4)" style="fill: #1f77b4"/>
   </g>
   <g id="patch_9">
    <path d="M 74.884312 288.430125 
L 77.84244 288.430125 
L 77.84244 287.617327 
L 74.884312 287.617327 
z
" clip-path="url(#pd7494f2ca4)" style="fill: #1f77b4"/>
   </g>
   <g id="patch_10">
    <path d="M 78.581972 288.430125 
L 81.5401 288.430125 
L 81.5401 287.493755 
L 78.581972 287.493755 
z
" clip-path="url(#pd7494f2ca4)" style="fill: #1f77b4"/>
   </g>
   <g id="patch_11">
    <path d="M 82.279632 288.430125 
L 85.23776 288.430125 
L 85.23776 277.481324 
L 82.279632 277.481324 
z
" clip-path="url(#pd7494f2ca4)" style="fill: #1f77b4"/>
   </g>
   <g id="patch_12">
    <path d="M 85.977292 288.430125 
L 88.93542 288.430125 
L 88.93542 287.179199 
L 85.977292 287.179199 
z
" clip-path="url(#pd7494f2ca4)" style="fill: #1f77b4"/>
   </g>
   <g id="patch_13">
    <path d="M 89.674952 288.430125 
L 92.63308 288.430125 
L 92.63308 284.928592 
L 89.674952 284.928592 
z
" clip-path="url(#pd7494f2ca4)" style="fill: #1f77b4"/>
   </g>
   <g id="patch_14">
    <path d="M 93.372612 288.430125 
L 96.33074 288.430125 
L 96.33074 283.089787 
L 93.372612 283.089787 
z
" clip-path="url(#pd7494f2ca4)" style="fill: #1f77b4"/>
   </g>
   <g id="patch_15">
    <path d="M 97.070272 288.430125 
L 100.0284 288.430125 
L 100.0284 281.532923 
L 97.070272 281.532923 
z
" clip-path="url(#pd7494f2ca4)" style="fill: #1f77b4"/>
   </g>
   <g id="patch_16">
    <path d="M 100.767932 288.430125 
L 103.72606 288.430125 
L 103.72606 286.303325 
L 100.767932 286.303325 
z
" clip-path="url(#pd7494f2ca4)" style="fill: #1f77b4"/>
   </g>
   <g id="patch_17">
    <path d="M 104.465592 288.430125 
L 107.42372 288.430125 
L 107.42372 283.320793 
L 104.465592 283.320793 
z
" clip-path="url(#pd7494f2ca4)" style="fill: #1f77b4"/>
   </g>
   <g id="patch_18">
    <path d="M 108.163252 288.430125 
L 111.12138 288.430125 
L 111.12138 244.044706 
L 108.163252 244.044706 
z
" clip-path="url(#pd7494f2ca4)" style="fill: #1f77b4"/>
   </g>
   <g id="patch_19">
    <path d="M 111.860912 288.430125 
L 114.81904 288.430125 
L 114.81904 284.404126 
L 111.860912 284.404126 
z
" clip-path="url(#pd7494f2ca4)" style="fill: #1f77b4"/>
   </g>
   <g id="patch_20">
    <path d="M 115.558572 288.430125 
L 118.5167 288.430125 
L 118.5167 274.739979 
L 115.558572 274.739979 
z
" clip-path="url(#pd7494f2ca4)" style="fill: #1f77b4"/>
   </g>
   <g id="patch_21">
    <path d="M 119.256232 288.430125 
L 122.21436 288.430125 
L 122.21436 275.155713 
L 119.256232 275.155713 
z
" clip-path="url(#pd7494f2ca4)" style="fill: #1f77b4"/>
   </g>
   <g id="patch_22">
    <path d="M 122.953892 288.430125 
L 125.91202 288.430125 
L 125.91202 270.942282 
L 122.953892 270.942282 
z
" clip-path="url(#pd7494f2ca4)" style="fill: #1f77b4"/>
   </g>
   <g id="patch_23">
    <path d="M 126.651552 288.430125 
L 129.60968 288.430125 
L 129.60968 260.780682 
L 126.651552 260.780682 
z
" clip-path="url(#pd7494f2ca4)" style="fill: #1f77b4"/>
   </g>
   <g id="patch_24">
    <path d="M 130.349212 288.430125 
L 133.30734 288.430125 
L 133.30734 279.046925 
L 130.349212 279.046925 
z
" clip-path="url(#pd7494f2ca4)" style="fill: #1f77b4"/>
   </g>
   <g id="patch_25">
    <path d="M 134.046872 288.430125 
L 137.005 288.430125 
L 137.005 250.212931 
L 134.046872 250.212931 
z
" clip-path="url(#pd7494f2ca4)" style="fill: #1f77b4"/>
   </g>
   <g id="patch_26">
    <path d="M 137.744532 288.430125 
L 140.70266 288.430125 
L 140.70266 273.613227 
L 137.744532 273.613227 
z
" clip-path="url(#pd7494f2ca4)" style="fill: #1f77b4"/>
   </g>
   <g id="patch_27">
    <path d="M 141.442192 288.430125 
L 144.40032 288.430125 
L 144.40032 256.143579 
L 141.442192 256.143579 
z
" clip-path="url(#pd7494f2ca4)" style="fill: #1f77b4"/>
   </g>
   <g id="patch_28">
    <path d="M 145.139852 288.430125 
L 148.09798 288.430125 
L 148.09798 262.254562 
L 145.139852 262.254562 
z
" clip-path="url(#pd7494f2ca4)" style="fill: #1f77b4"/>
   </g>
   <g id="patch_29">
    <path d="M 148.837512 288.430125 
L 151.795639 288.430125 
L 151.795639 269.566136 
L 148.837512 269.566136 
z
" clip-path="url(#pd7494f2ca4)" style="fill: #1f77b4"/>
   </g>
   <g id="patch_30">
    <path d="M 152.535171 288.430125 
L 155.493299 288.430125 
L 155.493299 39.99992 
L 152.535171 39.99992 
z
" clip-path="url(#pd7494f2ca4)" style="fill: #1f77b4"/>
   </g>
   <g id="patch_31">
    <path d="M 156.232831 288.430125 
L 159.190959 288.430125 
L 159.190959 272.334942 
L 156.232831 272.334942 
z
" clip-path="url(#pd7494f2ca4)" style="fill: #1f77b4"/>
   </g>
   <g id="patch_32">
    <path d="M 159.930491 288.430125 
L 162.888619 288.430125 
L 162.888619 235.551146 
L 159.930491 235.551146 
z
" clip-path="url(#pd7494f2ca4)" style="fill: #1f77b4"/>
   </g>
   <g id="patch_33">
    <path d="M 163.628151 288.430125 
L 166.586279 288.430125 
L 166.586279 233.847614 
L 163.628151 233.847614 
z
" clip-path="url(#pd7494f2ca4)" style="fill: #1f77b4"/>
   </g>
   <g id="patch_34">
    <path d="M 167.325811 288.430125 
L 170.283939 288.430125 
L 170.283939 248.285428 
L 167.325811 248.285428 
z
" clip-path="url(#pd7494f2ca4)" style="fill: #1f77b4"/>
   </g>
   <g id="patch_35">
    <path d="M 171.023471 288.430125 
L 173.981599 288.430125 
L 173.981599 183.196265 
L 171.023471 183.196265 
z
" clip-path="url(#pd7494f2ca4)" style="fill: #1f77b4"/>
   </g>
   <g id="patch_36">
    <path d="M 174.721131 288.430125 
L 177.679259 288.430125 
L 177.679259 257.25984 
L 174.721131 257.25984 
z
" clip-path="url(#pd7494f2ca4)" style="fill: #1f77b4"/>
   </g>
   <g id="patch_37">
    <path d="M 178.418791 288.430125 
L 181.376919 288.430125 
L 181.376919 120.067119 
L 178.418791 120.067119 
z
" clip-path="url(#pd7494f2ca4)" style="fill: #1f77b4"/>
   </g>
   <g id="patch_38">
    <path d="M 182.116451 288.430125 
L 185.074579 288.430125 
L 185.074579 227.196838 
L 182.116451 227.196838 
z
" clip-path="url(#pd7494f2ca4)" style="fill: #1f77b4"/>
   </g>
   <g id="patch_39">
    <path d="M 185.814111 288.430125 
L 188.772239 288.430125 
L 188.772239 86.585122 
L 185.814111 86.585122 
z
" clip-path="url(#pd7494f2ca4)" style="fill: #1f77b4"/>
   </g>
   <g id="patch_40">
    <path d="M 189.511771 288.430125 
L 192.469899 288.430125 
L 192.469899 198.506009 
L 189.511771 198.506009 
z
" clip-path="url(#pd7494f2ca4)" style="fill: #1f77b4"/>
   </g>
   <g id="patch_41">
    <path d="M 193.209431 288.430125 
L 196.167559 288.430125 
L 196.167559 219.070907 
L 193.209431 219.070907 
z
" clip-path="url(#pd7494f2ca4)" style="fill: #1f77b4"/>
   </g>
   <g id="patch_42">
    <path d="M 196.907091 288.430125 
L 199.865219 288.430125 
L 199.865219 213.034592 
L 196.907091 213.034592 
z
" clip-path="url(#pd7494f2ca4)" style="fill: #1f77b4"/>
   </g>
   <g id="patch_43">
    <path d="M 200.604751 288.430125 
L 203.562879 288.430125 
L 203.562879 261.121639 
L 200.604751 261.121639 
z
" clip-path="url(#pd7494f2ca4)" style="fill: #1f77b4"/>
   </g>
   <g id="patch_44">
    <path d="M 204.302411 288.430125 
L 207.260539 288.430125 
L 207.260539 142.326719 
L 204.302411 142.326719 
z
" clip-path="url(#pd7494f2ca4)" style="fill: #1f77b4"/>
   </g>
   <g id="patch_45">
    <path d="M 208.000071 288.430125 
L 210.958199 288.430125 
L 210.958199 34.990125 
L 208.000071 34.990125 
z
" clip-path="url(#pd7494f2ca4)" style="fill: #1f77b4"/>
   </g>
   <g id="patch_46">
    <path d="M 211.697731 288.430125 
L 214.655859 288.430125 
L 214.655859 140.969261 
L 211.697731 140.969261 
z
" clip-path="url(#pd7494f2ca4)" style="fill: #1f77b4"/>
   </g>
   <g id="patch_47">
    <path d="M 215.395391 288.430125 
L 218.353519 288.430125 
L 218.353519 129.745877 
L 215.395391 129.745877 
z
" clip-path="url(#pd7494f2ca4)" style="fill: #1f77b4"/>
   </g>
   <g id="patch_48">
    <path d="M 219.093051 288.430125 
L 222.051179 288.430125 
L 222.051179 229.797913 
L 219.093051 229.797913 
z
" clip-path="url(#pd7494f2ca4)" style="fill: #1f77b4"/>
   </g>
   <g id="patch_49">
    <path d="M 222.790711 288.430125 
L 225.748839 288.430125 
L 225.748839 110.20391 
L 222.790711 110.20391 
z
" clip-path="url(#pd7494f2ca4)" style="fill: #1f77b4"/>
   </g>
   <g id="patch_50">
    <path d="M 226.488371 288.430125 
L 229.446499 288.430125 
L 229.446499 221.26448 
L 226.488371 221.26448 
z
" clip-path="url(#pd7494f2ca4)" style="fill: #1f77b4"/>
   </g>
   <g id="patch_51">
    <path d="M 230.186031 288.430125 
L 233.144159 288.430125 
L 233.144159 160.440896 
L 230.186031 160.440896 
z
" clip-path="url(#pd7494f2ca4)" style="fill: #1f77b4"/>
   </g>
   <g id="patch_52">
    <path d="M 233.883691 288.430125 
L 236.841819 288.430125 
L 236.841819 223.289052 
L 233.883691 223.289052 
z
" clip-path="url(#pd7494f2ca4)" style="fill: #1f77b4"/>
   </g>
   <g id="patch_53">
    <path d="M 237.581351 288.430125 
L 240.539479 288.430125 
L 240.539479 238.042696 
L 237.581351 238.042696 
z
" clip-path="url(#pd7494f2ca4)" style="fill: #1f77b4"/>
   </g>
   <g id="patch_54">
    <path d="M 241.279011 288.430125 
L 244.237139 288.430125 
L 244.237139 49.684068 
L 241.279011 49.684068 
z
" clip-path="url(#pd7494f2ca4)" style="fill: #1f77b4"/>
   </g>
   <g id="patch_55">
    <path d="M 244.976671 288.430125 
L 247.934799 288.430125 
L 247.934799 271.873087 
L 244.976671 271.873087 
z
" clip-path="url(#pd7494f2ca4)" style="fill: #1f77b4"/>
   </g>
   <g id="patch_56">
    <path d="M 248.674331 288.430125 
L 251.632459 288.430125 
L 251.632459 217.67744 
L 248.674331 217.67744 
z
" clip-path="url(#pd7494f2ca4)" style="fill: #1f77b4"/>
   </g>
   <g id="patch_57">
    <path d="M 252.371991 288.430125 
L 255.330119 288.430125 
L 255.330119 186.867009 
L 252.371991 186.867009 
z
" clip-path="url(#pd7494f2ca4)" style="fill: #1f77b4"/>
   </g>
   <g id="patch_58">
    <path d="M 256.069651 288.430125 
L 259.027779 288.430125 
L 259.027779 237.961309 
L 256.069651 237.961309 
z
" clip-path="url(#pd7494f2ca4)" style="fill: #1f77b4"/>
   </g>
   <g id="patch_59">
    <path d="M 259.767311 288.430125 
L 262.725439 288.430125 
L 262.725439 215.59166 
L 259.767311 215.59166 
z
" clip-path="url(#pd7494f2ca4)" style="fill: #1f77b4"/>
   </g>
   <g id="patch_60">
    <path d="M 263.464971 288.430125 
L 266.423099 288.430125 
L 266.423099 270.426691 
L 263.464971 270.426691 
z
" clip-path="url(#pd7494f2ca4)" style="fill: #1f77b4"/>
   </g>
   <g id="patch_61">
    <path d="M 267.162631 288.430125 
L 270.120759 288.430125 
L 270.120759 181.825019 
L 267.162631 181.825019 
z
" clip-path="url(#pd7494f2ca4)" style="fill: #1f77b4"/>
   </g>
   <g id="patch_62">
    <path d="M 270.860291 288.430125 
L 273.818419 288.430125 
L 273.818419 252.127612 
L 270.860291 252.127612 
z
" clip-path="url(#pd7494f2ca4)" style="fill: #1f77b4"/>
   </g>
   <g id="patch_63">
    <path d="M 274.557951 288.430125 
L 277.516079 288.430125 
L 277.516079 223.971893 
L 274.557951 223.971893 
z
" clip-path="url(#pd7494f2ca4)" style="fill: #1f77b4"/>
   </g>
   <g id="patch_64">
    <path d="M 278.255611 288.430125 
L 281.213738 288.430125 
L 281.213738 258.300184 
L 278.255611 258.300184 
z
" clip-path="url(#pd7494f2ca4)" style="fill: #1f77b4"/>
   </g>
   <g id="patch_65">
    <path d="M 281.95327 288.430125 
L 284.911398 288.430125 
L 284.911398 268.628995 
L 281.95327 268.628995 
z
" clip-path="url(#pd7494f2ca4)" style="fill: #1f77b4"/>
   </g>
   <g id="patch_66">
    <path d="M 285.65093 288.430125 
L 288.609058 288.430125 
L 288.609058 207.417815 
L 285.65093 207.417815 
z
" clip-path="url(#pd7494f2ca4)" style="fill: #1f77b4"/>
   </g>
   <g id="patch_67">
    <path d="M 289.34859 288.430125 
L 292.306718 288.430125 
L 292.306718 277.728143 
L 289.34859 277.728143 
z
" clip-path="url(#pd7494f2ca4)" style="fill: #1f77b4"/>
   </g>
   <g id="patch_68">
    <path d="M 293.04625 288.430125 
L 296.004378 288.430125 
L 296.004378 268.290251 
L 293.04625 268.290251 
z
" clip-path="url(#pd7494f2ca4)" style="fill: #1f77b4"/>
   </g>
   <g id="patch_69">
    <path d="M 296.74391 288.430125 
L 299.702038 288.430125 
L 299.702038 269.043432 
L 296.74391 269.043432 
z
" clip-path="url(#pd7494f2ca4)" style="fill: #1f77b4"/>
   </g>
   <g id="patch_70">
    <path d="M 300.44157 288.430125 
L 303.399698 288.430125 
L 303.399698 259.203286 
L 300.44157 259.203286 
z
" clip-path="url(#pd7494f2ca4)" style="fill: #1f77b4"/>
   </g>
   <g id="patch_71">
    <path d="M 304.13923 288.430125 
L 307.097358 288.430125 
L 307.097358 263.832754 
L 304.13923 263.832754 
z
" clip-path="url(#pd7494f2ca4)" style="fill: #1f77b4"/>
   </g>
   <g id="patch_72">
    <path d="M 307.83689 288.430125 
L 310.795018 288.430125 
L 310.795018 280.186674 
L 307.83689 280.186674 
z
" clip-path="url(#pd7494f2ca4)" style="fill: #1f77b4"/>
   </g>
   <g id="patch_73">
    <path d="M 311.53455 288.430125 
L 314.492678 288.430125 
L 314.492678 259.280954 
L 311.53455 259.280954 
z
" clip-path="url(#pd7494f2ca4)" style="fill: #1f77b4"/>
   </g>
   <g id="patch_74">
    <path d="M 315.23221 288.430125 
L 318.190338 288.430125 
L 318.190338 281.21926 
L 315.23221 281.21926 
z
" clip-path="url(#pd7494f2ca4)" style="fill: #1f77b4"/>
   </g>
   <g id="patch_75">
    <path d="M 318.92987 288.430125 
L 321.887998 288.430125 
L 321.887998 278.502077 
L 318.92987 278.502077 
z
" clip-path="url(#pd7494f2ca4)" style="fill: #1f77b4"/>
   </g>
   <g id="patch_76">
    <path d="M 322.62753 288.430125 
L 325.585658 288.430125 
L 325.585658 280.011088 
L 322.62753 280.011088 
z
" clip-path="url(#pd7494f2ca4)" style="fill: #1f77b4"/>
   </g>
   <g id="patch_77">
    <path d="M 326.32519 288.430125 
L 329.283318 288.430125 
L 329.283318 282.695154 
L 326.32519 282.695154 
z
" clip-path="url(#pd7494f2ca4)" style="fill: #1f77b4"/>
   </g>
   <g id="patch_78">
    <path d="M 330.02285 288.430125 
L 332.980978 288.430125 
L 332.980978 274.931284 
L 330.02285 274.931284 
z
" clip-path="url(#pd7494f2ca4)" style="fill: #1f77b4"/>
   </g>
   <g id="patch_79">
    <path d="M 333.72051 288.430125 
L 336.678638 288.430125 
L 336.678638 287.307063 
L 333.72051 287.307063 
z
" clip-path="url(#pd7494f2ca4)" style="fill: #1f77b4"/>
   </g>
   <g id="patch_80">
    <path d="M 337.41817 288.430125 
L 340.376298 288.430125 
L 340.376298 285.342195 
L 337.41817 285.342195 
z
" clip-path="url(#pd7494f2ca4)" style="fill: #1f77b4"/>
   </g>
   <g id="patch_81">
    <path d="M 341.11583 288.430125 
L 344.073958 288.430125 
L 344.073958 285.523746 
L 341.11583 285.523746 
z
" clip-path="url(#pd7494f2ca4)" style="fill: #1f77b4"/>
   </g>
   <g id="patch_82">
    <path d="M 344.81349 288.430125 
L 347.771618 288.430125 
L 347.771618 285.712054 
L 344.81349 285.712054 
z
" clip-path="url(#pd7494f2ca4)" style="fill: #1f77b4"/>
   </g>
   <g id="patch_83">
    <path d="M 348.51115 288.430125 
L 351.469278 288.430125 
L 351.469278 286.042698 
L 348.51115 286.042698 
z
" clip-path="url(#pd7494f2ca4)" style="fill: #1f77b4"/>
   </g>
   <g id="patch_84">
    <path d="M 352.20881 288.430125 
L 355.166938 288.430125 
L 355.166938 288.127456 
L 352.20881 288.127456 
z
" clip-path="url(#pd7494f2ca4)" style="fill: #1f77b4"/>
   </g>
   <g id="patch_85">
    <path d="M 355.90647 288.430125 
L 358.864598 288.430125 
L 358.864598 288.121955 
L 355.90647 288.121955 
z
" clip-path="url(#pd7494f2ca4)" style="fill: #1f77b4"/>
   </g>
   <g id="patch_86">
    <path d="M 359.60413 288.430125 
L 362.562258 288.430125 
L 362.562258 288.313945 
L 359.60413 288.313945 
z
" clip-path="url(#pd7494f2ca4)" style="fill: #1f77b4"/>
   </g>
   <g id="patch_87">
    <path d="M 363.30179 288.430125 
L 366.259918 288.430125 
L 366.259918 288.280765 
L 363.30179 288.280765 
z
" clip-path="url(#pd7494f2ca4)" style="fill: #1f77b4"/>
   </g>
   <g id="patch_88">
    <path d="M 366.99945 288.430125 
L 369.957578 288.430125 
L 369.957578 288.429329 
L 366.99945 288.429329 
z
" clip-path="url(#pd7494f2ca4)" style="fill: #1f77b4"/>
   </g>
   <g id="patch_89">
    <path d="M 370.69711 288.430125 
L 373.655238 288.430125 
L 373.655238 288.429757 
L 370.69711 288.429757 
z
" clip-path="url(#pd7494f2ca4)" style="fill: #1f77b4"/>
   </g>
   <g id="patch_90">
    <path d="M 374.39477 288.430125 
L 377.352898 288.430125 
L 377.352898 288.430036 
L 374.39477 288.430036 
z
" clip-path="url(#pd7494f2ca4)" style="fill: #1f77b4"/>
   </g>
   <g id="matplotlib.axis_1">
    <g id="xtick_1">
     <g id="line2d_1">
      <defs>
       <path id="m17a232a380" d="M 0 0 
L 0 3.5 
" style="stroke: #000000; stroke-width: 0.8"/>
      </defs>
      <g>
       <use xlink:href="#m17a232a380" x="50.479756" y="288.430125" style="stroke: #000000; stroke-width: 0.8"/>
      </g>
     </g>
     <g id="text_1">
      <!-- 20 -->
      <g transform="translate(44.117256 303.028562) scale(0.1 -0.1)">
       <defs>
        <path id="DejaVuSans-32" d="M 1228 531 
L 3431 531 
L 3431 0 
L 469 0 
L 469 531 
Q 828 903 1448 1529 
Q 2069 2156 2228 2338 
Q 2531 2678 2651 2914 
Q 2772 3150 2772 3378 
Q 2772 3750 2511 3984 
Q 2250 4219 1831 4219 
Q 1534 4219 1204 4116 
Q 875 4013 500 3803 
L 500 4441 
Q 881 4594 1212 4672 
Q 1544 4750 1819 4750 
Q 2544 4750 2975 4387 
Q 3406 4025 3406 3419 
Q 3406 3131 3298 2873 
Q 3191 2616 2906 2266 
Q 2828 2175 2409 1742 
Q 1991 1309 1228 531 
z
" transform="scale(0.015625)"/>
        <path id="DejaVuSans-30" d="M 2034 4250 
Q 1547 4250 1301 3770 
Q 1056 3291 1056 2328 
Q 1056 1369 1301 889 
Q 1547 409 2034 409 
Q 2525 409 2770 889 
Q 3016 1369 3016 2328 
Q 3016 3291 2770 3770 
Q 2525 4250 2034 4250 
z
M 2034 4750 
Q 2819 4750 3233 4129 
Q 3647 3509 3647 2328 
Q 3647 1150 3233 529 
Q 2819 -91 2034 -91 
Q 1250 -91 836 529 
Q 422 1150 422 2328 
Q 422 3509 836 4129 
Q 1250 4750 2034 4750 
z
" transform="scale(0.015625)"/>
       </defs>
       <use xlink:href="#DejaVuSans-32"/>
       <use xlink:href="#DejaVuSans-30" x="63.623047"/>
      </g>
     </g>
    </g>
    <g id="xtick_2">
     <g id="line2d_2">
      <g>
       <use xlink:href="#m17a232a380" x="124.432956" y="288.430125" style="stroke: #000000; stroke-width: 0.8"/>
      </g>
     </g>
     <g id="text_2">
      <!-- 40 -->
      <g transform="translate(118.070456 303.028562) scale(0.1 -0.1)">
       <defs>
        <path id="DejaVuSans-34" d="M 2419 4116 
L 825 1625 
L 2419 1625 
L 2419 4116 
z
M 2253 4666 
L 3047 4666 
L 3047 1625 
L 3713 1625 
L 3713 1100 
L 3047 1100 
L 3047 0 
L 2419 0 
L 2419 1100 
L 313 1100 
L 313 1709 
L 2253 4666 
z
" transform="scale(0.015625)"/>
       </defs>
       <use xlink:href="#DejaVuSans-34"/>
       <use xlink:href="#DejaVuSans-30" x="63.623047"/>
      </g>
     </g>
    </g>
    <g id="xtick_3">
     <g id="line2d_3">
      <g>
       <use xlink:href="#m17a232a380" x="198.386155" y="288.430125" style="stroke: #000000; stroke-width: 0.8"/>
      </g>
     </g>
     <g id="text_3">
      <!-- 60 -->
      <g transform="translate(192.023655 303.028562) scale(0.1 -0.1)">
       <defs>
        <path id="DejaVuSans-36" d="M 2113 2584 
Q 1688 2584 1439 2293 
Q 1191 2003 1191 1497 
Q 1191 994 1439 701 
Q 1688 409 2113 409 
Q 2538 409 2786 701 
Q 3034 994 3034 1497 
Q 3034 2003 2786 2293 
Q 2538 2584 2113 2584 
z
M 3366 4563 
L 3366 3988 
Q 3128 4100 2886 4159 
Q 2644 4219 2406 4219 
Q 1781 4219 1451 3797 
Q 1122 3375 1075 2522 
Q 1259 2794 1537 2939 
Q 1816 3084 2150 3084 
Q 2853 3084 3261 2657 
Q 3669 2231 3669 1497 
Q 3669 778 3244 343 
Q 2819 -91 2113 -91 
Q 1303 -91 875 529 
Q 447 1150 447 2328 
Q 447 3434 972 4092 
Q 1497 4750 2381 4750 
Q 2619 4750 2861 4703 
Q 3103 4656 3366 4563 
z
" transform="scale(0.015625)"/>
       </defs>
       <use xlink:href="#DejaVuSans-36"/>
       <use xlink:href="#DejaVuSans-30" x="63.623047"/>
      </g>
     </g>
    </g>
    <g id="xtick_4">
     <g id="line2d_4">
      <g>
       <use xlink:href="#m17a232a380" x="272.339355" y="288.430125" style="stroke: #000000; stroke-width: 0.8"/>
      </g>
     </g>
     <g id="text_4">
      <!-- 80 -->
      <g transform="translate(265.976855 303.028562) scale(0.1 -0.1)">
       <defs>
        <path id="DejaVuSans-38" d="M 2034 2216 
Q 1584 2216 1326 1975 
Q 1069 1734 1069 1313 
Q 1069 891 1326 650 
Q 1584 409 2034 409 
Q 2484 409 2743 651 
Q 3003 894 3003 1313 
Q 3003 1734 2745 1975 
Q 2488 2216 2034 2216 
z
M 1403 2484 
Q 997 2584 770 2862 
Q 544 3141 544 3541 
Q 544 4100 942 4425 
Q 1341 4750 2034 4750 
Q 2731 4750 3128 4425 
Q 3525 4100 3525 3541 
Q 3525 3141 3298 2862 
Q 3072 2584 2669 2484 
Q 3125 2378 3379 2068 
Q 3634 1759 3634 1313 
Q 3634 634 3220 271 
Q 2806 -91 2034 -91 
Q 1263 -91 848 271 
Q 434 634 434 1313 
Q 434 1759 690 2068 
Q 947 2378 1403 2484 
z
M 1172 3481 
Q 1172 3119 1398 2916 
Q 1625 2713 2034 2713 
Q 2441 2713 2670 2916 
Q 2900 3119 2900 3481 
Q 2900 3844 2670 4047 
Q 2441 4250 2034 4250 
Q 1625 4250 1398 4047 
Q 1172 3844 1172 3481 
z
" transform="scale(0.015625)"/>
       </defs>
       <use xlink:href="#DejaVuSans-38"/>
       <use xlink:href="#DejaVuSans-30" x="63.623047"/>
      </g>
     </g>
    </g>
    <g id="xtick_5">
     <g id="line2d_5">
      <g>
       <use xlink:href="#m17a232a380" x="346.292554" y="288.430125" style="stroke: #000000; stroke-width: 0.8"/>
      </g>
     </g>
     <g id="text_5">
      <!-- 100 -->
      <g transform="translate(336.748804 303.028562) scale(0.1 -0.1)">
       <defs>
        <path id="DejaVuSans-31" d="M 794 531 
L 1825 531 
L 1825 4091 
L 703 3866 
L 703 4441 
L 1819 4666 
L 2450 4666 
L 2450 531 
L 3481 531 
L 3481 0 
L 794 0 
L 794 531 
z
" transform="scale(0.015625)"/>
       </defs>
       <use xlink:href="#DejaVuSans-31"/>
       <use xlink:href="#DejaVuSans-30" x="63.623047"/>
       <use xlink:href="#DejaVuSans-30" x="127.246094"/>
      </g>
     </g>
    </g>
   </g>
   <g id="matplotlib.axis_2">
    <g id="ytick_1">
     <g id="line2d_6">
      <defs>
       <path id="m5436fea44f" d="M 0 0 
L -3.5 0 
" style="stroke: #000000; stroke-width: 0.8"/>
      </defs>
      <g>
       <use xlink:href="#m5436fea44f" x="36.465625" y="288.430125" style="stroke: #000000; stroke-width: 0.8"/>
      </g>
     </g>
     <g id="text_6">
      <!-- 0.00 -->
      <g transform="translate(7.2 292.229344) scale(0.1 -0.1)">
       <defs>
        <path id="DejaVuSans-2e" d="M 684 794 
L 1344 794 
L 1344 0 
L 684 0 
L 684 794 
z
" transform="scale(0.015625)"/>
       </defs>
       <use xlink:href="#DejaVuSans-30"/>
       <use xlink:href="#DejaVuSans-2e" x="63.623047"/>
       <use xlink:href="#DejaVuSans-30" x="95.410156"/>
       <use xlink:href="#DejaVuSans-30" x="159.033203"/>
      </g>
     </g>
    </g>
    <g id="ytick_2">
     <g id="line2d_7">
      <g>
       <use xlink:href="#m5436fea44f" x="36.465625" y="249.431232" style="stroke: #000000; stroke-width: 0.8"/>
      </g>
     </g>
     <g id="text_7">
      <!-- 0.01 -->
      <g transform="translate(7.2 253.230451) scale(0.1 -0.1)">
       <use xlink:href="#DejaVuSans-30"/>
       <use xlink:href="#DejaVuSans-2e" x="63.623047"/>
       <use xlink:href="#DejaVuSans-30" x="95.410156"/>
       <use xlink:href="#DejaVuSans-31" x="159.033203"/>
      </g>
     </g>
    </g>
    <g id="ytick_3">
     <g id="line2d_8">
      <g>
       <use xlink:href="#m5436fea44f" x="36.465625" y="210.432339" style="stroke: #000000; stroke-width: 0.8"/>
      </g>
     </g>
     <g id="text_8">
      <!-- 0.02 -->
      <g transform="translate(7.2 214.231558) scale(0.1 -0.1)">
       <use xlink:href="#DejaVuSans-30"/>
       <use xlink:href="#DejaVuSans-2e" x="63.623047"/>
       <use xlink:href="#DejaVuSans-30" x="95.410156"/>
       <use xlink:href="#DejaVuSans-32" x="159.033203"/>
      </g>
     </g>
    </g>
    <g id="ytick_4">
     <g id="line2d_9">
      <g>
       <use xlink:href="#m5436fea44f" x="36.465625" y="171.433446" style="stroke: #000000; stroke-width: 0.8"/>
      </g>
     </g>
     <g id="text_9">
      <!-- 0.03 -->
      <g transform="translate(7.2 175.232665) scale(0.1 -0.1)">
       <defs>
        <path id="DejaVuSans-33" d="M 2597 2516 
Q 3050 2419 3304 2112 
Q 3559 1806 3559 1356 
Q 3559 666 3084 287 
Q 2609 -91 1734 -91 
Q 1441 -91 1130 -33 
Q 819 25 488 141 
L 488 750 
Q 750 597 1062 519 
Q 1375 441 1716 441 
Q 2309 441 2620 675 
Q 2931 909 2931 1356 
Q 2931 1769 2642 2001 
Q 2353 2234 1838 2234 
L 1294 2234 
L 1294 2753 
L 1863 2753 
Q 2328 2753 2575 2939 
Q 2822 3125 2822 3475 
Q 2822 3834 2567 4026 
Q 2313 4219 1838 4219 
Q 1578 4219 1281 4162 
Q 984 4106 628 3988 
L 628 4550 
Q 988 4650 1302 4700 
Q 1616 4750 1894 4750 
Q 2613 4750 3031 4423 
Q 3450 4097 3450 3541 
Q 3450 3153 3228 2886 
Q 3006 2619 2597 2516 
z
" transform="scale(0.015625)"/>
       </defs>
       <use xlink:href="#DejaVuSans-30"/>
       <use xlink:href="#DejaVuSans-2e" x="63.623047"/>
       <use xlink:href="#DejaVuSans-30" x="95.410156"/>
       <use xlink:href="#DejaVuSans-33" x="159.033203"/>
      </g>
     </g>
    </g>
    <g id="ytick_5">
     <g id="line2d_10">
      <g>
       <use xlink:href="#m5436fea44f" x="36.465625" y="132.434553" style="stroke: #000000; stroke-width: 0.8"/>
      </g>
     </g>
     <g id="text_10">
      <!-- 0.04 -->
      <g transform="translate(7.2 136.233772) scale(0.1 -0.1)">
       <use xlink:href="#DejaVuSans-30"/>
       <use xlink:href="#DejaVuSans-2e" x="63.623047"/>
       <use xlink:href="#DejaVuSans-30" x="95.410156"/>
       <use xlink:href="#DejaVuSans-34" x="159.033203"/>
      </g>
     </g>
    </g>
    <g id="ytick_6">
     <g id="line2d_11">
      <g>
       <use xlink:href="#m5436fea44f" x="36.465625" y="93.43566" style="stroke: #000000; stroke-width: 0.8"/>
      </g>
     </g>
     <g id="text_11">
      <!-- 0.05 -->
      <g transform="translate(7.2 97.234878) scale(0.1 -0.1)">
       <defs>
        <path id="DejaVuSans-35" d="M 691 4666 
L 3169 4666 
L 3169 4134 
L 1269 4134 
L 1269 2991 
Q 1406 3038 1543 3061 
Q 1681 3084 1819 3084 
Q 2600 3084 3056 2656 
Q 3513 2228 3513 1497 
Q 3513 744 3044 326 
Q 2575 -91 1722 -91 
Q 1428 -91 1123 -41 
Q 819 9 494 109 
L 494 744 
Q 775 591 1075 516 
Q 1375 441 1709 441 
Q 2250 441 2565 725 
Q 2881 1009 2881 1497 
Q 2881 1984 2565 2268 
Q 2250 2553 1709 2553 
Q 1456 2553 1204 2497 
Q 953 2441 691 2322 
L 691 4666 
z
" transform="scale(0.015625)"/>
       </defs>
       <use xlink:href="#DejaVuSans-30"/>
       <use xlink:href="#DejaVuSans-2e" x="63.623047"/>
       <use xlink:href="#DejaVuSans-30" x="95.410156"/>
       <use xlink:href="#DejaVuSans-35" x="159.033203"/>
      </g>
     </g>
    </g>
    <g id="ytick_7">
     <g id="line2d_12">
      <g>
       <use xlink:href="#m5436fea44f" x="36.465625" y="54.436767" style="stroke: #000000; stroke-width: 0.8"/>
      </g>
     </g>
     <g id="text_12">
      <!-- 0.06 -->
      <g transform="translate(7.2 58.235985) scale(0.1 -0.1)">
       <use xlink:href="#DejaVuSans-30"/>
       <use xlink:href="#DejaVuSans-2e" x="63.623047"/>
       <use xlink:href="#DejaVuSans-30" x="95.410156"/>
       <use xlink:href="#DejaVuSans-36" x="159.033203"/>
      </g>
     </g>
    </g>
   </g>
   <g id="patch_91">
    <path d="M 36.465625 288.430125 
L 36.465625 22.318125 
" style="fill: none; stroke: #000000; stroke-width: 0.8; stroke-linejoin: miter; stroke-linecap: square"/>
   </g>
   <g id="patch_92">
    <path d="M 393.585625 288.430125 
L 393.585625 22.318125 
" style="fill: none; stroke: #000000; stroke-width: 0.8; stroke-linejoin: miter; stroke-linecap: square"/>
   </g>
   <g id="patch_93">
    <path d="M 36.465625 288.430125 
L 393.585625 288.430125 
" style="fill: none; stroke: #000000; stroke-width: 0.8; stroke-linejoin: miter; stroke-linecap: square"/>
   </g>
   <g id="patch_94">
    <path d="M 36.465625 22.318125 
L 393.585625 22.318125 
" style="fill: none; stroke: #000000; stroke-width: 0.8; stroke-linejoin: miter; stroke-linecap: square"/>
   </g>
   <g id="text_13">
    <!-- Probabilites for the next note, starting from 60 -->
    <g transform="translate(75.03625 16.318125) scale(0.12 -0.12)">
     <defs>
      <path id="DejaVuSans-50" d="M 1259 4147 
L 1259 2394 
L 2053 2394 
Q 2494 2394 2734 2622 
Q 2975 2850 2975 3272 
Q 2975 3691 2734 3919 
Q 2494 4147 2053 4147 
L 1259 4147 
z
M 628 4666 
L 2053 4666 
Q 2838 4666 3239 4311 
Q 3641 3956 3641 3272 
Q 3641 2581 3239 2228 
Q 2838 1875 2053 1875 
L 1259 1875 
L 1259 0 
L 628 0 
L 628 4666 
z
" transform="scale(0.015625)"/>
      <path id="DejaVuSans-72" d="M 2631 2963 
Q 2534 3019 2420 3045 
Q 2306 3072 2169 3072 
Q 1681 3072 1420 2755 
Q 1159 2438 1159 1844 
L 1159 0 
L 581 0 
L 581 3500 
L 1159 3500 
L 1159 2956 
Q 1341 3275 1631 3429 
Q 1922 3584 2338 3584 
Q 2397 3584 2469 3576 
Q 2541 3569 2628 3553 
L 2631 2963 
z
" transform="scale(0.015625)"/>
      <path id="DejaVuSans-6f" d="M 1959 3097 
Q 1497 3097 1228 2736 
Q 959 2375 959 1747 
Q 959 1119 1226 758 
Q 1494 397 1959 397 
Q 2419 397 2687 759 
Q 2956 1122 2956 1747 
Q 2956 2369 2687 2733 
Q 2419 3097 1959 3097 
z
M 1959 3584 
Q 2709 3584 3137 3096 
Q 3566 2609 3566 1747 
Q 3566 888 3137 398 
Q 2709 -91 1959 -91 
Q 1206 -91 779 398 
Q 353 888 353 1747 
Q 353 2609 779 3096 
Q 1206 3584 1959 3584 
z
" transform="scale(0.015625)"/>
      <path id="DejaVuSans-62" d="M 3116 1747 
Q 3116 2381 2855 2742 
Q 2594 3103 2138 3103 
Q 1681 3103 1420 2742 
Q 1159 2381 1159 1747 
Q 1159 1113 1420 752 
Q 1681 391 2138 391 
Q 2594 391 2855 752 
Q 3116 1113 3116 1747 
z
M 1159 2969 
Q 1341 3281 1617 3432 
Q 1894 3584 2278 3584 
Q 2916 3584 3314 3078 
Q 3713 2572 3713 1747 
Q 3713 922 3314 415 
Q 2916 -91 2278 -91 
Q 1894 -91 1617 61 
Q 1341 213 1159 525 
L 1159 0 
L 581 0 
L 581 4863 
L 1159 4863 
L 1159 2969 
z
" transform="scale(0.015625)"/>
      <path id="DejaVuSans-61" d="M 2194 1759 
Q 1497 1759 1228 1600 
Q 959 1441 959 1056 
Q 959 750 1161 570 
Q 1363 391 1709 391 
Q 2188 391 2477 730 
Q 2766 1069 2766 1631 
L 2766 1759 
L 2194 1759 
z
M 3341 1997 
L 3341 0 
L 2766 0 
L 2766 531 
Q 2569 213 2275 61 
Q 1981 -91 1556 -91 
Q 1019 -91 701 211 
Q 384 513 384 1019 
Q 384 1609 779 1909 
Q 1175 2209 1959 2209 
L 2766 2209 
L 2766 2266 
Q 2766 2663 2505 2880 
Q 2244 3097 1772 3097 
Q 1472 3097 1187 3025 
Q 903 2953 641 2809 
L 641 3341 
Q 956 3463 1253 3523 
Q 1550 3584 1831 3584 
Q 2591 3584 2966 3190 
Q 3341 2797 3341 1997 
z
" transform="scale(0.015625)"/>
      <path id="DejaVuSans-69" d="M 603 3500 
L 1178 3500 
L 1178 0 
L 603 0 
L 603 3500 
z
M 603 4863 
L 1178 4863 
L 1178 4134 
L 603 4134 
L 603 4863 
z
" transform="scale(0.015625)"/>
      <path id="DejaVuSans-6c" d="M 603 4863 
L 1178 4863 
L 1178 0 
L 603 0 
L 603 4863 
z
" transform="scale(0.015625)"/>
      <path id="DejaVuSans-74" d="M 1172 4494 
L 1172 3500 
L 2356 3500 
L 2356 3053 
L 1172 3053 
L 1172 1153 
Q 1172 725 1289 603 
Q 1406 481 1766 481 
L 2356 481 
L 2356 0 
L 1766 0 
Q 1100 0 847 248 
Q 594 497 594 1153 
L 594 3053 
L 172 3053 
L 172 3500 
L 594 3500 
L 594 4494 
L 1172 4494 
z
" transform="scale(0.015625)"/>
      <path id="DejaVuSans-65" d="M 3597 1894 
L 3597 1613 
L 953 1613 
Q 991 1019 1311 708 
Q 1631 397 2203 397 
Q 2534 397 2845 478 
Q 3156 559 3463 722 
L 3463 178 
Q 3153 47 2828 -22 
Q 2503 -91 2169 -91 
Q 1331 -91 842 396 
Q 353 884 353 1716 
Q 353 2575 817 3079 
Q 1281 3584 2069 3584 
Q 2775 3584 3186 3129 
Q 3597 2675 3597 1894 
z
M 3022 2063 
Q 3016 2534 2758 2815 
Q 2500 3097 2075 3097 
Q 1594 3097 1305 2825 
Q 1016 2553 972 2059 
L 3022 2063 
z
" transform="scale(0.015625)"/>
      <path id="DejaVuSans-73" d="M 2834 3397 
L 2834 2853 
Q 2591 2978 2328 3040 
Q 2066 3103 1784 3103 
Q 1356 3103 1142 2972 
Q 928 2841 928 2578 
Q 928 2378 1081 2264 
Q 1234 2150 1697 2047 
L 1894 2003 
Q 2506 1872 2764 1633 
Q 3022 1394 3022 966 
Q 3022 478 2636 193 
Q 2250 -91 1575 -91 
Q 1294 -91 989 -36 
Q 684 19 347 128 
L 347 722 
Q 666 556 975 473 
Q 1284 391 1588 391 
Q 1994 391 2212 530 
Q 2431 669 2431 922 
Q 2431 1156 2273 1281 
Q 2116 1406 1581 1522 
L 1381 1569 
Q 847 1681 609 1914 
Q 372 2147 372 2553 
Q 372 3047 722 3315 
Q 1072 3584 1716 3584 
Q 2034 3584 2315 3537 
Q 2597 3491 2834 3397 
z
" transform="scale(0.015625)"/>
      <path id="DejaVuSans-20" transform="scale(0.015625)"/>
      <path id="DejaVuSans-66" d="M 2375 4863 
L 2375 4384 
L 1825 4384 
Q 1516 4384 1395 4259 
Q 1275 4134 1275 3809 
L 1275 3500 
L 2222 3500 
L 2222 3053 
L 1275 3053 
L 1275 0 
L 697 0 
L 697 3053 
L 147 3053 
L 147 3500 
L 697 3500 
L 697 3744 
Q 697 4328 969 4595 
Q 1241 4863 1831 4863 
L 2375 4863 
z
" transform="scale(0.015625)"/>
      <path id="DejaVuSans-68" d="M 3513 2113 
L 3513 0 
L 2938 0 
L 2938 2094 
Q 2938 2591 2744 2837 
Q 2550 3084 2163 3084 
Q 1697 3084 1428 2787 
Q 1159 2491 1159 1978 
L 1159 0 
L 581 0 
L 581 4863 
L 1159 4863 
L 1159 2956 
Q 1366 3272 1645 3428 
Q 1925 3584 2291 3584 
Q 2894 3584 3203 3211 
Q 3513 2838 3513 2113 
z
" transform="scale(0.015625)"/>
      <path id="DejaVuSans-6e" d="M 3513 2113 
L 3513 0 
L 2938 0 
L 2938 2094 
Q 2938 2591 2744 2837 
Q 2550 3084 2163 3084 
Q 1697 3084 1428 2787 
Q 1159 2491 1159 1978 
L 1159 0 
L 581 0 
L 581 3500 
L 1159 3500 
L 1159 2956 
Q 1366 3272 1645 3428 
Q 1925 3584 2291 3584 
Q 2894 3584 3203 3211 
Q 3513 2838 3513 2113 
z
" transform="scale(0.015625)"/>
      <path id="DejaVuSans-78" d="M 3513 3500 
L 2247 1797 
L 3578 0 
L 2900 0 
L 1881 1375 
L 863 0 
L 184 0 
L 1544 1831 
L 300 3500 
L 978 3500 
L 1906 2253 
L 2834 3500 
L 3513 3500 
z
" transform="scale(0.015625)"/>
      <path id="DejaVuSans-2c" d="M 750 794 
L 1409 794 
L 1409 256 
L 897 -744 
L 494 -744 
L 750 256 
L 750 794 
z
" transform="scale(0.015625)"/>
      <path id="DejaVuSans-67" d="M 2906 1791 
Q 2906 2416 2648 2759 
Q 2391 3103 1925 3103 
Q 1463 3103 1205 2759 
Q 947 2416 947 1791 
Q 947 1169 1205 825 
Q 1463 481 1925 481 
Q 2391 481 2648 825 
Q 2906 1169 2906 1791 
z
M 3481 434 
Q 3481 -459 3084 -895 
Q 2688 -1331 1869 -1331 
Q 1566 -1331 1297 -1286 
Q 1028 -1241 775 -1147 
L 775 -588 
Q 1028 -725 1275 -790 
Q 1522 -856 1778 -856 
Q 2344 -856 2625 -561 
Q 2906 -266 2906 331 
L 2906 616 
Q 2728 306 2450 153 
Q 2172 0 1784 0 
Q 1141 0 747 490 
Q 353 981 353 1791 
Q 353 2603 747 3093 
Q 1141 3584 1784 3584 
Q 2172 3584 2450 3431 
Q 2728 3278 2906 2969 
L 2906 3500 
L 3481 3500 
L 3481 434 
z
" transform="scale(0.015625)"/>
      <path id="DejaVuSans-6d" d="M 3328 2828 
Q 3544 3216 3844 3400 
Q 4144 3584 4550 3584 
Q 5097 3584 5394 3201 
Q 5691 2819 5691 2113 
L 5691 0 
L 5113 0 
L 5113 2094 
Q 5113 2597 4934 2840 
Q 4756 3084 4391 3084 
Q 3944 3084 3684 2787 
Q 3425 2491 3425 1978 
L 3425 0 
L 2847 0 
L 2847 2094 
Q 2847 2600 2669 2842 
Q 2491 3084 2119 3084 
Q 1678 3084 1418 2786 
Q 1159 2488 1159 1978 
L 1159 0 
L 581 0 
L 581 3500 
L 1159 3500 
L 1159 2956 
Q 1356 3278 1631 3431 
Q 1906 3584 2284 3584 
Q 2666 3584 2933 3390 
Q 3200 3197 3328 2828 
z
" transform="scale(0.015625)"/>
     </defs>
     <use xlink:href="#DejaVuSans-50"/>
     <use xlink:href="#DejaVuSans-72" x="58.552734"/>
     <use xlink:href="#DejaVuSans-6f" x="97.416016"/>
     <use xlink:href="#DejaVuSans-62" x="158.597656"/>
     <use xlink:href="#DejaVuSans-61" x="222.074219"/>
     <use xlink:href="#DejaVuSans-62" x="283.353516"/>
     <use xlink:href="#DejaVuSans-69" x="346.830078"/>
     <use xlink:href="#DejaVuSans-6c" x="374.613281"/>
     <use xlink:href="#DejaVuSans-69" x="402.396484"/>
     <use xlink:href="#DejaVuSans-74" x="430.179688"/>
     <use xlink:href="#DejaVuSans-65" x="469.388672"/>
     <use xlink:href="#DejaVuSans-73" x="530.912109"/>
     <use xlink:href="#DejaVuSans-20" x="583.011719"/>
     <use xlink:href="#DejaVuSans-66" x="614.798828"/>
     <use xlink:href="#DejaVuSans-6f" x="650.003906"/>
     <use xlink:href="#DejaVuSans-72" x="711.185547"/>
     <use xlink:href="#DejaVuSans-20" x="752.298828"/>
     <use xlink:href="#DejaVuSans-74" x="784.085938"/>
     <use xlink:href="#DejaVuSans-68" x="823.294922"/>
     <use xlink:href="#DejaVuSans-65" x="886.673828"/>
     <use xlink:href="#DejaVuSans-20" x="948.197266"/>
     <use xlink:href="#DejaVuSans-6e" x="979.984375"/>
     <use xlink:href="#DejaVuSans-65" x="1043.363281"/>
     <use xlink:href="#DejaVuSans-78" x="1103.136719"/>
     <use xlink:href="#DejaVuSans-74" x="1162.316406"/>
     <use xlink:href="#DejaVuSans-20" x="1201.525391"/>
     <use xlink:href="#DejaVuSans-6e" x="1233.3125"/>
     <use xlink:href="#DejaVuSans-6f" x="1296.691406"/>
     <use xlink:href="#DejaVuSans-74" x="1357.873047"/>
     <use xlink:href="#DejaVuSans-65" x="1397.082031"/>
     <use xlink:href="#DejaVuSans-2c" x="1458.605469"/>
     <use xlink:href="#DejaVuSans-20" x="1490.392578"/>
     <use xlink:href="#DejaVuSans-73" x="1522.179688"/>
     <use xlink:href="#DejaVuSans-74" x="1574.279297"/>
     <use xlink:href="#DejaVuSans-61" x="1613.488281"/>
     <use xlink:href="#DejaVuSans-72" x="1674.767578"/>
     <use xlink:href="#DejaVuSans-74" x="1715.880859"/>
     <use xlink:href="#DejaVuSans-69" x="1755.089844"/>
     <use xlink:href="#DejaVuSans-6e" x="1782.873047"/>
     <use xlink:href="#DejaVuSans-67" x="1846.251953"/>
     <use xlink:href="#DejaVuSans-20" x="1909.728516"/>
     <use xlink:href="#DejaVuSans-66" x="1941.515625"/>
     <use xlink:href="#DejaVuSans-72" x="1976.720703"/>
     <use xlink:href="#DejaVuSans-6f" x="2015.583984"/>
     <use xlink:href="#DejaVuSans-6d" x="2076.765625"/>
     <use xlink:href="#DejaVuSans-20" x="2174.177734"/>
     <use xlink:href="#DejaVuSans-36" x="2205.964844"/>
     <use xlink:href="#DejaVuSans-30" x="2269.587891"/>
    </g>
   </g>
  </g>
 </g>
 <defs>
  <clipPath id="pd7494f2ca4">
   <rect x="36.465625" y="22.318125" width="357.12" height="266.112"/>
  </clipPath>
 </defs>
</svg>