<?xml version="1.0" encoding="utf-8" standalone="no"?>
<!DOCTYPE svg PUBLIC "-//W3C//DTD SVG 1.1//EN"
  "http://www.w3.org/Graphics/SVG/1.1/DTD/svg11.dtd">
<svg xmlns:xlink="http://www.w3.org/1999/xlink" width="394.423125pt" height="325.986375pt" viewBox="0 0 394.423125 325.986375" xmlns="http://www.w3.org/2000/svg" version="1.1">
 <metadata>
  <rdf:RDF xmlns:dc="http://purl.org/dc/elements/1.1/" xmlns:cc="http://creativecommons.org/ns#" xmlns:rdf="http://www.w3.org/1999/02/22-rdf-syntax-ns#">
   <cc:Work>
    <dc:type rdf:resource="http://purl.org/dc/dcmitype/StillImage"/>
    <dc:date>2024-08-22T20:24:20.132087</dc:date>
    <dc:format>image/svg+xml</dc:format>
    <dc:creator>
     <cc:Agent>
      <dc:title>Matplotlib v3.8.4, https://matplotlib.org/</dc:title>
     </cc:Agent>
    </dc:creator>
   </cc:Work>
  </rdf:RDF>
 </metadata>
 <defs>
  <style type="text/css">*{stroke-linejoin: round; stroke-linecap: butt}</style>
 </defs>
 <g id="figure_1">
  <g id="patch_1">
   <path d="M 0 325.986375 
L 394.423125 325.986375 
L 394.423125 0 
L 0 0 
z
" style="fill: #ffffff"/>
  </g>
  <g id="axes_1">
   <g id="patch_2">
    <path d="M 30.103125 288.430125 
L 387.223125 288.430125 
L 387.223125 22.318125 
L 30.103125 22.318125 
z
" style="fill: #ffffff"/>
   </g>
   <g id="matplotlib.axis_1">
    <g id="xtick_1">
     <g id="line2d_1">
      <path d="M 45.890871 288.430125 
L 45.890871 22.318125 
" clip-path="url(#pa77e2b4865)" style="fill: none; stroke: #b0b0b0; stroke-width: 0.8; stroke-linecap: square"/>
     </g>
     <g id="line2d_2">
      <defs>
       <path id="mf55baf60bf" d="M 0 0 
L 0 3.5 
" style="stroke: #000000; stroke-width: 0.8"/>
      </defs>
      <g>
       <use xlink:href="#mf55baf60bf" x="45.890871" y="288.430125" style="stroke: #000000; stroke-width: 0.8"/>
      </g>
     </g>
     <g id="text_1">
      <!-- 0 -->
      <g transform="translate(42.709621 303.028562) scale(0.1 -0.1)">
       <defs>
        <path id="DejaVuSans-30" d="M 2034 4250 
Q 1547 4250 1301 3770 
Q 1056 3291 1056 2328 
Q 1056 1369 1301 889 
Q 1547 409 2034 409 
Q 2525 409 2770 889 
Q 3016 1369 3016 2328 
Q 3016 3291 2770 3770 
Q 2525 4250 2034 4250 
z
M 2034 4750 
Q 2819 4750 3233 4129 
Q 3647 3509 3647 2328 
Q 3647 1150 3233 529 
Q 2819 -91 2034 -91 
Q 1250 -91 836 529 
Q 422 1150 422 2328 
Q 422 3509 836 4129 
Q 1250 4750 2034 4750 
z
" transform="scale(0.015625)"/>
       </defs>
       <use xlink:href="#DejaVuSans-30"/>
      </g>
     </g>
    </g>
    <g id="xtick_2">
     <g id="line2d_3">
      <path d="M 91.297101 288.430125 
L 91.297101 22.318125 
" clip-path="url(#pa77e2b4865)" style="fill: none; stroke: #b0b0b0; stroke-width: 0.8; stroke-linecap: square"/>
     </g>
     <g id="line2d_4">
      <g>
       <use xlink:href="#mf55baf60bf" x="91.297101" y="288.430125" style="stroke: #000000; stroke-width: 0.8"/>
      </g>
     </g>
     <g id="text_2">
      <!-- 5000 -->
      <g transform="translate(78.572101 303.028562) scale(0.1 -0.1)">
       <defs>
        <path id="DejaVuSans-35" d="M 691 4666 
L 3169 4666 
L 3169 4134 
L 1269 4134 
L 1269 2991 
Q 1406 3038 1543 3061 
Q 1681 3084 1819 3084 
Q 2600 3084 3056 2656 
Q 3513 2228 3513 1497 
Q 3513 744 3044 326 
Q 2575 -91 1722 -91 
Q 1428 -91 1123 -41 
Q 819 9 494 109 
L 494 744 
Q 775 591 1075 516 
Q 1375 441 1709 441 
Q 2250 441 2565 725 
Q 2881 1009 2881 1497 
Q 2881 1984 2565 2268 
Q 2250 2553 1709 2553 
Q 1456 2553 1204 2497 
Q 953 2441 691 2322 
L 691 4666 
z
" transform="scale(0.015625)"/>
       </defs>
       <use xlink:href="#DejaVuSans-35"/>
       <use xlink:href="#DejaVuSans-30" x="63.623047"/>
       <use xlink:href="#DejaVuSans-30" x="127.246094"/>
       <use xlink:href="#DejaVuSans-30" x="190.869141"/>
      </g>
     </g>
    </g>
    <g id="xtick_3">
     <g id="line2d_5">
      <path d="M 136.703331 288.430125 
L 136.703331 22.318125 
" clip-path="url(#pa77e2b4865)" style="fill: none; stroke: #b0b0b0; stroke-width: 0.8; stroke-linecap: square"/>
     </g>
     <g id="line2d_6">
      <g>
       <use xlink:href="#mf55baf60bf" x="136.703331" y="288.430125" style="stroke: #000000; stroke-width: 0.8"/>
      </g>
     </g>
     <g id="text_3">
      <!-- 10000 -->
      <g transform="translate(120.797081 303.028562) scale(0.1 -0.1)">
       <defs>
        <path id="DejaVuSans-31" d="M 794 531 
L 1825 531 
L 1825 4091 
L 703 3866 
L 703 4441 
L 1819 4666 
L 2450 4666 
L 2450 531 
L 3481 531 
L 3481 0 
L 794 0 
L 794 531 
z
" transform="scale(0.015625)"/>
       </defs>
       <use xlink:href="#DejaVuSans-31"/>
       <use xlink:href="#DejaVuSans-30" x="63.623047"/>
       <use xlink:href="#DejaVuSans-30" x="127.246094"/>
       <use xlink:href="#DejaVuSans-30" x="190.869141"/>
       <use xlink:href="#DejaVuSans-30" x="254.492188"/>
      </g>
     </g>
    </g>
    <g id="xtick_4">
     <g id="line2d_7">
      <path d="M 182.109562 288.430125 
L 182.109562 22.318125 
" clip-path="url(#pa77e2b4865)" style="fill: none; stroke: #b0b0b0; stroke-width: 0.8; stroke-linecap: square"/>
     </g>
     <g id="line2d_8">
      <g>
       <use xlink:href="#mf55baf60bf" x="182.109562" y="288.430125" style="stroke: #000000; stroke-width: 0.8"/>
      </g>
     </g>
     <g id="text_4">
      <!-- 15000 -->
      <g transform="translate(166.203312 303.028562) scale(0.1 -0.1)">
       <use xlink:href="#DejaVuSans-31"/>
       <use xlink:href="#DejaVuSans-35" x="63.623047"/>
       <use xlink:href="#DejaVuSans-30" x="127.246094"/>
       <use xlink:href="#DejaVuSans-30" x="190.869141"/>
       <use xlink:href="#DejaVuSans-30" x="254.492188"/>
      </g>
     </g>
    </g>
    <g id="xtick_5">
     <g id="line2d_9">
      <path d="M 227.515792 288.430125 
L 227.515792 22.318125 
" clip-path="url(#pa77e2b4865)" style="fill: none; stroke: #b0b0b0; stroke-width: 0.8; stroke-linecap: square"/>
     </g>
     <g id="line2d_10">
      <g>
       <use xlink:href="#mf55baf60bf" x="227.515792" y="288.430125" style="stroke: #000000; stroke-width: 0.8"/>
      </g>
     </g>
     <g id="text_5">
      <!-- 20000 -->
      <g transform="translate(211.609542 303.028562) scale(0.1 -0.1)">
       <defs>
        <path id="DejaVuSans-32" d="M 1228 531 
L 3431 531 
L 3431 0 
L 469 0 
L 469 531 
Q 828 903 1448 1529 
Q 2069 2156 2228 2338 
Q 2531 2678 2651 2914 
Q 2772 3150 2772 3378 
Q 2772 3750 2511 3984 
Q 2250 4219 1831 4219 
Q 1534 4219 1204 4116 
Q 875 4013 500 3803 
L 500 4441 
Q 881 4594 1212 4672 
Q 1544 4750 1819 4750 
Q 2544 4750 2975 4387 
Q 3406 4025 3406 3419 
Q 3406 3131 3298 2873 
Q 3191 2616 2906 2266 
Q 2828 2175 2409 1742 
Q 1991 1309 1228 531 
z
" transform="scale(0.015625)"/>
       </defs>
       <use xlink:href="#DejaVuSans-32"/>
       <use xlink:href="#DejaVuSans-30" x="63.623047"/>
       <use xlink:href="#DejaVuSans-30" x="127.246094"/>
       <use xlink:href="#DejaVuSans-30" x="190.869141"/>
       <use xlink:href="#DejaVuSans-30" x="254.492188"/>
      </g>
     </g>
    </g>
    <g id="xtick_6">
     <g id="line2d_11">
      <path d="M 272.922022 288.430125 
L 272.922022 22.318125 
" clip-path="url(#pa77e2b4865)" style="fill: none; stroke: #b0b0b0; stroke-width: 0.8; stroke-linecap: square"/>
     </g>
     <g id="line2d_12">
      <g>
       <use xlink:href="#mf55baf60bf" x="272.922022" y="288.430125" style="stroke: #000000; stroke-width: 0.8"/>
      </g>
     </g>
     <g id="text_6">
      <!-- 25000 -->
      <g transform="translate(257.015772 303.028562) scale(0.1 -0.1)">
       <use xlink:href="#DejaVuSans-32"/>
       <use xlink:href="#DejaVuSans-35" x="63.623047"/>
       <use xlink:href="#DejaVuSans-30" x="127.246094"/>
       <use xlink:href="#DejaVuSans-30" x="190.869141"/>
       <use xlink:href="#DejaVuSans-30" x="254.492188"/>
      </g>
     </g>
    </g>
    <g id="xtick_7">
     <g id="line2d_13">
      <path d="M 318.328252 288.430125 
L 318.328252 22.318125 
" clip-path="url(#pa77e2b4865)" style="fill: none; stroke: #b0b0b0; stroke-width: 0.8; stroke-linecap: square"/>
     </g>
     <g id="line2d_14">
      <g>
       <use xlink:href="#mf55baf60bf" x="318.328252" y="288.430125" style="stroke: #000000; stroke-width: 0.8"/>
      </g>
     </g>
     <g id="text_7">
      <!-- 30000 -->
      <g transform="translate(302.422002 303.028562) scale(0.1 -0.1)">
       <defs>
        <path id="DejaVuSans-33" d="M 2597 2516 
Q 3050 2419 3304 2112 
Q 3559 1806 3559 1356 
Q 3559 666 3084 287 
Q 2609 -91 1734 -91 
Q 1441 -91 1130 -33 
Q 819 25 488 141 
L 488 750 
Q 750 597 1062 519 
Q 1375 441 1716 441 
Q 2309 441 2620 675 
Q 2931 909 2931 1356 
Q 2931 1769 2642 2001 
Q 2353 2234 1838 2234 
L 1294 2234 
L 1294 2753 
L 1863 2753 
Q 2328 2753 2575 2939 
Q 2822 3125 2822 3475 
Q 2822 3834 2567 4026 
Q 2313 4219 1838 4219 
Q 1578 4219 1281 4162 
Q 984 4106 628 3988 
L 628 4550 
Q 988 4650 1302 4700 
Q 1616 4750 1894 4750 
Q 2613 4750 3031 4423 
Q 3450 4097 3450 3541 
Q 3450 3153 3228 2886 
Q 3006 2619 2597 2516 
z
" transform="scale(0.015625)"/>
       </defs>
       <use xlink:href="#DejaVuSans-33"/>
       <use xlink:href="#DejaVuSans-30" x="63.623047"/>
       <use xlink:href="#DejaVuSans-30" x="127.246094"/>
       <use xlink:href="#DejaVuSans-30" x="190.869141"/>
       <use xlink:href="#DejaVuSans-30" x="254.492188"/>
      </g>
     </g>
    </g>
    <g id="xtick_8">
     <g id="line2d_15">
      <path d="M 363.734482 288.430125 
L 363.734482 22.318125 
" clip-path="url(#pa77e2b4865)" style="fill: none; stroke: #b0b0b0; stroke-width: 0.8; stroke-linecap: square"/>
     </g>
     <g id="line2d_16">
      <g>
       <use xlink:href="#mf55baf60bf" x="363.734482" y="288.430125" style="stroke: #000000; stroke-width: 0.8"/>
      </g>
     </g>
     <g id="text_8">
      <!-- 35000 -->
      <g transform="translate(347.828232 303.028562) scale(0.1 -0.1)">
       <use xlink:href="#DejaVuSans-33"/>
       <use xlink:href="#DejaVuSans-35" x="63.623047"/>
       <use xlink:href="#DejaVuSans-30" x="127.246094"/>
       <use xlink:href="#DejaVuSans-30" x="190.869141"/>
       <use xlink:href="#DejaVuSans-30" x="254.492188"/>
      </g>
     </g>
    </g>
    <g id="text_9">
     <!-- step -->
     <g transform="translate(197.8475 316.706687) scale(0.1 -0.1)">
      <defs>
       <path id="DejaVuSans-73" d="M 2834 3397 
L 2834 2853 
Q 2591 2978 2328 3040 
Q 2066 3103 1784 3103 
Q 1356 3103 1142 2972 
Q 928 2841 928 2578 
Q 928 2378 1081 2264 
Q 1234 2150 1697 2047 
L 1894 2003 
Q 2506 1872 2764 1633 
Q 3022 1394 3022 966 
Q 3022 478 2636 193 
Q 2250 -91 1575 -91 
Q 1294 -91 989 -36 
Q 684 19 347 128 
L 347 722 
Q 666 556 975 473 
Q 1284 391 1588 391 
Q 1994 391 2212 530 
Q 2431 669 2431 922 
Q 2431 1156 2273 1281 
Q 2116 1406 1581 1522 
L 1381 1569 
Q 847 1681 609 1914 
Q 372 2147 372 2553 
Q 372 3047 722 3315 
Q 1072 3584 1716 3584 
Q 2034 3584 2315 3537 
Q 2597 3491 2834 3397 
z
" transform="scale(0.015625)"/>
       <path id="DejaVuSans-74" d="M 1172 4494 
L 1172 3500 
L 2356 3500 
L 2356 3053 
L 1172 3053 
L 1172 1153 
Q 1172 725 1289 603 
Q 1406 481 1766 481 
L 2356 481 
L 2356 0 
L 1766 0 
Q 1100 0 847 248 
Q 594 497 594 1153 
L 594 3053 
L 172 3053 
L 172 3500 
L 594 3500 
L 594 4494 
L 1172 4494 
z
" transform="scale(0.015625)"/>
       <path id="DejaVuSans-65" d="M 3597 1894 
L 3597 1613 
L 953 1613 
Q 991 1019 1311 708 
Q 1631 397 2203 397 
Q 2534 397 2845 478 
Q 3156 559 3463 722 
L 3463 178 
Q 3153 47 2828 -22 
Q 2503 -91 2169 -91 
Q 1331 -91 842 396 
Q 353 884 353 1716 
Q 353 2575 817 3079 
Q 1281 3584 2069 3584 
Q 2775 3584 3186 3129 
Q 3597 2675 3597 1894 
z
M 3022 2063 
Q 3016 2534 2758 2815 
Q 2500 3097 2075 3097 
Q 1594 3097 1305 2825 
Q 1016 2553 972 2059 
L 3022 2063 
z
" transform="scale(0.015625)"/>
       <path id="DejaVuSans-70" d="M 1159 525 
L 1159 -1331 
L 581 -1331 
L 581 3500 
L 1159 3500 
L 1159 2969 
Q 1341 3281 1617 3432 
Q 1894 3584 2278 3584 
Q 2916 3584 3314 3078 
Q 3713 2572 3713 1747 
Q 3713 922 3314 415 
Q 2916 -91 2278 -91 
Q 1894 -91 1617 61 
Q 1341 213 1159 525 
z
M 3116 1747 
Q 3116 2381 2855 2742 
Q 2594 3103 2138 3103 
Q 1681 3103 1420 2742 
Q 1159 2381 1159 1747 
Q 1159 1113 1420 752 
Q 1681 391 2138 391 
Q 2594 391 2855 752 
Q 3116 1113 3116 1747 
z
" transform="scale(0.015625)"/>
      </defs>
      <use xlink:href="#DejaVuSans-73"/>
      <use xlink:href="#DejaVuSans-74" x="52.099609"/>
      <use xlink:href="#DejaVuSans-65" x="91.308594"/>
      <use xlink:href="#DejaVuSans-70" x="152.832031"/>
     </g>
    </g>
   </g>
   <g id="matplotlib.axis_2">
    <g id="ytick_1">
     <g id="line2d_17">
      <path d="M 30.103125 238.622707 
L 387.223125 238.622707 
" clip-path="url(#pa77e2b4865)" style="fill: none; stroke: #b0b0b0; stroke-width: 0.8; stroke-linecap: square"/>
     </g>
     <g id="line2d_18">
      <defs>
       <path id="ma6dc72210a" d="M 0 0 
L -3.5 0 
" style="stroke: #000000; stroke-width: 0.8"/>
      </defs>
      <g>
       <use xlink:href="#ma6dc72210a" x="30.103125" y="238.622707" style="stroke: #000000; stroke-width: 0.8"/>
      </g>
     </g>
     <g id="text_10">
      <!-- 2.5 -->
      <g transform="translate(7.2 242.421926) scale(0.1 -0.1)">
       <defs>
        <path id="DejaVuSans-2e" d="M 684 794 
L 1344 794 
L 1344 0 
L 684 0 
L 684 794 
z
" transform="scale(0.015625)"/>
       </defs>
       <use xlink:href="#DejaVuSans-32"/>
       <use xlink:href="#DejaVuSans-2e" x="63.623047"/>
       <use xlink:href="#DejaVuSans-35" x="95.410156"/>
      </g>
     </g>
    </g>
    <g id="ytick_2">
     <g id="line2d_19">
      <path d="M 30.103125 188.564586 
L 387.223125 188.564586 
" clip-path="url(#pa77e2b4865)" style="fill: none; stroke: #b0b0b0; stroke-width: 0.8; stroke-linecap: square"/>
     </g>
     <g id="line2d_20">
      <g>
       <use xlink:href="#ma6dc72210a" x="30.103125" y="188.564586" style="stroke: #000000; stroke-width: 0.8"/>
      </g>
     </g>
     <g id="text_11">
      <!-- 3.0 -->
      <g transform="translate(7.2 192.363805) scale(0.1 -0.1)">
       <use xlink:href="#DejaVuSans-33"/>
       <use xlink:href="#DejaVuSans-2e" x="63.623047"/>
       <use xlink:href="#DejaVuSans-30" x="95.410156"/>
      </g>
     </g>
    </g>
    <g id="ytick_3">
     <g id="line2d_21">
      <path d="M 30.103125 138.506465 
L 387.223125 138.506465 
" clip-path="url(#pa77e2b4865)" style="fill: none; stroke: #b0b0b0; stroke-width: 0.8; stroke-linecap: square"/>
     </g>
     <g id="line2d_22">
      <g>
       <use xlink:href="#ma6dc72210a" x="30.103125" y="138.506465" style="stroke: #000000; stroke-width: 0.8"/>
      </g>
     </g>
     <g id="text_12">
      <!-- 3.5 -->
      <g transform="translate(7.2 142.305684) scale(0.1 -0.1)">
       <use xlink:href="#DejaVuSans-33"/>
       <use xlink:href="#DejaVuSans-2e" x="63.623047"/>
       <use xlink:href="#DejaVuSans-35" x="95.410156"/>
      </g>
     </g>
    </g>
    <g id="ytick_4">
     <g id="line2d_23">
      <path d="M 30.103125 88.448344 
L 387.223125 88.448344 
" clip-path="url(#pa77e2b4865)" style="fill: none; stroke: #b0b0b0; stroke-width: 0.8; stroke-linecap: square"/>
     </g>
     <g id="line2d_24">
      <g>
       <use xlink:href="#ma6dc72210a" x="30.103125" y="88.448344" style="stroke: #000000; stroke-width: 0.8"/>
      </g>
     </g>
     <g id="text_13">
      <!-- 4.0 -->
      <g transform="translate(7.2 92.247563) scale(0.1 -0.1)">
       <defs>
        <path id="DejaVuSans-34" d="M 2419 4116 
L 825 1625 
L 2419 1625 
L 2419 4116 
z
M 2253 4666 
L 3047 4666 
L 3047 1625 
L 3713 1625 
L 3713 1100 
L 3047 1100 
L 3047 0 
L 2419 0 
L 2419 1100 
L 313 1100 
L 313 1709 
L 2253 4666 
z
" transform="scale(0.015625)"/>
       </defs>
       <use xlink:href="#DejaVuSans-34"/>
       <use xlink:href="#DejaVuSans-2e" x="63.623047"/>
       <use xlink:href="#DejaVuSans-30" x="95.410156"/>
      </g>
     </g>
    </g>
    <g id="ytick_5">
     <g id="line2d_25">
      <path d="M 30.103125 38.390223 
L 387.223125 38.390223 
" clip-path="url(#pa77e2b4865)" style="fill: none; stroke: #b0b0b0; stroke-width: 0.8; stroke-linecap: square"/>
     </g>
     <g id="line2d_26">
      <g>
       <use xlink:href="#ma6dc72210a" x="30.103125" y="38.390223" style="stroke: #000000; stroke-width: 0.8"/>
      </g>
     </g>
     <g id="text_14">
      <!-- 4.5 -->
      <g transform="translate(7.2 42.189442) scale(0.1 -0.1)">
       <use xlink:href="#DejaVuSans-34"/>
       <use xlink:href="#DejaVuSans-2e" x="63.623047"/>
       <use xlink:href="#DejaVuSans-35" x="95.410156"/>
      </g>
     </g>
    </g>
   </g>
   <g id="line2d_27">
    <path d="M 46.335852 43.623149 
L 46.789915 58.696736 
L 47.243977 103.119944 
L 47.698039 88.409389 
L 48.152101 47.524488 
L 48.606164 76.208887 
L 49.060226 144.388859 
L 49.514288 121.921862 
L 49.968351 113.462438 
L 50.422413 118.028878 
L 50.876475 57.166172 
L 51.330538 67.193874 
L 51.7846 120.497708 
L 52.238662 66.135832 
L 52.692724 135.549049 
L 53.146787 86.296025 
L 53.600849 58.960972 
L 54.054911 87.02567 
L 54.508974 92.756277 
L 54.963036 63.7494 
L 55.417098 126.663601 
L 55.871161 124.634997 
L 56.325223 61.32048 
L 56.779285 69.23921 
L 57.233348 90.694805 
L 57.68741 63.280553 
L 59.049597 140.919464 
L 59.503659 93.978375 
L 59.957721 99.998806 
L 60.411784 127.812157 
L 60.865846 103.731315 
L 61.319908 177.301752 
L 62.228033 96.382351 
L 62.682095 129.113263 
L 63.136157 105.950063 
L 63.59022 121.388449 
L 64.044282 77.406709 
L 64.498344 80.502116 
L 64.952407 146.386073 
L 65.860531 83.742744 
L 66.314594 137.974818 
L 66.768656 115.70434 
L 67.222718 103.44445 
L 67.67678 121.570622 
L 68.130843 77.728328 
L 68.584905 143.501794 
L 69.49303 95.817024 
L 69.947092 97.815432 
L 70.401154 120.660403 
L 70.855217 67.485083 
L 71.309279 135.03454 
L 71.763341 133.131968 
L 72.217403 112.078122 
L 72.671466 109.83233 
L 73.125528 137.017338 
L 73.57959 126.682959 
L 74.033653 107.082006 
L 74.487715 105.730105 
L 74.941777 90.84862 
L 75.39584 118.308749 
L 75.849902 93.450786 
L 76.303964 118.464665 
L 76.758026 113.439189 
L 77.212089 34.414125 
L 77.666151 134.466397 
L 78.120213 135.58841 
L 78.574276 55.209249 
L 79.028338 141.699999 
L 79.4824 109.919334 
L 79.936463 153.719427 
L 80.390525 82.830592 
L 80.844587 145.379756 
L 81.298649 112.361621 
L 81.752712 103.925828 
L 82.206774 137.970832 
L 82.660836 133.227089 
L 83.114899 133.527296 
L 83.568961 110.248782 
L 84.023023 130.777068 
L 84.477086 157.785728 
L 85.38521 117.532439 
L 85.839272 145.938972 
L 86.293335 96.371848 
L 86.747397 131.543639 
L 87.201459 122.996876 
L 87.655522 141.688518 
L 88.109584 120.549625 
L 88.563646 156.102565 
L 89.017709 135.813476 
L 89.471771 156.33768 
L 89.925833 92.297909 
L 90.379896 158.261567 
L 90.833958 171.985378 
L 91.28802 64.534088 
L 91.742082 113.169057 
L 92.196145 145.112369 
L 92.650207 120.707737 
L 93.104269 140.287613 
L 93.558332 127.953656 
L 94.012394 118.768477 
L 94.466456 106.460371 
L 94.920519 157.88999 
L 95.374581 164.642 
L 95.828643 129.614667 
L 96.282705 145.31939 
L 96.736768 147.389646 
L 97.19083 132.816102 
L 97.644892 189.118551 
L 98.098955 132.65028 
L 98.553017 154.023 
L 99.007079 120.241468 
L 99.461142 77.921147 
L 99.915204 132.97536 
L 100.369266 134.073695 
L 100.823328 168.259696 
L 101.277391 122.690057 
L 101.731453 88.585379 
L 102.185515 135.994622 
L 102.639578 127.711785 
L 103.09364 154.264846 
L 103.547702 94.509377 
L 104.001765 112.728353 
L 104.455827 122.049994 
L 104.909889 83.850157 
L 105.363951 133.834927 
L 105.818014 148.284969 
L 106.272076 154.238852 
L 106.726138 120.171889 
L 107.180201 138.004154 
L 108.088325 158.634148 
L 108.542388 113.12034 
L 108.99645 150.093352 
L 109.450512 81.537912 
L 109.904574 126.640662 
L 110.358637 202.355661 
L 111.266761 86.127935 
L 111.720824 131.111576 
L 112.174886 188.6894 
L 112.628948 117.327376 
L 113.083011 214.241849 
L 113.537073 140.871367 
L 113.991135 178.32781 
L 114.445197 123.6821 
L 115.353322 94.603567 
L 115.807384 151.532425 
L 116.261447 121.267645 
L 116.715509 122.368438 
L 117.169571 121.800987 
L 117.623634 162.656696 
L 118.077696 158.024757 
L 118.531758 82.226119 
L 118.98582 100.841855 
L 119.439883 133.325909 
L 119.893945 99.680553 
L 120.348007 142.106211 
L 120.80207 155.49537 
L 121.256132 128.401496 
L 121.710194 51.229857 
L 122.164257 143.731514 
L 122.618319 143.537407 
L 123.072381 125.631815 
L 123.526443 152.072498 
L 123.980506 134.147189 
L 124.434568 147.271348 
L 124.88863 142.684786 
L 125.342693 150.806885 
L 125.796755 145.24802 
L 126.250817 142.500871 
L 126.70488 163.613126 
L 127.158942 91.425023 
L 127.613004 83.938331 
L 128.067067 131.485636 
L 128.521129 124.989102 
L 128.975191 204.373714 
L 129.429253 142.757898 
L 129.883316 123.49069 
L 130.337378 120.011986 
L 130.79144 147.346895 
L 131.245503 131.267659 
L 131.699565 149.659284 
L 132.153627 130.398568 
L 132.60769 154.209182 
L 133.061752 124.615735 
L 133.515814 273.718831 
L 133.969876 155.920774 
L 134.423939 188.911483 
L 134.878001 119.229064 
L 135.332063 112.098221 
L 135.786126 110.942551 
L 136.240188 116.752811 
L 136.69425 132.429702 
L 137.148313 75.154233 
L 137.602375 85.471522 
L 138.510499 177.887798 
L 138.964562 173.818346 
L 139.418624 102.272263 
L 139.872686 120.378337 
L 140.326749 89.711283 
L 140.780811 101.304233 
L 141.234873 98.530565 
L 141.688936 63.856097 
L 142.142998 96.451406 
L 142.59706 116.67607 
L 143.051122 115.751435 
L 143.505185 134.007266 
L 143.959247 133.165219 
L 144.413309 171.835238 
L 144.867372 92.292133 
L 145.321434 90.964579 
L 145.775496 118.222198 
L 146.229559 123.281402 
L 146.683621 125.135304 
L 147.137683 129.883343 
L 147.591745 108.745691 
L 148.045808 121.378758 
L 148.49987 121.78256 
L 148.953932 115.375847 
L 149.407995 168.595803 
L 149.862057 173.450421 
L 150.316119 147.293666 
L 150.770182 169.173041 
L 151.224244 135.733943 
L 151.678306 150.740576 
L 152.132368 181.6157 
L 152.586431 132.440324 
L 153.040493 124.719281 
L 153.494555 136.850227 
L 153.948618 156.687584 
L 154.40268 124.233081 
L 154.856742 142.152733 
L 155.310805 196.097131 
L 155.764867 118.372839 
L 156.218929 125.308406 
L 156.672991 101.34209 
L 157.127054 118.52959 
L 157.581116 159.950411 
L 158.035178 91.910029 
L 158.489241 117.738768 
L 158.943303 172.36266 
L 159.397365 108.728577 
L 159.851428 123.691839 
L 160.30549 123.696231 
L 160.759552 148.3329 
L 161.213615 153.530141 
L 161.667677 116.618688 
L 162.121739 129.177401 
L 162.575801 246.101235 
L 163.029864 176.953829 
L 163.483926 159.665242 
L 163.937988 163.232883 
L 164.392051 149.67604 
L 164.846113 153.066451 
L 165.300175 98.748399 
L 165.754238 147.725729 
L 166.2083 152.97472 
L 166.662362 112.331928 
L 167.116424 84.15521 
L 167.570487 140.392304 
L 168.024549 172.130099 
L 169.386736 135.279084 
L 169.840798 73.151576 
L 170.294861 60.413531 
L 170.748923 191.658417 
L 171.202985 145.111152 
L 171.657047 140.310671 
L 172.11111 139.181926 
L 172.565172 152.797989 
L 173.019234 194.332597 
L 173.473297 137.279259 
L 173.927359 114.875398 
L 174.381421 153.818438 
L 174.835484 177.025939 
L 175.289546 162.782846 
L 175.743608 142.566297 
L 176.651733 151.025745 
L 177.105795 148.775036 
L 177.559857 201.774413 
L 178.467982 137.437896 
L 178.922044 171.69553 
L 179.376107 157.264703 
L 179.830169 92.982942 
L 180.738293 195.629072 
L 181.192356 168.294211 
L 181.646418 127.244849 
L 182.10048 118.512285 
L 182.554543 145.366365 
L 183.462667 94.793903 
L 183.91673 143.407795 
L 184.370792 35.726379 
L 184.824854 157.292081 
L 185.278916 175.039657 
L 185.732979 186.09547 
L 186.187041 164.487778 
L 186.641103 116.828358 
L 187.095166 110.99707 
L 187.549228 181.991001 
L 188.00329 80.133617 
L 188.457353 171.190593 
L 188.911415 133.334263 
L 189.365477 83.488056 
L 189.819539 126.940583 
L 190.273602 131.720107 
L 190.727664 182.868853 
L 191.181726 168.47278 
L 191.635789 137.747604 
L 192.089851 122.433769 
L 192.543913 154.208323 
L 192.997976 118.455762 
L 193.452038 105.830524 
L 193.9061 123.819279 
L 194.360163 88.959296 
L 194.814225 196.048914 
L 195.268287 83.130967 
L 195.722349 195.395365 
L 196.176412 151.366579 
L 196.630474 171.335242 
L 197.084536 202.097058 
L 197.538599 139.934391 
L 197.992661 123.770943 
L 198.446723 138.80049 
L 198.900786 87.362756 
L 199.354848 160.985587 
L 199.80891 127.436951 
L 200.262972 135.646485 
L 200.717035 104.318864 
L 201.171097 110.045963 
L 201.625159 102.831599 
L 202.079222 122.870559 
L 202.533284 134.434984 
L 202.987346 126.340454 
L 203.441409 72.589782 
L 203.895471 140.96811 
L 204.349533 136.707535 
L 204.803595 148.105088 
L 205.257658 146.350937 
L 205.71172 180.242054 
L 206.165782 130.991822 
L 206.619845 67.423118 
L 207.073907 136.599501 
L 207.527969 98.427138 
L 207.982032 153.100918 
L 208.436094 137.313989 
L 208.890156 130.117934 
L 209.344218 135.781324 
L 209.798281 143.838951 
L 210.252343 116.045198 
L 210.706405 162.990273 
L 211.160468 132.857062 
L 211.61453 127.020379 
L 212.068592 104.275899 
L 212.522655 131.660791 
L 212.976717 105.575597 
L 213.430779 99.493654 
L 213.884841 172.787038 
L 214.338904 151.325547 
L 214.792966 153.549857 
L 215.247028 133.569259 
L 215.701091 161.748315 
L 216.155153 154.000133 
L 216.609215 150.94805 
L 217.063278 88.839208 
L 217.971402 145.201546 
L 218.425464 109.436501 
L 218.879527 172.634988 
L 219.333589 178.320386 
L 219.787651 191.067693 
L 220.241714 137.306971 
L 220.695776 133.466381 
L 221.149838 138.391438 
L 221.603901 78.408993 
L 222.057963 150.252777 
L 222.512025 176.957553 
L 222.966087 165.643734 
L 223.42015 141.977674 
L 223.874212 147.547829 
L 224.328274 126.722129 
L 224.782337 157.174404 
L 225.236399 138.383919 
L 226.144524 208.335705 
L 226.598586 162.870997 
L 227.052648 168.445353 
L 227.506711 242.790573 
L 227.960773 168.156746 
L 228.414835 126.744184 
L 229.32296 100.792231 
L 229.777022 134.620165 
L 230.231084 90.91851 
L 230.685147 126.822835 
L 231.139209 172.277112 
L 231.593271 151.057945 
L 232.047334 81.530465 
L 232.501396 144.580102 
L 232.955458 149.333608 
L 233.40952 142.001448 
L 233.863583 167.739769 
L 234.771707 115.728401 
L 235.22577 132.682003 
L 235.679832 164.145131 
L 236.133894 164.561201 
L 237.042019 80.003194 
L 237.496081 143.658235 
L 237.950143 132.360408 
L 238.404206 158.727764 
L 238.858268 110.862374 
L 239.31233 128.332967 
L 239.766393 139.400142 
L 240.220455 167.554947 
L 240.674517 137.062237 
L 241.12858 115.895344 
L 241.582642 164.896187 
L 242.036704 154.145236 
L 242.490766 176.142765 
L 242.944829 135.874916 
L 243.398891 167.601731 
L 243.852953 160.575746 
L 244.307016 121.150804 
L 244.761078 131.757391 
L 245.21514 150.532409 
L 245.669203 143.753904 
L 246.123265 194.046305 
L 246.577327 177.75315 
L 247.031389 97.984787 
L 247.485452 146.090759 
L 247.939514 152.043997 
L 248.393576 146.076986 
L 248.847639 84.74646 
L 249.301701 94.084833 
L 250.209826 165.184555 
L 250.663888 163.641984 
L 251.11795 254.21615 
L 251.572012 162.720809 
L 252.026075 155.256126 
L 252.480137 97.402465 
L 252.934199 106.393345 
L 253.388262 183.350063 
L 253.842324 112.309514 
L 254.296386 140.961283 
L 254.750449 84.450047 
L 255.204511 124.107193 
L 255.658573 175.99031 
L 256.112635 119.110695 
L 256.566698 178.909105 
L 257.02076 194.994333 
L 257.474822 129.615145 
L 257.928885 106.675388 
L 258.382947 142.934724 
L 258.837009 116.328529 
L 259.291072 70.214235 
L 259.745134 151.313421 
L 260.199196 112.125551 
L 260.653259 162.115572 
L 261.107321 160.506214 
L 261.561383 126.807272 
L 262.015445 137.434101 
L 262.469508 110.854329 
L 262.92357 98.796949 
L 263.377632 145.111987 
L 263.831695 170.852218 
L 264.285757 151.310772 
L 264.739819 94.967936 
L 265.193882 130.531593 
L 265.647944 103.696752 
L 266.102006 132.980062 
L 266.556068 108.375522 
L 267.010131 136.753746 
L 267.464193 136.017298 
L 267.918255 146.684133 
L 268.372318 126.389435 
L 268.82638 153.484884 
L 269.280442 150.893198 
L 269.734505 136.674117 
L 270.188567 108.986082 
L 270.642629 114.152078 
L 271.096691 215.390262 
L 271.550754 99.432405 
L 272.004816 134.802075 
L 272.458878 141.016351 
L 272.912941 122.803962 
L 273.367003 167.235858 
L 274.275128 150.722315 
L 274.72919 116.814132 
L 275.183252 127.825094 
L 275.637314 107.122083 
L 276.091377 130.608024 
L 276.545439 131.970737 
L 276.999501 103.002267 
L 277.453564 161.013896 
L 277.907626 148.504808 
L 278.361688 102.996657 
L 278.815751 141.857514 
L 279.269813 121.514528 
L 279.723875 137.427584 
L 280.177937 125.320913 
L 280.632 135.853028 
L 281.086062 163.439904 
L 281.540124 149.680194 
L 281.994187 110.819838 
L 282.448249 117.509166 
L 282.902311 156.155507 
L 283.356374 105.705042 
L 283.810436 104.96456 
L 284.264498 180.117121 
L 284.71856 154.797496 
L 285.172623 151.410213 
L 285.626685 183.322327 
L 286.080747 147.092517 
L 286.53481 101.779596 
L 286.988872 128.566865 
L 287.442934 133.771792 
L 287.896997 97.278988 
L 288.351059 121.910238 
L 288.805121 127.020594 
L 289.259183 109.525845 
L 290.167308 169.429424 
L 290.62137 142.853329 
L 291.075433 166.197508 
L 291.529495 161.185089 
L 291.983557 186.424822 
L 292.43762 192.57539 
L 292.891682 127.959766 
L 293.345744 276.334125 
L 293.799807 173.217788 
L 294.253869 151.104229 
L 294.707931 121.590266 
L 295.161993 167.763495 
L 295.616056 179.061393 
L 296.070118 160.218801 
L 296.52418 167.302765 
L 296.978243 136.813659 
L 297.432305 130.810151 
L 297.886367 148.370446 
L 298.34043 158.631975 
L 298.794492 140.720153 
L 299.248554 164.881889 
L 299.702616 43.893735 
L 300.156679 117.735856 
L 300.610741 124.239025 
L 301.064803 153.568213 
L 301.972928 92.945992 
L 302.42699 181.188721 
L 302.881053 152.424741 
L 303.335115 80.369687 
L 303.789177 118.685841 
L 304.243239 106.443471 
L 304.697302 126.887282 
L 305.151364 138.641113 
L 305.605426 181.148406 
L 306.059489 123.587171 
L 306.513551 151.980528 
L 306.967613 190.980497 
L 307.875738 145.052695 
L 308.3298 179.789248 
L 308.783862 157.288166 
L 309.237925 140.678787 
L 309.691987 166.227775 
L 310.146049 116.565244 
L 310.600112 104.432245 
L 311.054174 136.373385 
L 311.508236 99.562279 
L 311.962299 117.054355 
L 312.416361 85.361722 
L 312.870423 173.194133 
L 313.778548 111.623598 
L 314.23261 133.198564 
L 314.686672 144.807722 
L 315.140735 145.449909 
L 315.594797 122.35235 
L 316.048859 144.189333 
L 316.502922 99.125609 
L 316.956984 118.256785 
L 317.411046 123.027573 
L 317.865108 90.645228 
L 318.319171 221.986308 
L 318.773233 164.078391 
L 319.227295 216.836734 
L 320.13542 115.289224 
L 320.589482 135.102855 
L 321.043545 163.457949 
L 321.497607 151.648479 
L 321.951669 180.234201 
L 322.405731 130.181761 
L 322.859794 109.955019 
L 323.313856 138.186756 
L 323.767918 130.640271 
L 324.221981 103.911936 
L 324.676043 138.568502 
L 325.130105 125.429854 
L 325.584168 125.511989 
L 326.03823 159.202387 
L 326.492292 160.530179 
L 326.946354 144.273879 
L 327.400417 212.994329 
L 327.854479 133.771864 
L 328.308541 116.368845 
L 328.762604 159.216852 
L 329.216666 119.184715 
L 329.670728 143.260472 
L 330.124791 133.031644 
L 330.578853 101.86376 
L 331.032915 108.284651 
L 331.486978 131.904165 
L 331.94104 162.83999 
L 332.395102 122.184165 
L 332.849164 142.853448 
L 333.303227 122.273652 
L 333.757289 120.644172 
L 334.211351 165.699255 
L 334.665414 153.408836 
L 335.119476 183.346077 
L 335.573538 162.383079 
L 336.027601 83.647314 
L 336.481663 168.004029 
L 336.935725 100.229004 
L 337.389787 137.326091 
L 337.84385 149.983791 
L 338.297912 119.705859 
L 338.751974 144.642043 
L 339.660099 156.986622 
L 340.114161 119.739802 
L 340.568224 91.660281 
L 341.022286 132.521623 
L 341.476348 122.40398 
L 341.93041 141.163435 
L 342.384473 141.50551 
L 342.838535 98.546414 
L 343.292597 143.834941 
L 343.74666 109.76633 
L 344.200722 142.691016 
L 344.654784 132.194777 
L 345.108847 175.743284 
L 345.562909 112.786094 
L 346.016971 142.54164 
L 346.471033 135.93576 
L 346.925096 125.131126 
L 347.83322 143.315778 
L 348.287283 185.608984 
L 348.741345 131.306662 
L 349.195407 162.133833 
L 349.64947 89.28903 
L 350.103532 135.867135 
L 350.557594 224.274302 
L 351.011656 126.795552 
L 351.465719 146.99458 
L 351.919781 126.547213 
L 352.373843 175.364211 
L 352.827906 164.197309 
L 353.281968 134.372637 
L 353.73603 139.702259 
L 354.190093 116.248972 
L 355.098217 184.151818 
L 355.552279 135.038861 
L 356.006342 186.498126 
L 356.914466 124.932555 
L 357.368529 158.346543 
L 357.822591 138.957815 
L 358.276653 134.233692 
L 358.730716 160.55011 
L 359.184778 128.551875 
L 359.63884 168.277622 
L 360.092902 171.963895 
L 360.546965 176.676274 
L 361.001027 178.435223 
L 361.455089 148.027393 
L 361.909152 144.680473 
L 362.363214 160.897962 
L 362.817276 110.511801 
L 363.725401 180.15894 
L 364.179463 163.314493 
L 364.633526 95.64681 
L 365.087588 113.436778 
L 365.54165 158.281308 
L 365.995712 105.14573 
L 366.449775 167.890625 
L 366.903837 131.795487 
L 367.357899 151.665259 
L 367.811962 219.1364 
L 368.266024 146.36502 
L 368.720086 133.10163 
L 369.174149 154.23045 
L 369.628211 144.596166 
L 370.082273 176.559719 
L 370.536335 118.905393 
L 370.990398 186.158629 
L 370.990398 186.158629 
" clip-path="url(#pa77e2b4865)" style="fill: none; stroke: #1f77b4; stroke-width: 1.5; stroke-linecap: square"/>
   </g>
   <g id="patch_3">
    <path d="M 30.103125 288.430125 
L 30.103125 22.318125 
" style="fill: none; stroke: #000000; stroke-width: 0.8; stroke-linejoin: miter; stroke-linecap: square"/>
   </g>
   <g id="patch_4">
    <path d="M 387.223125 288.430125 
L 387.223125 22.318125 
" style="fill: none; stroke: #000000; stroke-width: 0.8; stroke-linejoin: miter; stroke-linecap: square"/>
   </g>
   <g id="patch_5">
    <path d="M 30.103125 288.430125 
L 387.223125 288.430125 
" style="fill: none; stroke: #000000; stroke-width: 0.8; stroke-linejoin: miter; stroke-linecap: square"/>
   </g>
   <g id="patch_6">
    <path d="M 30.103125 22.318125 
L 387.223125 22.318125 
" style="fill: none; stroke: #000000; stroke-width: 0.8; stroke-linejoin: miter; stroke-linecap: square"/>
   </g>
   <g id="text_15">
    <!-- Context FCNN loss -->
    <g transform="translate(153.135938 16.318125) scale(0.12 -0.12)">
     <defs>
      <path id="DejaVuSans-43" d="M 4122 4306 
L 4122 3641 
Q 3803 3938 3442 4084 
Q 3081 4231 2675 4231 
Q 1875 4231 1450 3742 
Q 1025 3253 1025 2328 
Q 1025 1406 1450 917 
Q 1875 428 2675 428 
Q 3081 428 3442 575 
Q 3803 722 4122 1019 
L 4122 359 
Q 3791 134 3420 21 
Q 3050 -91 2638 -91 
Q 1578 -91 968 557 
Q 359 1206 359 2328 
Q 359 3453 968 4101 
Q 1578 4750 2638 4750 
Q 3056 4750 3426 4639 
Q 3797 4528 4122 4306 
z
" transform="scale(0.015625)"/>
      <path id="DejaVuSans-6f" d="M 1959 3097 
Q 1497 3097 1228 2736 
Q 959 2375 959 1747 
Q 959 1119 1226 758 
Q 1494 397 1959 397 
Q 2419 397 2687 759 
Q 2956 1122 2956 1747 
Q 2956 2369 2687 2733 
Q 2419 3097 1959 3097 
z
M 1959 3584 
Q 2709 3584 3137 3096 
Q 3566 2609 3566 1747 
Q 3566 888 3137 398 
Q 2709 -91 1959 -91 
Q 1206 -91 779 398 
Q 353 888 353 1747 
Q 353 2609 779 3096 
Q 1206 3584 1959 3584 
z
" transform="scale(0.015625)"/>
      <path id="DejaVuSans-6e" d="M 3513 2113 
L 3513 0 
L 2938 0 
L 2938 2094 
Q 2938 2591 2744 2837 
Q 2550 3084 2163 3084 
Q 1697 3084 1428 2787 
Q 1159 2491 1159 1978 
L 1159 0 
L 581 0 
L 581 3500 
L 1159 3500 
L 1159 2956 
Q 1366 3272 1645 3428 
Q 1925 3584 2291 3584 
Q 2894 3584 3203 3211 
Q 3513 2838 3513 2113 
z
" transform="scale(0.015625)"/>
      <path id="DejaVuSans-78" d="M 3513 3500 
L 2247 1797 
L 3578 0 
L 2900 0 
L 1881 1375 
L 863 0 
L 184 0 
L 1544 1831 
L 300 3500 
L 978 3500 
L 1906 2253 
L 2834 3500 
L 3513 3500 
z
" transform="scale(0.015625)"/>
      <path id="DejaVuSans-20" transform="scale(0.015625)"/>
      <path id="DejaVuSans-46" d="M 628 4666 
L 3309 4666 
L 3309 4134 
L 1259 4134 
L 1259 2759 
L 3109 2759 
L 3109 2228 
L 1259 2228 
L 1259 0 
L 628 0 
L 628 4666 
z
" transform="scale(0.015625)"/>
      <path id="DejaVuSans-4e" d="M 628 4666 
L 1478 4666 
L 3547 763 
L 3547 4666 
L 4159 4666 
L 4159 0 
L 3309 0 
L 1241 3903 
L 1241 0 
L 628 0 
L 628 4666 
z
" transform="scale(0.015625)"/>
      <path id="DejaVuSans-6c" d="M 603 4863 
L 1178 4863 
L 1178 0 
L 603 0 
L 603 4863 
z
" transform="scale(0.015625)"/>
     </defs>
     <use xlink:href="#DejaVuSans-43"/>
     <use xlink:href="#DejaVuSans-6f" x="69.824219"/>
     <use xlink:href="#DejaVuSans-6e" x="131.005859"/>
     <use xlink:href="#DejaVuSans-74" x="194.384766"/>
     <use xlink:href="#DejaVuSans-65" x="233.59375"/>
     <use xlink:href="#DejaVuSans-78" x="293.367188"/>
     <use xlink:href="#DejaVuSans-74" x="352.546875"/>
     <use xlink:href="#DejaVuSans-20" x="391.755859"/>
     <use xlink:href="#DejaVuSans-46" x="423.542969"/>
     <use xlink:href="#DejaVuSans-43" x="481.0625"/>
     <use xlink:href="#DejaVuSans-4e" x="550.886719"/>
     <use xlink:href="#DejaVuSans-4e" x="625.691406"/>
     <use xlink:href="#DejaVuSans-20" x="700.496094"/>
     <use xlink:href="#DejaVuSans-6c" x="732.283203"/>
     <use xlink:href="#DejaVuSans-6f" x="760.066406"/>
     <use xlink:href="#DejaVuSans-73" x="821.248047"/>
     <use xlink:href="#DejaVuSans-73" x="873.347656"/>
    </g>
   </g>
   <g id="legend_1">
    <g id="patch_7">
     <path d="M 37.103125 283.430125 
L 116.69375 283.430125 
Q 118.69375 283.430125 118.69375 281.430125 
L 118.69375 267.473875 
Q 118.69375 265.473875 116.69375 265.473875 
L 37.103125 265.473875 
Q 35.103125 265.473875 35.103125 267.473875 
L 35.103125 281.430125 
Q 35.103125 283.430125 37.103125 283.430125 
z
" style="fill: #ffffff; opacity: 0.8; stroke: #cccccc; stroke-linejoin: miter"/>
    </g>
    <g id="line2d_28">
     <path d="M 39.103125 273.572312 
L 49.103125 273.572312 
L 59.103125 273.572312 
" style="fill: none; stroke: #1f77b4; stroke-width: 1.5; stroke-linecap: square"/>
    </g>
    <g id="text_16">
     <!-- train_loss -->
     <g transform="translate(67.103125 277.072312) scale(0.1 -0.1)">
      <defs>
       <path id="DejaVuSans-72" d="M 2631 2963 
Q 2534 3019 2420 3045 
Q 2306 3072 2169 3072 
Q 1681 3072 1420 2755 
Q 1159 2438 1159 1844 
L 1159 0 
L 581 0 
L 581 3500 
L 1159 3500 
L 1159 2956 
Q 1341 3275 1631 3429 
Q 1922 3584 2338 3584 
Q 2397 3584 2469 3576 
Q 2541 3569 2628 3553 
L 2631 2963 
z
" transform="scale(0.015625)"/>
       <path id="DejaVuSans-61" d="M 2194 1759 
Q 1497 1759 1228 1600 
Q 959 1441 959 1056 
Q 959 750 1161 570 
Q 1363 391 1709 391 
Q 2188 391 2477 730 
Q 2766 1069 2766 1631 
L 2766 1759 
L 2194 1759 
z
M 3341 1997 
L 3341 0 
L 2766 0 
L 2766 531 
Q 2569 213 2275 61 
Q 1981 -91 1556 -91 
Q 1019 -91 701 211 
Q 384 513 384 1019 
Q 384 1609 779 1909 
Q 1175 2209 1959 2209 
L 2766 2209 
L 2766 2266 
Q 2766 2663 2505 2880 
Q 2244 3097 1772 3097 
Q 1472 3097 1187 3025 
Q 903 2953 641 2809 
L 641 3341 
Q 956 3463 1253 3523 
Q 1550 3584 1831 3584 
Q 2591 3584 2966 3190 
Q 3341 2797 3341 1997 
z
" transform="scale(0.015625)"/>
       <path id="DejaVuSans-69" d="M 603 3500 
L 1178 3500 
L 1178 0 
L 603 0 
L 603 3500 
z
M 603 4863 
L 1178 4863 
L 1178 4134 
L 603 4134 
L 603 4863 
z
" transform="scale(0.015625)"/>
       <path id="DejaVuSans-5f" d="M 3263 -1063 
L 3263 -1509 
L -63 -1509 
L -63 -1063 
L 3263 -1063 
z
" transform="scale(0.015625)"/>
      </defs>
      <use xlink:href="#DejaVuSans-74"/>
      <use xlink:href="#DejaVuSans-72" x="39.208984"/>
      <use xlink:href="#DejaVuSans-61" x="80.322266"/>
      <use xlink:href="#DejaVuSans-69" x="141.601562"/>
      <use xlink:href="#DejaVuSans-6e" x="169.384766"/>
      <use xlink:href="#DejaVuSans-5f" x="232.763672"/>
      <use xlink:href="#DejaVuSans-6c" x="282.763672"/>
      <use xlink:href="#DejaVuSans-6f" x="310.546875"/>
      <use xlink:href="#DejaVuSans-73" x="371.728516"/>
      <use xlink:href="#DejaVuSans-73" x="423.828125"/>
     </g>
    </g>
   </g>
  </g>
 </g>
 <defs>
  <clipPath id="pa77e2b4865">
   <rect x="30.103125" y="22.318125" width="357.12" height="266.112"/>
  </clipPath>
 </defs>
</svg>