<?xml version="1.0" encoding="utf-8" standalone="no"?>
<!DOCTYPE svg PUBLIC "-//W3C//DTD SVG 1.1//EN"
  "http://www.w3.org/Graphics/SVG/1.1/DTD/svg11.dtd">
<svg xmlns:xlink="http://www.w3.org/1999/xlink" width="411.285625pt" height="312.30825pt" viewBox="0 0 411.285625 312.30825" xmlns="http://www.w3.org/2000/svg" version="1.1">
 <metadata>
  <rdf:RDF xmlns:dc="http://purl.org/dc/elements/1.1/" xmlns:cc="http://creativecommons.org/ns#" xmlns:rdf="http://www.w3.org/1999/02/22-rdf-syntax-ns#">
   <cc:Work>
    <dc:type rdf:resource="http://purl.org/dc/dcmitype/StillImage"/>
    <dc:date>2024-08-22T13:32:28.496949</dc:date>
    <dc:format>image/svg+xml</dc:format>
    <dc:creator>
     <cc:Agent>
      <dc:title>Matplotlib v3.8.4, https://matplotlib.org/</dc:title>
     </cc:Agent>
    </dc:creator>
   </cc:Work>
  </rdf:RDF>
 </metadata>
 <defs>
  <style type="text/css">*{stroke-linejoin: round; stroke-linecap: butt}</style>
 </defs>
 <g id="figure_1">
  <g id="patch_1">
   <path d="M 0 312.30825 
L 411.285625 312.30825 
L 411.285625 0 
L 0 0 
z
" style="fill: #ffffff"/>
  </g>
  <g id="axes_1">
   <g id="patch_2">
    <path d="M 46.965625 288.430125 
L 404.085625 288.430125 
L 404.085625 22.318125 
L 46.965625 22.318125 
z
" style="fill: #ffffff"/>
   </g>
   <g id="patch_3">
    <path d="M 63.198352 288.430125 
L 65.754687 288.430125 
L 65.754687 282.756095 
L 63.198352 282.756095 
z
" clip-path="url(#p03e3495c2f)" style="fill: #1f77b4"/>
   </g>
   <g id="patch_4">
    <path d="M 65.754687 288.430125 
L 68.311022 288.430125 
L 68.311022 282.756095 
L 65.754687 282.756095 
z
" clip-path="url(#p03e3495c2f)" style="fill: #1f77b4"/>
   </g>
   <g id="patch_5">
    <path d="M 68.311022 288.430125 
L 70.867357 288.430125 
L 70.867357 282.756095 
L 68.311022 282.756095 
z
" clip-path="url(#p03e3495c2f)" style="fill: #1f77b4"/>
   </g>
   <g id="patch_6">
    <path d="M 70.867357 288.430125 
L 73.423692 288.430125 
L 73.423692 288.430125 
L 70.867357 288.430125 
z
" clip-path="url(#p03e3495c2f)" style="fill: #1f77b4"/>
   </g>
   <g id="patch_7">
    <path d="M 73.423692 288.430125 
L 75.980027 288.430125 
L 75.980027 284.647438 
L 73.423692 284.647438 
z
" clip-path="url(#p03e3495c2f)" style="fill: #1f77b4"/>
   </g>
   <g id="patch_8">
    <path d="M 75.980027 288.430125 
L 78.536362 288.430125 
L 78.536362 280.864752 
L 75.980027 280.864752 
z
" clip-path="url(#p03e3495c2f)" style="fill: #1f77b4"/>
   </g>
   <g id="patch_9">
    <path d="M 78.536362 288.430125 
L 81.092697 288.430125 
L 81.092697 284.647438 
L 78.536362 284.647438 
z
" clip-path="url(#p03e3495c2f)" style="fill: #1f77b4"/>
   </g>
   <g id="patch_10">
    <path d="M 81.092697 288.430125 
L 83.649032 288.430125 
L 83.649032 288.430125 
L 81.092697 288.430125 
z
" clip-path="url(#p03e3495c2f)" style="fill: #1f77b4"/>
   </g>
   <g id="patch_11">
    <path d="M 83.649032 288.430125 
L 86.205367 288.430125 
L 86.205367 284.647438 
L 83.649032 284.647438 
z
" clip-path="url(#p03e3495c2f)" style="fill: #1f77b4"/>
   </g>
   <g id="patch_12">
    <path d="M 86.205367 288.430125 
L 88.761702 288.430125 
L 88.761702 282.756095 
L 86.205367 282.756095 
z
" clip-path="url(#p03e3495c2f)" style="fill: #1f77b4"/>
   </g>
   <g id="patch_13">
    <path d="M 88.761702 288.430125 
L 91.318037 288.430125 
L 91.318037 282.756095 
L 88.761702 282.756095 
z
" clip-path="url(#p03e3495c2f)" style="fill: #1f77b4"/>
   </g>
   <g id="patch_14">
    <path d="M 91.318037 288.430125 
L 93.874372 288.430125 
L 93.874372 282.756095 
L 91.318037 282.756095 
z
" clip-path="url(#p03e3495c2f)" style="fill: #1f77b4"/>
   </g>
   <g id="patch_15">
    <path d="M 93.874372 288.430125 
L 96.430707 288.430125 
L 96.430707 282.756095 
L 93.874372 282.756095 
z
" clip-path="url(#p03e3495c2f)" style="fill: #1f77b4"/>
   </g>
   <g id="patch_16">
    <path d="M 96.430707 288.430125 
L 98.987042 288.430125 
L 98.987042 288.430125 
L 96.430707 288.430125 
z
" clip-path="url(#p03e3495c2f)" style="fill: #1f77b4"/>
   </g>
   <g id="patch_17">
    <path d="M 98.987042 288.430125 
L 101.543377 288.430125 
L 101.543377 288.430125 
L 98.987042 288.430125 
z
" clip-path="url(#p03e3495c2f)" style="fill: #1f77b4"/>
   </g>
   <g id="patch_18">
    <path d="M 101.543377 288.430125 
L 104.099712 288.430125 
L 104.099712 280.864752 
L 101.543377 280.864752 
z
" clip-path="url(#p03e3495c2f)" style="fill: #1f77b4"/>
   </g>
   <g id="patch_19">
    <path d="M 104.099712 288.430125 
L 106.656047 288.430125 
L 106.656047 286.538782 
L 104.099712 286.538782 
z
" clip-path="url(#p03e3495c2f)" style="fill: #1f77b4"/>
   </g>
   <g id="patch_20">
    <path d="M 106.656047 288.430125 
L 109.212382 288.430125 
L 109.212382 282.756095 
L 106.656047 282.756095 
z
" clip-path="url(#p03e3495c2f)" style="fill: #1f77b4"/>
   </g>
   <g id="patch_21">
    <path d="M 109.212382 288.430125 
L 111.768717 288.430125 
L 111.768717 284.647438 
L 109.212382 284.647438 
z
" clip-path="url(#p03e3495c2f)" style="fill: #1f77b4"/>
   </g>
   <g id="patch_22">
    <path d="M 111.768717 288.430125 
L 114.325052 288.430125 
L 114.325052 277.082065 
L 111.768717 277.082065 
z
" clip-path="url(#p03e3495c2f)" style="fill: #1f77b4"/>
   </g>
   <g id="patch_23">
    <path d="M 114.325052 288.430125 
L 116.881387 288.430125 
L 116.881387 280.864752 
L 114.325052 280.864752 
z
" clip-path="url(#p03e3495c2f)" style="fill: #1f77b4"/>
   </g>
   <g id="patch_24">
    <path d="M 116.881387 288.430125 
L 119.437722 288.430125 
L 119.437722 288.430125 
L 116.881387 288.430125 
z
" clip-path="url(#p03e3495c2f)" style="fill: #1f77b4"/>
   </g>
   <g id="patch_25">
    <path d="M 119.437722 288.430125 
L 121.994057 288.430125 
L 121.994057 282.756095 
L 119.437722 282.756095 
z
" clip-path="url(#p03e3495c2f)" style="fill: #1f77b4"/>
   </g>
   <g id="patch_26">
    <path d="M 121.994057 288.430125 
L 124.550392 288.430125 
L 124.550392 277.082065 
L 121.994057 277.082065 
z
" clip-path="url(#p03e3495c2f)" style="fill: #1f77b4"/>
   </g>
   <g id="patch_27">
    <path d="M 124.550392 288.430125 
L 127.106727 288.430125 
L 127.106727 275.190722 
L 124.550392 275.190722 
z
" clip-path="url(#p03e3495c2f)" style="fill: #1f77b4"/>
   </g>
   <g id="patch_28">
    <path d="M 127.106727 288.430125 
L 129.663062 288.430125 
L 129.663062 258.168632 
L 127.106727 258.168632 
z
" clip-path="url(#p03e3495c2f)" style="fill: #1f77b4"/>
   </g>
   <g id="patch_29">
    <path d="M 129.663062 288.430125 
L 132.219397 288.430125 
L 132.219397 267.625349 
L 129.663062 267.625349 
z
" clip-path="url(#p03e3495c2f)" style="fill: #1f77b4"/>
   </g>
   <g id="patch_30">
    <path d="M 132.219397 288.430125 
L 134.775732 288.430125 
L 134.775732 260.059976 
L 132.219397 260.059976 
z
" clip-path="url(#p03e3495c2f)" style="fill: #1f77b4"/>
   </g>
   <g id="patch_31">
    <path d="M 134.775732 288.430125 
L 137.332067 288.430125 
L 137.332067 288.430125 
L 134.775732 288.430125 
z
" clip-path="url(#p03e3495c2f)" style="fill: #1f77b4"/>
   </g>
   <g id="patch_32">
    <path d="M 137.332067 288.430125 
L 139.888402 288.430125 
L 139.888402 248.711916 
L 137.332067 248.711916 
z
" clip-path="url(#p03e3495c2f)" style="fill: #1f77b4"/>
   </g>
   <g id="patch_33">
    <path d="M 139.888402 288.430125 
L 142.444737 288.430125 
L 142.444737 256.277289 
L 139.888402 256.277289 
z
" clip-path="url(#p03e3495c2f)" style="fill: #1f77b4"/>
   </g>
   <g id="patch_34">
    <path d="M 142.444737 288.430125 
L 145.001072 288.430125 
L 145.001072 265.734006 
L 142.444737 265.734006 
z
" clip-path="url(#p03e3495c2f)" style="fill: #1f77b4"/>
   </g>
   <g id="patch_35">
    <path d="M 145.001072 288.430125 
L 147.557407 288.430125 
L 147.557407 248.711916 
L 145.001072 248.711916 
z
" clip-path="url(#p03e3495c2f)" style="fill: #1f77b4"/>
   </g>
   <g id="patch_36">
    <path d="M 147.557407 288.430125 
L 150.113742 288.430125 
L 150.113742 243.037886 
L 147.557407 243.037886 
z
" clip-path="url(#p03e3495c2f)" style="fill: #1f77b4"/>
   </g>
   <g id="patch_37">
    <path d="M 150.113742 288.430125 
L 152.670077 288.430125 
L 152.670077 208.993707 
L 150.113742 208.993707 
z
" clip-path="url(#p03e3495c2f)" style="fill: #1f77b4"/>
   </g>
   <g id="patch_38">
    <path d="M 152.670077 288.430125 
L 155.226412 288.430125 
L 155.226412 288.430125 
L 152.670077 288.430125 
z
" clip-path="url(#p03e3495c2f)" style="fill: #1f77b4"/>
   </g>
   <g id="patch_39">
    <path d="M 155.226412 288.430125 
L 157.782747 288.430125 
L 157.782747 210.88505 
L 155.226412 210.88505 
z
" clip-path="url(#p03e3495c2f)" style="fill: #1f77b4"/>
   </g>
   <g id="patch_40">
    <path d="M 157.782747 288.430125 
L 160.339082 288.430125 
L 160.339082 207.102364 
L 157.782747 207.102364 
z
" clip-path="url(#p03e3495c2f)" style="fill: #1f77b4"/>
   </g>
   <g id="patch_41">
    <path d="M 160.339082 288.430125 
L 162.895417 288.430125 
L 162.895417 199.536991 
L 160.339082 199.536991 
z
" clip-path="url(#p03e3495c2f)" style="fill: #1f77b4"/>
   </g>
   <g id="patch_42">
    <path d="M 162.895417 288.430125 
L 165.451752 288.430125 
L 165.451752 173.058185 
L 162.895417 173.058185 
z
" clip-path="url(#p03e3495c2f)" style="fill: #1f77b4"/>
   </g>
   <g id="patch_43">
    <path d="M 165.451752 288.430125 
L 168.008087 288.430125 
L 168.008087 184.406244 
L 165.451752 184.406244 
z
" clip-path="url(#p03e3495c2f)" style="fill: #1f77b4"/>
   </g>
   <g id="patch_44">
    <path d="M 168.008087 288.430125 
L 170.564422 288.430125 
L 170.564422 161.710125 
L 168.008087 161.710125 
z
" clip-path="url(#p03e3495c2f)" style="fill: #1f77b4"/>
   </g>
   <g id="patch_45">
    <path d="M 170.564422 288.430125 
L 173.120757 288.430125 
L 173.120757 288.430125 
L 170.564422 288.430125 
z
" clip-path="url(#p03e3495c2f)" style="fill: #1f77b4"/>
   </g>
   <g id="patch_46">
    <path d="M 173.120757 288.430125 
L 175.677092 288.430125 
L 175.677092 165.492812 
L 173.120757 165.492812 
z
" clip-path="url(#p03e3495c2f)" style="fill: #1f77b4"/>
   </g>
   <g id="patch_47">
    <path d="M 175.677092 288.430125 
L 178.233427 288.430125 
L 178.233427 173.058185 
L 175.677092 173.058185 
z
" clip-path="url(#p03e3495c2f)" style="fill: #1f77b4"/>
   </g>
   <g id="patch_48">
    <path d="M 178.233427 288.430125 
L 180.789762 288.430125 
L 180.789762 142.796692 
L 178.233427 142.796692 
z
" clip-path="url(#p03e3495c2f)" style="fill: #1f77b4"/>
   </g>
   <g id="patch_49">
    <path d="M 180.789762 288.430125 
L 183.346097 288.430125 
L 183.346097 146.579379 
L 180.789762 146.579379 
z
" clip-path="url(#p03e3495c2f)" style="fill: #1f77b4"/>
   </g>
   <g id="patch_50">
    <path d="M 183.346097 288.430125 
L 185.902432 288.430125 
L 185.902432 129.557289 
L 183.346097 129.557289 
z
" clip-path="url(#p03e3495c2f)" style="fill: #1f77b4"/>
   </g>
   <g id="patch_51">
    <path d="M 185.902432 288.430125 
L 188.458767 288.430125 
L 188.458767 121.991916 
L 185.902432 121.991916 
z
" clip-path="url(#p03e3495c2f)" style="fill: #1f77b4"/>
   </g>
   <g id="patch_52">
    <path d="M 188.458767 288.430125 
L 191.015102 288.430125 
L 191.015102 288.430125 
L 188.458767 288.430125 
z
" clip-path="url(#p03e3495c2f)" style="fill: #1f77b4"/>
   </g>
   <g id="patch_53">
    <path d="M 191.015102 288.430125 
L 193.571437 288.430125 
L 193.571437 106.86117 
L 191.015102 106.86117 
z
" clip-path="url(#p03e3495c2f)" style="fill: #1f77b4"/>
   </g>
   <g id="patch_54">
    <path d="M 193.571437 288.430125 
L 196.127772 288.430125 
L 196.127772 110.643856 
L 193.571437 110.643856 
z
" clip-path="url(#p03e3495c2f)" style="fill: #1f77b4"/>
   </g>
   <g id="patch_55">
    <path d="M 196.127772 288.430125 
L 198.684107 288.430125 
L 198.684107 121.991916 
L 196.127772 121.991916 
z
" clip-path="url(#p03e3495c2f)" style="fill: #1f77b4"/>
   </g>
   <g id="patch_56">
    <path d="M 198.684107 288.430125 
L 201.240442 288.430125 
L 201.240442 99.295797 
L 198.684107 99.295797 
z
" clip-path="url(#p03e3495c2f)" style="fill: #1f77b4"/>
   </g>
   <g id="patch_57">
    <path d="M 201.240442 288.430125 
L 203.796777 288.430125 
L 203.796777 80.382364 
L 201.240442 80.382364 
z
" clip-path="url(#p03e3495c2f)" style="fill: #1f77b4"/>
   </g>
   <g id="patch_58">
    <path d="M 203.796777 288.430125 
L 206.353112 288.430125 
L 206.353112 108.752513 
L 203.796777 108.752513 
z
" clip-path="url(#p03e3495c2f)" style="fill: #1f77b4"/>
   </g>
   <g id="patch_59">
    <path d="M 206.353112 288.430125 
L 208.909447 288.430125 
L 208.909447 288.430125 
L 206.353112 288.430125 
z
" clip-path="url(#p03e3495c2f)" style="fill: #1f77b4"/>
   </g>
   <g id="patch_60">
    <path d="M 208.909447 288.430125 
L 211.465782 288.430125 
L 211.465782 103.078483 
L 208.909447 103.078483 
z
" clip-path="url(#p03e3495c2f)" style="fill: #1f77b4"/>
   </g>
   <g id="patch_61">
    <path d="M 211.465782 288.430125 
L 214.022117 288.430125 
L 214.022117 67.142961 
L 211.465782 67.142961 
z
" clip-path="url(#p03e3495c2f)" style="fill: #1f77b4"/>
   </g>
   <g id="patch_62">
    <path d="M 214.022117 288.430125 
L 216.578452 288.430125 
L 216.578452 89.83908 
L 214.022117 89.83908 
z
" clip-path="url(#p03e3495c2f)" style="fill: #1f77b4"/>
   </g>
   <g id="patch_63">
    <path d="M 216.578452 288.430125 
L 219.134787 288.430125 
L 219.134787 97.404453 
L 216.578452 97.404453 
z
" clip-path="url(#p03e3495c2f)" style="fill: #1f77b4"/>
   </g>
   <g id="patch_64">
    <path d="M 219.134787 288.430125 
L 221.691122 288.430125 
L 221.691122 121.991916 
L 219.134787 121.991916 
z
" clip-path="url(#p03e3495c2f)" style="fill: #1f77b4"/>
   </g>
   <g id="patch_65">
    <path d="M 221.691122 288.430125 
L 224.247457 288.430125 
L 224.247457 67.142961 
L 221.691122 67.142961 
z
" clip-path="url(#p03e3495c2f)" style="fill: #1f77b4"/>
   </g>
   <g id="patch_66">
    <path d="M 224.247457 288.430125 
L 226.803793 288.430125 
L 226.803793 288.430125 
L 224.247457 288.430125 
z
" clip-path="url(#p03e3495c2f)" style="fill: #1f77b4"/>
   </g>
   <g id="patch_67">
    <path d="M 226.803793 288.430125 
L 229.360128 288.430125 
L 229.360128 99.295797 
L 226.803793 99.295797 
z
" clip-path="url(#p03e3495c2f)" style="fill: #1f77b4"/>
   </g>
   <g id="patch_68">
    <path d="M 229.360128 288.430125 
L 231.916463 288.430125 
L 231.916463 53.903558 
L 229.360128 53.903558 
z
" clip-path="url(#p03e3495c2f)" style="fill: #1f77b4"/>
   </g>
   <g id="patch_69">
    <path d="M 231.916463 288.430125 
L 234.472798 288.430125 
L 234.472798 82.273707 
L 231.916463 82.273707 
z
" clip-path="url(#p03e3495c2f)" style="fill: #1f77b4"/>
   </g>
   <g id="patch_70">
    <path d="M 234.472798 288.430125 
L 237.029133 288.430125 
L 237.029133 80.382364 
L 234.472798 80.382364 
z
" clip-path="url(#p03e3495c2f)" style="fill: #1f77b4"/>
   </g>
   <g id="patch_71">
    <path d="M 237.029133 288.430125 
L 239.585468 288.430125 
L 239.585468 80.382364 
L 237.029133 80.382364 
z
" clip-path="url(#p03e3495c2f)" style="fill: #1f77b4"/>
   </g>
   <g id="patch_72">
    <path d="M 239.585468 288.430125 
L 242.141803 288.430125 
L 242.141803 48.229528 
L 239.585468 48.229528 
z
" clip-path="url(#p03e3495c2f)" style="fill: #1f77b4"/>
   </g>
   <g id="patch_73">
    <path d="M 242.141803 288.430125 
L 244.698138 288.430125 
L 244.698138 288.430125 
L 242.141803 288.430125 
z
" clip-path="url(#p03e3495c2f)" style="fill: #1f77b4"/>
   </g>
   <g id="patch_74">
    <path d="M 244.698138 288.430125 
L 247.254473 288.430125 
L 247.254473 70.925647 
L 244.698138 70.925647 
z
" clip-path="url(#p03e3495c2f)" style="fill: #1f77b4"/>
   </g>
   <g id="patch_75">
    <path d="M 247.254473 288.430125 
L 249.810808 288.430125 
L 249.810808 36.881468 
L 247.254473 36.881468 
z
" clip-path="url(#p03e3495c2f)" style="fill: #1f77b4"/>
   </g>
   <g id="patch_76">
    <path d="M 249.810808 288.430125 
L 252.367143 288.430125 
L 252.367143 72.816991 
L 249.810808 72.816991 
z
" clip-path="url(#p03e3495c2f)" style="fill: #1f77b4"/>
   </g>
   <g id="patch_77">
    <path d="M 252.367143 288.430125 
L 254.923478 288.430125 
L 254.923478 34.990125 
L 252.367143 34.990125 
z
" clip-path="url(#p03e3495c2f)" style="fill: #1f77b4"/>
   </g>
   <g id="patch_78">
    <path d="M 254.923478 288.430125 
L 257.479813 288.430125 
L 257.479813 59.577588 
L 254.923478 59.577588 
z
" clip-path="url(#p03e3495c2f)" style="fill: #1f77b4"/>
   </g>
   <g id="patch_79">
    <path d="M 257.479813 288.430125 
L 260.036148 288.430125 
L 260.036148 55.794901 
L 257.479813 55.794901 
z
" clip-path="url(#p03e3495c2f)" style="fill: #1f77b4"/>
   </g>
   <g id="patch_80">
    <path d="M 260.036148 288.430125 
L 262.592483 288.430125 
L 262.592483 288.430125 
L 260.036148 288.430125 
z
" clip-path="url(#p03e3495c2f)" style="fill: #1f77b4"/>
   </g>
   <g id="patch_81">
    <path d="M 262.592483 288.430125 
L 265.148818 288.430125 
L 265.148818 44.446841 
L 262.592483 44.446841 
z
" clip-path="url(#p03e3495c2f)" style="fill: #1f77b4"/>
   </g>
   <g id="patch_82">
    <path d="M 265.148818 288.430125 
L 267.705153 288.430125 
L 267.705153 50.120871 
L 265.148818 50.120871 
z
" clip-path="url(#p03e3495c2f)" style="fill: #1f77b4"/>
   </g>
   <g id="patch_83">
    <path d="M 267.705153 288.430125 
L 270.261488 288.430125 
L 270.261488 48.229528 
L 267.705153 48.229528 
z
" clip-path="url(#p03e3495c2f)" style="fill: #1f77b4"/>
   </g>
   <g id="patch_84">
    <path d="M 270.261488 288.430125 
L 272.817823 288.430125 
L 272.817823 46.338185 
L 270.261488 46.338185 
z
" clip-path="url(#p03e3495c2f)" style="fill: #1f77b4"/>
   </g>
   <g id="patch_85">
    <path d="M 272.817823 288.430125 
L 275.374158 288.430125 
L 275.374158 82.273707 
L 272.817823 82.273707 
z
" clip-path="url(#p03e3495c2f)" style="fill: #1f77b4"/>
   </g>
   <g id="patch_86">
    <path d="M 275.374158 288.430125 
L 277.930493 288.430125 
L 277.930493 69.034304 
L 275.374158 69.034304 
z
" clip-path="url(#p03e3495c2f)" style="fill: #1f77b4"/>
   </g>
   <g id="patch_87">
    <path d="M 277.930493 288.430125 
L 280.486828 288.430125 
L 280.486828 288.430125 
L 277.930493 288.430125 
z
" clip-path="url(#p03e3495c2f)" style="fill: #1f77b4"/>
   </g>
   <g id="patch_88">
    <path d="M 280.486828 288.430125 
L 283.043163 288.430125 
L 283.043163 101.18714 
L 280.486828 101.18714 
z
" clip-path="url(#p03e3495c2f)" style="fill: #1f77b4"/>
   </g>
   <g id="patch_89">
    <path d="M 283.043163 288.430125 
L 285.599498 288.430125 
L 285.599498 52.012215 
L 283.043163 52.012215 
z
" clip-path="url(#p03e3495c2f)" style="fill: #1f77b4"/>
   </g>
   <g id="patch_90">
    <path d="M 285.599498 288.430125 
L 288.155833 288.430125 
L 288.155833 72.816991 
L 285.599498 72.816991 
z
" clip-path="url(#p03e3495c2f)" style="fill: #1f77b4"/>
   </g>
   <g id="patch_91">
    <path d="M 288.155833 288.430125 
L 290.712168 288.430125 
L 290.712168 40.664155 
L 288.155833 40.664155 
z
" clip-path="url(#p03e3495c2f)" style="fill: #1f77b4"/>
   </g>
   <g id="patch_92">
    <path d="M 290.712168 288.430125 
L 293.268503 288.430125 
L 293.268503 86.056394 
L 290.712168 86.056394 
z
" clip-path="url(#p03e3495c2f)" style="fill: #1f77b4"/>
   </g>
   <g id="patch_93">
    <path d="M 293.268503 288.430125 
L 295.824838 288.430125 
L 295.824838 101.18714 
L 293.268503 101.18714 
z
" clip-path="url(#p03e3495c2f)" style="fill: #1f77b4"/>
   </g>
   <g id="patch_94">
    <path d="M 295.824838 288.430125 
L 298.381173 288.430125 
L 298.381173 288.430125 
L 295.824838 288.430125 
z
" clip-path="url(#p03e3495c2f)" style="fill: #1f77b4"/>
   </g>
   <g id="patch_95">
    <path d="M 298.381173 288.430125 
L 300.937508 288.430125 
L 300.937508 120.100573 
L 298.381173 120.100573 
z
" clip-path="url(#p03e3495c2f)" style="fill: #1f77b4"/>
   </g>
   <g id="patch_96">
    <path d="M 300.937508 288.430125 
L 303.493843 288.430125 
L 303.493843 140.905349 
L 300.937508 140.905349 
z
" clip-path="url(#p03e3495c2f)" style="fill: #1f77b4"/>
   </g>
   <g id="patch_97">
    <path d="M 303.493843 288.430125 
L 306.050178 288.430125 
L 306.050178 150.362065 
L 303.493843 150.362065 
z
" clip-path="url(#p03e3495c2f)" style="fill: #1f77b4"/>
   </g>
   <g id="patch_98">
    <path d="M 306.050178 288.430125 
L 308.606513 288.430125 
L 308.606513 157.927438 
L 306.050178 157.927438 
z
" clip-path="url(#p03e3495c2f)" style="fill: #1f77b4"/>
   </g>
   <g id="patch_99">
    <path d="M 308.606513 288.430125 
L 311.162848 288.430125 
L 311.162848 133.339976 
L 308.606513 133.339976 
z
" clip-path="url(#p03e3495c2f)" style="fill: #1f77b4"/>
   </g>
   <g id="patch_100">
    <path d="M 311.162848 288.430125 
L 313.719183 288.430125 
L 313.719183 171.166841 
L 311.162848 171.166841 
z
" clip-path="url(#p03e3495c2f)" style="fill: #1f77b4"/>
   </g>
   <g id="patch_101">
    <path d="M 313.719183 288.430125 
L 316.275518 288.430125 
L 316.275518 288.430125 
L 313.719183 288.430125 
z
" clip-path="url(#p03e3495c2f)" style="fill: #1f77b4"/>
   </g>
   <g id="patch_102">
    <path d="M 316.275518 288.430125 
L 318.831853 288.430125 
L 318.831853 195.754304 
L 316.275518 195.754304 
z
" clip-path="url(#p03e3495c2f)" style="fill: #1f77b4"/>
   </g>
   <g id="patch_103">
    <path d="M 318.831853 288.430125 
L 321.388188 288.430125 
L 321.388188 182.514901 
L 318.831853 182.514901 
z
" clip-path="url(#p03e3495c2f)" style="fill: #1f77b4"/>
   </g>
   <g id="patch_104">
    <path d="M 321.388188 288.430125 
L 323.944523 288.430125 
L 323.944523 197.645647 
L 321.388188 197.645647 
z
" clip-path="url(#p03e3495c2f)" style="fill: #1f77b4"/>
   </g>
   <g id="patch_105">
    <path d="M 323.944523 288.430125 
L 326.500858 288.430125 
L 326.500858 205.211021 
L 323.944523 205.211021 
z
" clip-path="url(#p03e3495c2f)" style="fill: #1f77b4"/>
   </g>
   <g id="patch_106">
    <path d="M 326.500858 288.430125 
L 329.057193 288.430125 
L 329.057193 199.536991 
L 326.500858 199.536991 
z
" clip-path="url(#p03e3495c2f)" style="fill: #1f77b4"/>
   </g>
   <g id="patch_107">
    <path d="M 329.057193 288.430125 
L 331.613528 288.430125 
L 331.613528 205.211021 
L 329.057193 205.211021 
z
" clip-path="url(#p03e3495c2f)" style="fill: #1f77b4"/>
   </g>
   <g id="patch_108">
    <path d="M 331.613528 288.430125 
L 334.169863 288.430125 
L 334.169863 288.430125 
L 331.613528 288.430125 
z
" clip-path="url(#p03e3495c2f)" style="fill: #1f77b4"/>
   </g>
   <g id="patch_109">
    <path d="M 334.169863 288.430125 
L 336.726198 288.430125 
L 336.726198 212.776394 
L 334.169863 212.776394 
z
" clip-path="url(#p03e3495c2f)" style="fill: #1f77b4"/>
   </g>
   <g id="patch_110">
    <path d="M 336.726198 288.430125 
L 339.282533 288.430125 
L 339.282533 229.798483 
L 336.726198 229.798483 
z
" clip-path="url(#p03e3495c2f)" style="fill: #1f77b4"/>
   </g>
   <g id="patch_111">
    <path d="M 339.282533 288.430125 
L 341.838868 288.430125 
L 341.838868 252.494603 
L 339.282533 252.494603 
z
" clip-path="url(#p03e3495c2f)" style="fill: #1f77b4"/>
   </g>
   <g id="patch_112">
    <path d="M 341.838868 288.430125 
L 344.395203 288.430125 
L 344.395203 239.2552 
L 341.838868 239.2552 
z
" clip-path="url(#p03e3495c2f)" style="fill: #1f77b4"/>
   </g>
   <g id="patch_113">
    <path d="M 344.395203 288.430125 
L 346.951538 288.430125 
L 346.951538 244.929229 
L 344.395203 244.929229 
z
" clip-path="url(#p03e3495c2f)" style="fill: #1f77b4"/>
   </g>
   <g id="patch_114">
    <path d="M 346.951538 288.430125 
L 349.507873 288.430125 
L 349.507873 265.734006 
L 346.951538 265.734006 
z
" clip-path="url(#p03e3495c2f)" style="fill: #1f77b4"/>
   </g>
   <g id="patch_115">
    <path d="M 349.507873 288.430125 
L 352.064208 288.430125 
L 352.064208 288.430125 
L 349.507873 288.430125 
z
" clip-path="url(#p03e3495c2f)" style="fill: #1f77b4"/>
   </g>
   <g id="patch_116">
    <path d="M 352.064208 288.430125 
L 354.620543 288.430125 
L 354.620543 263.842662 
L 352.064208 263.842662 
z
" clip-path="url(#p03e3495c2f)" style="fill: #1f77b4"/>
   </g>
   <g id="patch_117">
    <path d="M 354.620543 288.430125 
L 357.176878 288.430125 
L 357.176878 277.082065 
L 354.620543 277.082065 
z
" clip-path="url(#p03e3495c2f)" style="fill: #1f77b4"/>
   </g>
   <g id="patch_118">
    <path d="M 357.176878 288.430125 
L 359.733213 288.430125 
L 359.733213 280.864752 
L 357.176878 280.864752 
z
" clip-path="url(#p03e3495c2f)" style="fill: #1f77b4"/>
   </g>
   <g id="patch_119">
    <path d="M 359.733213 288.430125 
L 362.289548 288.430125 
L 362.289548 278.973409 
L 359.733213 278.973409 
z
" clip-path="url(#p03e3495c2f)" style="fill: #1f77b4"/>
   </g>
   <g id="patch_120">
    <path d="M 362.289548 288.430125 
L 364.845883 288.430125 
L 364.845883 273.299379 
L 362.289548 273.299379 
z
" clip-path="url(#p03e3495c2f)" style="fill: #1f77b4"/>
   </g>
   <g id="patch_121">
    <path d="M 364.845883 288.430125 
L 367.402218 288.430125 
L 367.402218 282.756095 
L 364.845883 282.756095 
z
" clip-path="url(#p03e3495c2f)" style="fill: #1f77b4"/>
   </g>
   <g id="patch_122">
    <path d="M 367.402218 288.430125 
L 369.958553 288.430125 
L 369.958553 288.430125 
L 367.402218 288.430125 
z
" clip-path="url(#p03e3495c2f)" style="fill: #1f77b4"/>
   </g>
   <g id="patch_123">
    <path d="M 369.958553 288.430125 
L 372.514888 288.430125 
L 372.514888 275.190722 
L 369.958553 275.190722 
z
" clip-path="url(#p03e3495c2f)" style="fill: #1f77b4"/>
   </g>
   <g id="patch_124">
    <path d="M 372.514888 288.430125 
L 375.071223 288.430125 
L 375.071223 286.538782 
L 372.514888 286.538782 
z
" clip-path="url(#p03e3495c2f)" style="fill: #1f77b4"/>
   </g>
   <g id="patch_125">
    <path d="M 375.071223 288.430125 
L 377.627558 288.430125 
L 377.627558 284.647438 
L 375.071223 284.647438 
z
" clip-path="url(#p03e3495c2f)" style="fill: #1f77b4"/>
   </g>
   <g id="patch_126">
    <path d="M 377.627558 288.430125 
L 380.183893 288.430125 
L 380.183893 284.647438 
L 377.627558 284.647438 
z
" clip-path="url(#p03e3495c2f)" style="fill: #1f77b4"/>
   </g>
   <g id="patch_127">
    <path d="M 380.183893 288.430125 
L 382.740228 288.430125 
L 382.740228 288.430125 
L 380.183893 288.430125 
z
" clip-path="url(#p03e3495c2f)" style="fill: #1f77b4"/>
   </g>
   <g id="patch_128">
    <path d="M 382.740228 288.430125 
L 385.296563 288.430125 
L 385.296563 284.647438 
L 382.740228 284.647438 
z
" clip-path="url(#p03e3495c2f)" style="fill: #1f77b4"/>
   </g>
   <g id="patch_129">
    <path d="M 385.296563 288.430125 
L 387.852898 288.430125 
L 387.852898 286.538782 
L 385.296563 286.538782 
z
" clip-path="url(#p03e3495c2f)" style="fill: #1f77b4"/>
   </g>
   <g id="matplotlib.axis_1">
    <g id="xtick_1">
     <g id="line2d_1">
      <defs>
       <path id="m09beb9f976" d="M 0 0 
L 0 3.5 
" style="stroke: #000000; stroke-width: 0.8"/>
      </defs>
      <g>
       <use xlink:href="#m09beb9f976" x="54.262906" y="288.430125" style="stroke: #000000; stroke-width: 0.8"/>
      </g>
     </g>
     <g id="text_1">
      <!-- 0 -->
      <g transform="translate(51.081656 303.028562) scale(0.1 -0.1)">
       <defs>
        <path id="DejaVuSans-30" d="M 2034 4250 
Q 1547 4250 1301 3770 
Q 1056 3291 1056 2328 
Q 1056 1369 1301 889 
Q 1547 409 2034 409 
Q 2525 409 2770 889 
Q 3016 1369 3016 2328 
Q 3016 3291 2770 3770 
Q 2525 4250 2034 4250 
z
M 2034 4750 
Q 2819 4750 3233 4129 
Q 3647 3509 3647 2328 
Q 3647 1150 3233 529 
Q 2819 -91 2034 -91 
Q 1250 -91 836 529 
Q 422 1150 422 2328 
Q 422 3509 836 4129 
Q 1250 4750 2034 4750 
z
" transform="scale(0.015625)"/>
       </defs>
       <use xlink:href="#DejaVuSans-30"/>
      </g>
     </g>
    </g>
    <g id="xtick_2">
     <g id="line2d_2">
      <g>
       <use xlink:href="#m09beb9f976" x="113.832547" y="288.430125" style="stroke: #000000; stroke-width: 0.8"/>
      </g>
     </g>
     <g id="text_2">
      <!-- 20 -->
      <g transform="translate(107.470047 303.028562) scale(0.1 -0.1)">
       <defs>
        <path id="DejaVuSans-32" d="M 1228 531 
L 3431 531 
L 3431 0 
L 469 0 
L 469 531 
Q 828 903 1448 1529 
Q 2069 2156 2228 2338 
Q 2531 2678 2651 2914 
Q 2772 3150 2772 3378 
Q 2772 3750 2511 3984 
Q 2250 4219 1831 4219 
Q 1534 4219 1204 4116 
Q 875 4013 500 3803 
L 500 4441 
Q 881 4594 1212 4672 
Q 1544 4750 1819 4750 
Q 2544 4750 2975 4387 
Q 3406 4025 3406 3419 
Q 3406 3131 3298 2873 
Q 3191 2616 2906 2266 
Q 2828 2175 2409 1742 
Q 1991 1309 1228 531 
z
" transform="scale(0.015625)"/>
       </defs>
       <use xlink:href="#DejaVuSans-32"/>
       <use xlink:href="#DejaVuSans-30" x="63.623047"/>
      </g>
     </g>
    </g>
    <g id="xtick_3">
     <g id="line2d_3">
      <g>
       <use xlink:href="#m09beb9f976" x="173.402189" y="288.430125" style="stroke: #000000; stroke-width: 0.8"/>
      </g>
     </g>
     <g id="text_3">
      <!-- 40 -->
      <g transform="translate(167.039689 303.028562) scale(0.1 -0.1)">
       <defs>
        <path id="DejaVuSans-34" d="M 2419 4116 
L 825 1625 
L 2419 1625 
L 2419 4116 
z
M 2253 4666 
L 3047 4666 
L 3047 1625 
L 3713 1625 
L 3713 1100 
L 3047 1100 
L 3047 0 
L 2419 0 
L 2419 1100 
L 313 1100 
L 313 1709 
L 2253 4666 
z
" transform="scale(0.015625)"/>
       </defs>
       <use xlink:href="#DejaVuSans-34"/>
       <use xlink:href="#DejaVuSans-30" x="63.623047"/>
      </g>
     </g>
    </g>
    <g id="xtick_4">
     <g id="line2d_4">
      <g>
       <use xlink:href="#m09beb9f976" x="232.97183" y="288.430125" style="stroke: #000000; stroke-width: 0.8"/>
      </g>
     </g>
     <g id="text_4">
      <!-- 60 -->
      <g transform="translate(226.60933 303.028562) scale(0.1 -0.1)">
       <defs>
        <path id="DejaVuSans-36" d="M 2113 2584 
Q 1688 2584 1439 2293 
Q 1191 2003 1191 1497 
Q 1191 994 1439 701 
Q 1688 409 2113 409 
Q 2538 409 2786 701 
Q 3034 994 3034 1497 
Q 3034 2003 2786 2293 
Q 2538 2584 2113 2584 
z
M 3366 4563 
L 3366 3988 
Q 3128 4100 2886 4159 
Q 2644 4219 2406 4219 
Q 1781 4219 1451 3797 
Q 1122 3375 1075 2522 
Q 1259 2794 1537 2939 
Q 1816 3084 2150 3084 
Q 2853 3084 3261 2657 
Q 3669 2231 3669 1497 
Q 3669 778 3244 343 
Q 2819 -91 2113 -91 
Q 1303 -91 875 529 
Q 447 1150 447 2328 
Q 447 3434 972 4092 
Q 1497 4750 2381 4750 
Q 2619 4750 2861 4703 
Q 3103 4656 3366 4563 
z
" transform="scale(0.015625)"/>
       </defs>
       <use xlink:href="#DejaVuSans-36"/>
       <use xlink:href="#DejaVuSans-30" x="63.623047"/>
      </g>
     </g>
    </g>
    <g id="xtick_5">
     <g id="line2d_5">
      <g>
       <use xlink:href="#m09beb9f976" x="292.541472" y="288.430125" style="stroke: #000000; stroke-width: 0.8"/>
      </g>
     </g>
     <g id="text_5">
      <!-- 80 -->
      <g transform="translate(286.178972 303.028562) scale(0.1 -0.1)">
       <defs>
        <path id="DejaVuSans-38" d="M 2034 2216 
Q 1584 2216 1326 1975 
Q 1069 1734 1069 1313 
Q 1069 891 1326 650 
Q 1584 409 2034 409 
Q 2484 409 2743 651 
Q 3003 894 3003 1313 
Q 3003 1734 2745 1975 
Q 2488 2216 2034 2216 
z
M 1403 2484 
Q 997 2584 770 2862 
Q 544 3141 544 3541 
Q 544 4100 942 4425 
Q 1341 4750 2034 4750 
Q 2731 4750 3128 4425 
Q 3525 4100 3525 3541 
Q 3525 3141 3298 2862 
Q 3072 2584 2669 2484 
Q 3125 2378 3379 2068 
Q 3634 1759 3634 1313 
Q 3634 634 3220 271 
Q 2806 -91 2034 -91 
Q 1263 -91 848 271 
Q 434 634 434 1313 
Q 434 1759 690 2068 
Q 947 2378 1403 2484 
z
M 1172 3481 
Q 1172 3119 1398 2916 
Q 1625 2713 2034 2713 
Q 2441 2713 2670 2916 
Q 2900 3119 2900 3481 
Q 2900 3844 2670 4047 
Q 2441 4250 2034 4250 
Q 1625 4250 1398 4047 
Q 1172 3844 1172 3481 
z
" transform="scale(0.015625)"/>
       </defs>
       <use xlink:href="#DejaVuSans-38"/>
       <use xlink:href="#DejaVuSans-30" x="63.623047"/>
      </g>
     </g>
    </g>
    <g id="xtick_6">
     <g id="line2d_6">
      <g>
       <use xlink:href="#m09beb9f976" x="352.111113" y="288.430125" style="stroke: #000000; stroke-width: 0.8"/>
      </g>
     </g>
     <g id="text_6">
      <!-- 100 -->
      <g transform="translate(342.567363 303.028562) scale(0.1 -0.1)">
       <defs>
        <path id="DejaVuSans-31" d="M 794 531 
L 1825 531 
L 1825 4091 
L 703 3866 
L 703 4441 
L 1819 4666 
L 2450 4666 
L 2450 531 
L 3481 531 
L 3481 0 
L 794 0 
L 794 531 
z
" transform="scale(0.015625)"/>
       </defs>
       <use xlink:href="#DejaVuSans-31"/>
       <use xlink:href="#DejaVuSans-30" x="63.623047"/>
       <use xlink:href="#DejaVuSans-30" x="127.246094"/>
      </g>
     </g>
    </g>
   </g>
   <g id="matplotlib.axis_2">
    <g id="ytick_1">
     <g id="line2d_7">
      <defs>
       <path id="m8bdaf16b57" d="M 0 0 
L -3.5 0 
" style="stroke: #000000; stroke-width: 0.8"/>
      </defs>
      <g>
       <use xlink:href="#m8bdaf16b57" x="46.965625" y="288.430125" style="stroke: #000000; stroke-width: 0.8"/>
      </g>
     </g>
     <g id="text_7">
      <!-- 0 -->
      <g transform="translate(33.603125 292.229344) scale(0.1 -0.1)">
       <use xlink:href="#DejaVuSans-30"/>
      </g>
     </g>
    </g>
    <g id="ytick_2">
     <g id="line2d_8">
      <g>
       <use xlink:href="#m8bdaf16b57" x="46.965625" y="250.603259" style="stroke: #000000; stroke-width: 0.8"/>
      </g>
     </g>
     <g id="text_8">
      <!-- 20 -->
      <g transform="translate(27.240625 254.402478) scale(0.1 -0.1)">
       <use xlink:href="#DejaVuSans-32"/>
       <use xlink:href="#DejaVuSans-30" x="63.623047"/>
      </g>
     </g>
    </g>
    <g id="ytick_3">
     <g id="line2d_9">
      <g>
       <use xlink:href="#m8bdaf16b57" x="46.965625" y="212.776394" style="stroke: #000000; stroke-width: 0.8"/>
      </g>
     </g>
     <g id="text_9">
      <!-- 40 -->
      <g transform="translate(27.240625 216.575612) scale(0.1 -0.1)">
       <use xlink:href="#DejaVuSans-34"/>
       <use xlink:href="#DejaVuSans-30" x="63.623047"/>
      </g>
     </g>
    </g>
    <g id="ytick_4">
     <g id="line2d_10">
      <g>
       <use xlink:href="#m8bdaf16b57" x="46.965625" y="174.949528" style="stroke: #000000; stroke-width: 0.8"/>
      </g>
     </g>
     <g id="text_10">
      <!-- 60 -->
      <g transform="translate(27.240625 178.748747) scale(0.1 -0.1)">
       <use xlink:href="#DejaVuSans-36"/>
       <use xlink:href="#DejaVuSans-30" x="63.623047"/>
      </g>
     </g>
    </g>
    <g id="ytick_5">
     <g id="line2d_11">
      <g>
       <use xlink:href="#m8bdaf16b57" x="46.965625" y="137.122662" style="stroke: #000000; stroke-width: 0.8"/>
      </g>
     </g>
     <g id="text_11">
      <!-- 80 -->
      <g transform="translate(27.240625 140.921881) scale(0.1 -0.1)">
       <use xlink:href="#DejaVuSans-38"/>
       <use xlink:href="#DejaVuSans-30" x="63.623047"/>
      </g>
     </g>
    </g>
    <g id="ytick_6">
     <g id="line2d_12">
      <g>
       <use xlink:href="#m8bdaf16b57" x="46.965625" y="99.295797" style="stroke: #000000; stroke-width: 0.8"/>
      </g>
     </g>
     <g id="text_12">
      <!-- 100 -->
      <g transform="translate(20.878125 103.095015) scale(0.1 -0.1)">
       <use xlink:href="#DejaVuSans-31"/>
       <use xlink:href="#DejaVuSans-30" x="63.623047"/>
       <use xlink:href="#DejaVuSans-30" x="127.246094"/>
      </g>
     </g>
    </g>
    <g id="ytick_7">
     <g id="line2d_13">
      <g>
       <use xlink:href="#m8bdaf16b57" x="46.965625" y="61.468931" style="stroke: #000000; stroke-width: 0.8"/>
      </g>
     </g>
     <g id="text_13">
      <!-- 120 -->
      <g transform="translate(20.878125 65.26815) scale(0.1 -0.1)">
       <use xlink:href="#DejaVuSans-31"/>
       <use xlink:href="#DejaVuSans-32" x="63.623047"/>
       <use xlink:href="#DejaVuSans-30" x="127.246094"/>
      </g>
     </g>
    </g>
    <g id="ytick_8">
     <g id="line2d_14">
      <g>
       <use xlink:href="#m8bdaf16b57" x="46.965625" y="23.642065" style="stroke: #000000; stroke-width: 0.8"/>
      </g>
     </g>
     <g id="text_14">
      <!-- 140 -->
      <g transform="translate(20.878125 27.441284) scale(0.1 -0.1)">
       <use xlink:href="#DejaVuSans-31"/>
       <use xlink:href="#DejaVuSans-34" x="63.623047"/>
       <use xlink:href="#DejaVuSans-30" x="127.246094"/>
      </g>
     </g>
    </g>
    <g id="text_15">
     <!-- Frequency -->
     <g transform="translate(14.798438 181.203812) rotate(-90) scale(0.1 -0.1)">
      <defs>
       <path id="DejaVuSans-46" d="M 628 4666 
L 3309 4666 
L 3309 4134 
L 1259 4134 
L 1259 2759 
L 3109 2759 
L 3109 2228 
L 1259 2228 
L 1259 0 
L 628 0 
L 628 4666 
z
" transform="scale(0.015625)"/>
       <path id="DejaVuSans-72" d="M 2631 2963 
Q 2534 3019 2420 3045 
Q 2306 3072 2169 3072 
Q 1681 3072 1420 2755 
Q 1159 2438 1159 1844 
L 1159 0 
L 581 0 
L 581 3500 
L 1159 3500 
L 1159 2956 
Q 1341 3275 1631 3429 
Q 1922 3584 2338 3584 
Q 2397 3584 2469 3576 
Q 2541 3569 2628 3553 
L 2631 2963 
z
" transform="scale(0.015625)"/>
       <path id="DejaVuSans-65" d="M 3597 1894 
L 3597 1613 
L 953 1613 
Q 991 1019 1311 708 
Q 1631 397 2203 397 
Q 2534 397 2845 478 
Q 3156 559 3463 722 
L 3463 178 
Q 3153 47 2828 -22 
Q 2503 -91 2169 -91 
Q 1331 -91 842 396 
Q 353 884 353 1716 
Q 353 2575 817 3079 
Q 1281 3584 2069 3584 
Q 2775 3584 3186 3129 
Q 3597 2675 3597 1894 
z
M 3022 2063 
Q 3016 2534 2758 2815 
Q 2500 3097 2075 3097 
Q 1594 3097 1305 2825 
Q 1016 2553 972 2059 
L 3022 2063 
z
" transform="scale(0.015625)"/>
       <path id="DejaVuSans-71" d="M 947 1747 
Q 947 1113 1208 752 
Q 1469 391 1925 391 
Q 2381 391 2643 752 
Q 2906 1113 2906 1747 
Q 2906 2381 2643 2742 
Q 2381 3103 1925 3103 
Q 1469 3103 1208 2742 
Q 947 2381 947 1747 
z
M 2906 525 
Q 2725 213 2448 61 
Q 2172 -91 1784 -91 
Q 1150 -91 751 415 
Q 353 922 353 1747 
Q 353 2572 751 3078 
Q 1150 3584 1784 3584 
Q 2172 3584 2448 3432 
Q 2725 3281 2906 2969 
L 2906 3500 
L 3481 3500 
L 3481 -1331 
L 2906 -1331 
L 2906 525 
z
" transform="scale(0.015625)"/>
       <path id="DejaVuSans-75" d="M 544 1381 
L 544 3500 
L 1119 3500 
L 1119 1403 
Q 1119 906 1312 657 
Q 1506 409 1894 409 
Q 2359 409 2629 706 
Q 2900 1003 2900 1516 
L 2900 3500 
L 3475 3500 
L 3475 0 
L 2900 0 
L 2900 538 
Q 2691 219 2414 64 
Q 2138 -91 1772 -91 
Q 1169 -91 856 284 
Q 544 659 544 1381 
z
M 1991 3584 
L 1991 3584 
z
" transform="scale(0.015625)"/>
       <path id="DejaVuSans-6e" d="M 3513 2113 
L 3513 0 
L 2938 0 
L 2938 2094 
Q 2938 2591 2744 2837 
Q 2550 3084 2163 3084 
Q 1697 3084 1428 2787 
Q 1159 2491 1159 1978 
L 1159 0 
L 581 0 
L 581 3500 
L 1159 3500 
L 1159 2956 
Q 1366 3272 1645 3428 
Q 1925 3584 2291 3584 
Q 2894 3584 3203 3211 
Q 3513 2838 3513 2113 
z
" transform="scale(0.015625)"/>
       <path id="DejaVuSans-63" d="M 3122 3366 
L 3122 2828 
Q 2878 2963 2633 3030 
Q 2388 3097 2138 3097 
Q 1578 3097 1268 2742 
Q 959 2388 959 1747 
Q 959 1106 1268 751 
Q 1578 397 2138 397 
Q 2388 397 2633 464 
Q 2878 531 3122 666 
L 3122 134 
Q 2881 22 2623 -34 
Q 2366 -91 2075 -91 
Q 1284 -91 818 406 
Q 353 903 353 1747 
Q 353 2603 823 3093 
Q 1294 3584 2113 3584 
Q 2378 3584 2631 3529 
Q 2884 3475 3122 3366 
z
" transform="scale(0.015625)"/>
       <path id="DejaVuSans-79" d="M 2059 -325 
Q 1816 -950 1584 -1140 
Q 1353 -1331 966 -1331 
L 506 -1331 
L 506 -850 
L 844 -850 
Q 1081 -850 1212 -737 
Q 1344 -625 1503 -206 
L 1606 56 
L 191 3500 
L 800 3500 
L 1894 763 
L 2988 3500 
L 3597 3500 
L 2059 -325 
z
" transform="scale(0.015625)"/>
      </defs>
      <use xlink:href="#DejaVuSans-46"/>
      <use xlink:href="#DejaVuSans-72" x="50.269531"/>
      <use xlink:href="#DejaVuSans-65" x="89.132812"/>
      <use xlink:href="#DejaVuSans-71" x="150.65625"/>
      <use xlink:href="#DejaVuSans-75" x="214.132812"/>
      <use xlink:href="#DejaVuSans-65" x="277.511719"/>
      <use xlink:href="#DejaVuSans-6e" x="339.035156"/>
      <use xlink:href="#DejaVuSans-63" x="402.414062"/>
      <use xlink:href="#DejaVuSans-79" x="457.394531"/>
     </g>
    </g>
   </g>
   <g id="patch_130">
    <path d="M 46.965625 288.430125 
L 46.965625 22.318125 
" style="fill: none; stroke: #000000; stroke-width: 0.8; stroke-linejoin: miter; stroke-linecap: square"/>
   </g>
   <g id="patch_131">
    <path d="M 404.085625 288.430125 
L 404.085625 22.318125 
" style="fill: none; stroke: #000000; stroke-width: 0.8; stroke-linejoin: miter; stroke-linecap: square"/>
   </g>
   <g id="patch_132">
    <path d="M 46.965625 288.430125 
L 404.085625 288.430125 
" style="fill: none; stroke: #000000; stroke-width: 0.8; stroke-linejoin: miter; stroke-linecap: square"/>
   </g>
   <g id="patch_133">
    <path d="M 46.965625 22.318125 
L 404.085625 22.318125 
" style="fill: none; stroke: #000000; stroke-width: 0.8; stroke-linejoin: miter; stroke-linecap: square"/>
   </g>
   <g id="text_16">
    <!-- Distribution of velocity -->
    <g transform="translate(157.475313 16.318125) scale(0.12 -0.12)">
     <defs>
      <path id="DejaVuSans-44" d="M 1259 4147 
L 1259 519 
L 2022 519 
Q 2988 519 3436 956 
Q 3884 1394 3884 2338 
Q 3884 3275 3436 3711 
Q 2988 4147 2022 4147 
L 1259 4147 
z
M 628 4666 
L 1925 4666 
Q 3281 4666 3915 4102 
Q 4550 3538 4550 2338 
Q 4550 1131 3912 565 
Q 3275 0 1925 0 
L 628 0 
L 628 4666 
z
" transform="scale(0.015625)"/>
      <path id="DejaVuSans-69" d="M 603 3500 
L 1178 3500 
L 1178 0 
L 603 0 
L 603 3500 
z
M 603 4863 
L 1178 4863 
L 1178 4134 
L 603 4134 
L 603 4863 
z
" transform="scale(0.015625)"/>
      <path id="DejaVuSans-73" d="M 2834 3397 
L 2834 2853 
Q 2591 2978 2328 3040 
Q 2066 3103 1784 3103 
Q 1356 3103 1142 2972 
Q 928 2841 928 2578 
Q 928 2378 1081 2264 
Q 1234 2150 1697 2047 
L 1894 2003 
Q 2506 1872 2764 1633 
Q 3022 1394 3022 966 
Q 3022 478 2636 193 
Q 2250 -91 1575 -91 
Q 1294 -91 989 -36 
Q 684 19 347 128 
L 347 722 
Q 666 556 975 473 
Q 1284 391 1588 391 
Q 1994 391 2212 530 
Q 2431 669 2431 922 
Q 2431 1156 2273 1281 
Q 2116 1406 1581 1522 
L 1381 1569 
Q 847 1681 609 1914 
Q 372 2147 372 2553 
Q 372 3047 722 3315 
Q 1072 3584 1716 3584 
Q 2034 3584 2315 3537 
Q 2597 3491 2834 3397 
z
" transform="scale(0.015625)"/>
      <path id="DejaVuSans-74" d="M 1172 4494 
L 1172 3500 
L 2356 3500 
L 2356 3053 
L 1172 3053 
L 1172 1153 
Q 1172 725 1289 603 
Q 1406 481 1766 481 
L 2356 481 
L 2356 0 
L 1766 0 
Q 1100 0 847 248 
Q 594 497 594 1153 
L 594 3053 
L 172 3053 
L 172 3500 
L 594 3500 
L 594 4494 
L 1172 4494 
z
" transform="scale(0.015625)"/>
      <path id="DejaVuSans-62" d="M 3116 1747 
Q 3116 2381 2855 2742 
Q 2594 3103 2138 3103 
Q 1681 3103 1420 2742 
Q 1159 2381 1159 1747 
Q 1159 1113 1420 752 
Q 1681 391 2138 391 
Q 2594 391 2855 752 
Q 3116 1113 3116 1747 
z
M 1159 2969 
Q 1341 3281 1617 3432 
Q 1894 3584 2278 3584 
Q 2916 3584 3314 3078 
Q 3713 2572 3713 1747 
Q 3713 922 3314 415 
Q 2916 -91 2278 -91 
Q 1894 -91 1617 61 
Q 1341 213 1159 525 
L 1159 0 
L 581 0 
L 581 4863 
L 1159 4863 
L 1159 2969 
z
" transform="scale(0.015625)"/>
      <path id="DejaVuSans-6f" d="M 1959 3097 
Q 1497 3097 1228 2736 
Q 959 2375 959 1747 
Q 959 1119 1226 758 
Q 1494 397 1959 397 
Q 2419 397 2687 759 
Q 2956 1122 2956 1747 
Q 2956 2369 2687 2733 
Q 2419 3097 1959 3097 
z
M 1959 3584 
Q 2709 3584 3137 3096 
Q 3566 2609 3566 1747 
Q 3566 888 3137 398 
Q 2709 -91 1959 -91 
Q 1206 -91 779 398 
Q 353 888 353 1747 
Q 353 2609 779 3096 
Q 1206 3584 1959 3584 
z
" transform="scale(0.015625)"/>
      <path id="DejaVuSans-20" transform="scale(0.015625)"/>
      <path id="DejaVuSans-66" d="M 2375 4863 
L 2375 4384 
L 1825 4384 
Q 1516 4384 1395 4259 
Q 1275 4134 1275 3809 
L 1275 3500 
L 2222 3500 
L 2222 3053 
L 1275 3053 
L 1275 0 
L 697 0 
L 697 3053 
L 147 3053 
L 147 3500 
L 697 3500 
L 697 3744 
Q 697 4328 969 4595 
Q 1241 4863 1831 4863 
L 2375 4863 
z
" transform="scale(0.015625)"/>
      <path id="DejaVuSans-76" d="M 191 3500 
L 800 3500 
L 1894 563 
L 2988 3500 
L 3597 3500 
L 2284 0 
L 1503 0 
L 191 3500 
z
" transform="scale(0.015625)"/>
      <path id="DejaVuSans-6c" d="M 603 4863 
L 1178 4863 
L 1178 0 
L 603 0 
L 603 4863 
z
" transform="scale(0.015625)"/>
     </defs>
     <use xlink:href="#DejaVuSans-44"/>
     <use xlink:href="#DejaVuSans-69" x="77.001953"/>
     <use xlink:href="#DejaVuSans-73" x="104.785156"/>
     <use xlink:href="#DejaVuSans-74" x="156.884766"/>
     <use xlink:href="#DejaVuSans-72" x="196.09375"/>
     <use xlink:href="#DejaVuSans-69" x="237.207031"/>
     <use xlink:href="#DejaVuSans-62" x="264.990234"/>
     <use xlink:href="#DejaVuSans-75" x="328.466797"/>
     <use xlink:href="#DejaVuSans-74" x="391.845703"/>
     <use xlink:href="#DejaVuSans-69" x="431.054688"/>
     <use xlink:href="#DejaVuSans-6f" x="458.837891"/>
     <use xlink:href="#DejaVuSans-6e" x="520.019531"/>
     <use xlink:href="#DejaVuSans-20" x="583.398438"/>
     <use xlink:href="#DejaVuSans-6f" x="615.185547"/>
     <use xlink:href="#DejaVuSans-66" x="676.367188"/>
     <use xlink:href="#DejaVuSans-20" x="711.572266"/>
     <use xlink:href="#DejaVuSans-76" x="743.359375"/>
     <use xlink:href="#DejaVuSans-65" x="802.539062"/>
     <use xlink:href="#DejaVuSans-6c" x="864.0625"/>
     <use xlink:href="#DejaVuSans-6f" x="891.845703"/>
     <use xlink:href="#DejaVuSans-63" x="953.027344"/>
     <use xlink:href="#DejaVuSans-69" x="1008.007812"/>
     <use xlink:href="#DejaVuSans-74" x="1035.791016"/>
     <use xlink:href="#DejaVuSans-79" x="1075"/>
    </g>
   </g>
  </g>
 </g>
 <defs>
  <clipPath id="p03e3495c2f">
   <rect x="46.965625" y="22.318125" width="357.12" height="266.112"/>
  </clipPath>
 </defs>
</svg>