<?xml version="1.0" encoding="utf-8" standalone="no"?>
<!DOCTYPE svg PUBLIC "-//W3C//DTD SVG 1.1//EN"
  "http://www.w3.org/Graphics/SVG/1.1/DTD/svg11.dtd">
<svg xmlns:xlink="http://www.w3.org/1999/xlink" width="417.648125pt" height="312.30825pt" viewBox="0 0 417.648125 312.30825" xmlns="http://www.w3.org/2000/svg" version="1.1">
 <metadata>
  <rdf:RDF xmlns:dc="http://purl.org/dc/elements/1.1/" xmlns:cc="http://creativecommons.org/ns#" xmlns:rdf="http://www.w3.org/1999/02/22-rdf-syntax-ns#">
   <cc:Work>
    <dc:type rdf:resource="http://purl.org/dc/dcmitype/StillImage"/>
    <dc:date>2024-08-22T13:32:27.880848</dc:date>
    <dc:format>image/svg+xml</dc:format>
    <dc:creator>
     <cc:Agent>
      <dc:title>Matplotlib v3.8.4, https://matplotlib.org/</dc:title>
     </cc:Agent>
    </dc:creator>
   </cc:Work>
  </rdf:RDF>
 </metadata>
 <defs>
  <style type="text/css">*{stroke-linejoin: round; stroke-linecap: butt}</style>
 </defs>
 <g id="figure_1">
  <g id="patch_1">
   <path d="M 0 312.30825 
L 417.648125 312.30825 
L 417.648125 0 
L 0 0 
z
" style="fill: #ffffff"/>
  </g>
  <g id="axes_1">
   <g id="patch_2">
    <path d="M 53.328125 288.430125 
L 410.448125 288.430125 
L 410.448125 22.318125 
L 53.328125 22.318125 
z
" style="fill: #ffffff"/>
   </g>
   <g id="patch_3">
    <path d="M 69.560852 288.430125 
L 72.117187 288.430125 
L 72.117187 34.990125 
L 69.560852 34.990125 
z
" clip-path="url(#pe2c67f816d)" style="fill: #1f77b4"/>
   </g>
   <g id="patch_4">
    <path d="M 72.117187 288.430125 
L 74.673522 288.430125 
L 74.673522 288.430125 
L 72.117187 288.430125 
z
" clip-path="url(#pe2c67f816d)" style="fill: #1f77b4"/>
   </g>
   <g id="patch_5">
    <path d="M 74.673522 288.430125 
L 77.229857 288.430125 
L 77.229857 288.430125 
L 74.673522 288.430125 
z
" clip-path="url(#pe2c67f816d)" style="fill: #1f77b4"/>
   </g>
   <g id="patch_6">
    <path d="M 77.229857 288.430125 
L 79.786192 288.430125 
L 79.786192 288.303299 
L 77.229857 288.303299 
z
" clip-path="url(#pe2c67f816d)" style="fill: #1f77b4"/>
   </g>
   <g id="patch_7">
    <path d="M 79.786192 288.430125 
L 82.342527 288.430125 
L 82.342527 288.303299 
L 79.786192 288.303299 
z
" clip-path="url(#pe2c67f816d)" style="fill: #1f77b4"/>
   </g>
   <g id="patch_8">
    <path d="M 82.342527 288.430125 
L 84.898862 288.430125 
L 84.898862 288.303299 
L 82.342527 288.303299 
z
" clip-path="url(#pe2c67f816d)" style="fill: #1f77b4"/>
   </g>
   <g id="patch_9">
    <path d="M 84.898862 288.430125 
L 87.455197 288.430125 
L 87.455197 288.430125 
L 84.898862 288.430125 
z
" clip-path="url(#pe2c67f816d)" style="fill: #1f77b4"/>
   </g>
   <g id="patch_10">
    <path d="M 87.455197 288.430125 
L 90.011532 288.430125 
L 90.011532 288.345575 
L 87.455197 288.345575 
z
" clip-path="url(#pe2c67f816d)" style="fill: #1f77b4"/>
   </g>
   <g id="patch_11">
    <path d="M 90.011532 288.430125 
L 92.567867 288.430125 
L 92.567867 288.430125 
L 90.011532 288.430125 
z
" clip-path="url(#pe2c67f816d)" style="fill: #1f77b4"/>
   </g>
   <g id="patch_12">
    <path d="M 92.567867 288.430125 
L 95.124202 288.430125 
L 95.124202 288.261024 
L 92.567867 288.261024 
z
" clip-path="url(#pe2c67f816d)" style="fill: #1f77b4"/>
   </g>
   <g id="patch_13">
    <path d="M 95.124202 288.430125 
L 97.680537 288.430125 
L 97.680537 288.345575 
L 95.124202 288.345575 
z
" clip-path="url(#pe2c67f816d)" style="fill: #1f77b4"/>
   </g>
   <g id="patch_14">
    <path d="M 97.680537 288.430125 
L 100.236872 288.430125 
L 100.236872 288.345575 
L 97.680537 288.345575 
z
" clip-path="url(#pe2c67f816d)" style="fill: #1f77b4"/>
   </g>
   <g id="patch_15">
    <path d="M 100.236872 288.430125 
L 102.793207 288.430125 
L 102.793207 288.303299 
L 100.236872 288.303299 
z
" clip-path="url(#pe2c67f816d)" style="fill: #1f77b4"/>
   </g>
   <g id="patch_16">
    <path d="M 102.793207 288.430125 
L 105.349542 288.430125 
L 105.349542 288.303299 
L 102.793207 288.303299 
z
" clip-path="url(#pe2c67f816d)" style="fill: #1f77b4"/>
   </g>
   <g id="patch_17">
    <path d="M 105.349542 288.430125 
L 107.905877 288.430125 
L 107.905877 288.303299 
L 105.349542 288.303299 
z
" clip-path="url(#pe2c67f816d)" style="fill: #1f77b4"/>
   </g>
   <g id="patch_18">
    <path d="M 107.905877 288.430125 
L 110.462212 288.430125 
L 110.462212 288.303299 
L 107.905877 288.303299 
z
" clip-path="url(#pe2c67f816d)" style="fill: #1f77b4"/>
   </g>
   <g id="patch_19">
    <path d="M 110.462212 288.430125 
L 113.018547 288.430125 
L 113.018547 288.430125 
L 110.462212 288.430125 
z
" clip-path="url(#pe2c67f816d)" style="fill: #1f77b4"/>
   </g>
   <g id="patch_20">
    <path d="M 113.018547 288.430125 
L 115.574882 288.430125 
L 115.574882 288.430125 
L 113.018547 288.430125 
z
" clip-path="url(#pe2c67f816d)" style="fill: #1f77b4"/>
   </g>
   <g id="patch_21">
    <path d="M 115.574882 288.430125 
L 118.131217 288.430125 
L 118.131217 288.261024 
L 115.574882 288.261024 
z
" clip-path="url(#pe2c67f816d)" style="fill: #1f77b4"/>
   </g>
   <g id="patch_22">
    <path d="M 118.131217 288.430125 
L 120.687552 288.430125 
L 120.687552 288.38785 
L 118.131217 288.38785 
z
" clip-path="url(#pe2c67f816d)" style="fill: #1f77b4"/>
   </g>
   <g id="patch_23">
    <path d="M 120.687552 288.430125 
L 123.243887 288.430125 
L 123.243887 288.303299 
L 120.687552 288.303299 
z
" clip-path="url(#pe2c67f816d)" style="fill: #1f77b4"/>
   </g>
   <g id="patch_24">
    <path d="M 123.243887 288.430125 
L 125.800222 288.430125 
L 125.800222 288.345575 
L 123.243887 288.345575 
z
" clip-path="url(#pe2c67f816d)" style="fill: #1f77b4"/>
   </g>
   <g id="patch_25">
    <path d="M 125.800222 288.430125 
L 128.356557 288.430125 
L 128.356557 288.176474 
L 125.800222 288.176474 
z
" clip-path="url(#pe2c67f816d)" style="fill: #1f77b4"/>
   </g>
   <g id="patch_26">
    <path d="M 128.356557 288.430125 
L 130.912892 288.430125 
L 130.912892 288.261024 
L 128.356557 288.261024 
z
" clip-path="url(#pe2c67f816d)" style="fill: #1f77b4"/>
   </g>
   <g id="patch_27">
    <path d="M 130.912892 288.430125 
L 133.469227 288.430125 
L 133.469227 288.303299 
L 130.912892 288.303299 
z
" clip-path="url(#pe2c67f816d)" style="fill: #1f77b4"/>
   </g>
   <g id="patch_28">
    <path d="M 133.469227 288.430125 
L 136.025562 288.430125 
L 136.025562 288.430125 
L 133.469227 288.430125 
z
" clip-path="url(#pe2c67f816d)" style="fill: #1f77b4"/>
   </g>
   <g id="patch_29">
    <path d="M 136.025562 288.430125 
L 138.581897 288.430125 
L 138.581897 288.176474 
L 136.025562 288.176474 
z
" clip-path="url(#pe2c67f816d)" style="fill: #1f77b4"/>
   </g>
   <g id="patch_30">
    <path d="M 138.581897 288.430125 
L 141.138232 288.430125 
L 141.138232 288.134198 
L 138.581897 288.134198 
z
" clip-path="url(#pe2c67f816d)" style="fill: #1f77b4"/>
   </g>
   <g id="patch_31">
    <path d="M 141.138232 288.430125 
L 143.694567 288.430125 
L 143.694567 287.753721 
L 141.138232 287.753721 
z
" clip-path="url(#pe2c67f816d)" style="fill: #1f77b4"/>
   </g>
   <g id="patch_32">
    <path d="M 143.694567 288.430125 
L 146.250902 288.430125 
L 146.250902 287.965097 
L 143.694567 287.965097 
z
" clip-path="url(#pe2c67f816d)" style="fill: #1f77b4"/>
   </g>
   <g id="patch_33">
    <path d="M 146.250902 288.430125 
L 148.807237 288.430125 
L 148.807237 287.795997 
L 146.250902 287.795997 
z
" clip-path="url(#pe2c67f816d)" style="fill: #1f77b4"/>
   </g>
   <g id="patch_34">
    <path d="M 148.807237 288.430125 
L 151.363572 288.430125 
L 151.363572 287.542345 
L 148.807237 287.542345 
z
" clip-path="url(#pe2c67f816d)" style="fill: #1f77b4"/>
   </g>
   <g id="patch_35">
    <path d="M 151.363572 288.430125 
L 153.919907 288.430125 
L 153.919907 287.711446 
L 151.363572 287.711446 
z
" clip-path="url(#pe2c67f816d)" style="fill: #1f77b4"/>
   </g>
   <g id="patch_36">
    <path d="M 153.919907 288.430125 
L 156.476242 288.430125 
L 156.476242 288.430125 
L 153.919907 288.430125 
z
" clip-path="url(#pe2c67f816d)" style="fill: #1f77b4"/>
   </g>
   <g id="patch_37">
    <path d="M 156.476242 288.430125 
L 159.032577 288.430125 
L 159.032577 287.922822 
L 156.476242 287.922822 
z
" clip-path="url(#pe2c67f816d)" style="fill: #1f77b4"/>
   </g>
   <g id="patch_38">
    <path d="M 159.032577 288.430125 
L 161.588912 288.430125 
L 161.588912 287.542345 
L 159.032577 287.542345 
z
" clip-path="url(#pe2c67f816d)" style="fill: #1f77b4"/>
   </g>
   <g id="patch_39">
    <path d="M 161.588912 288.430125 
L 164.145247 288.430125 
L 164.145247 287.415519 
L 161.588912 287.415519 
z
" clip-path="url(#pe2c67f816d)" style="fill: #1f77b4"/>
   </g>
   <g id="patch_40">
    <path d="M 164.145247 288.430125 
L 166.701582 288.430125 
L 166.701582 286.654565 
L 164.145247 286.654565 
z
" clip-path="url(#pe2c67f816d)" style="fill: #1f77b4"/>
   </g>
   <g id="patch_41">
    <path d="M 166.701582 288.430125 
L 169.257917 288.430125 
L 169.257917 286.696841 
L 166.701582 286.696841 
z
" clip-path="url(#pe2c67f816d)" style="fill: #1f77b4"/>
   </g>
   <g id="patch_42">
    <path d="M 169.257917 288.430125 
L 171.814252 288.430125 
L 171.814252 286.61229 
L 169.257917 286.61229 
z
" clip-path="url(#pe2c67f816d)" style="fill: #1f77b4"/>
   </g>
   <g id="patch_43">
    <path d="M 171.814252 288.430125 
L 174.370587 288.430125 
L 174.370587 286.443189 
L 171.814252 286.443189 
z
" clip-path="url(#pe2c67f816d)" style="fill: #1f77b4"/>
   </g>
   <g id="patch_44">
    <path d="M 174.370587 288.430125 
L 176.926922 288.430125 
L 176.926922 285.851336 
L 174.370587 285.851336 
z
" clip-path="url(#pe2c67f816d)" style="fill: #1f77b4"/>
   </g>
   <g id="patch_45">
    <path d="M 176.926922 288.430125 
L 179.483257 288.430125 
L 179.483257 288.430125 
L 176.926922 288.430125 
z
" clip-path="url(#pe2c67f816d)" style="fill: #1f77b4"/>
   </g>
   <g id="patch_46">
    <path d="M 179.483257 288.430125 
L 182.039592 288.430125 
L 182.039592 286.104987 
L 179.483257 286.104987 
z
" clip-path="url(#pe2c67f816d)" style="fill: #1f77b4"/>
   </g>
   <g id="patch_47">
    <path d="M 182.039592 288.430125 
L 184.595927 288.430125 
L 184.595927 285.597685 
L 182.039592 285.597685 
z
" clip-path="url(#pe2c67f816d)" style="fill: #1f77b4"/>
   </g>
   <g id="patch_48">
    <path d="M 184.595927 288.430125 
L 187.152262 288.430125 
L 187.152262 285.682235 
L 184.595927 285.682235 
z
" clip-path="url(#pe2c67f816d)" style="fill: #1f77b4"/>
   </g>
   <g id="patch_49">
    <path d="M 187.152262 288.430125 
L 189.708597 288.430125 
L 189.708597 285.851336 
L 187.152262 285.851336 
z
" clip-path="url(#pe2c67f816d)" style="fill: #1f77b4"/>
   </g>
   <g id="patch_50">
    <path d="M 189.708597 288.430125 
L 192.264932 288.430125 
L 192.264932 285.174932 
L 189.708597 285.174932 
z
" clip-path="url(#pe2c67f816d)" style="fill: #1f77b4"/>
   </g>
   <g id="patch_51">
    <path d="M 192.264932 288.430125 
L 194.821267 288.430125 
L 194.821267 285.259483 
L 192.264932 285.259483 
z
" clip-path="url(#pe2c67f816d)" style="fill: #1f77b4"/>
   </g>
   <g id="patch_52">
    <path d="M 194.821267 288.430125 
L 197.377602 288.430125 
L 197.377602 284.879006 
L 194.821267 284.879006 
z
" clip-path="url(#pe2c67f816d)" style="fill: #1f77b4"/>
   </g>
   <g id="patch_53">
    <path d="M 197.377602 288.430125 
L 199.933937 288.430125 
L 199.933937 288.430125 
L 197.377602 288.430125 
z
" clip-path="url(#pe2c67f816d)" style="fill: #1f77b4"/>
   </g>
   <g id="patch_54">
    <path d="M 199.933937 288.430125 
L 202.490272 288.430125 
L 202.490272 284.709905 
L 199.933937 284.709905 
z
" clip-path="url(#pe2c67f816d)" style="fill: #1f77b4"/>
   </g>
   <g id="patch_55">
    <path d="M 202.490272 288.430125 
L 205.046607 288.430125 
L 205.046607 284.371703 
L 202.490272 284.371703 
z
" clip-path="url(#pe2c67f816d)" style="fill: #1f77b4"/>
   </g>
   <g id="patch_56">
    <path d="M 205.046607 288.430125 
L 207.602942 288.430125 
L 207.602942 284.456253 
L 205.046607 284.456253 
z
" clip-path="url(#pe2c67f816d)" style="fill: #1f77b4"/>
   </g>
   <g id="patch_57">
    <path d="M 207.602942 288.430125 
L 210.159277 288.430125 
L 210.159277 284.709905 
L 207.602942 284.709905 
z
" clip-path="url(#pe2c67f816d)" style="fill: #1f77b4"/>
   </g>
   <g id="patch_58">
    <path d="M 210.159277 288.430125 
L 212.715612 288.430125 
L 212.715612 284.202602 
L 210.159277 284.202602 
z
" clip-path="url(#pe2c67f816d)" style="fill: #1f77b4"/>
   </g>
   <g id="patch_59">
    <path d="M 212.715612 288.430125 
L 215.271947 288.430125 
L 215.271947 283.77985 
L 212.715612 283.77985 
z
" clip-path="url(#pe2c67f816d)" style="fill: #1f77b4"/>
   </g>
   <g id="patch_60">
    <path d="M 215.271947 288.430125 
L 217.828282 288.430125 
L 217.828282 284.413978 
L 215.271947 284.413978 
z
" clip-path="url(#pe2c67f816d)" style="fill: #1f77b4"/>
   </g>
   <g id="patch_61">
    <path d="M 217.828282 288.430125 
L 220.384617 288.430125 
L 220.384617 284.287153 
L 217.828282 284.287153 
z
" clip-path="url(#pe2c67f816d)" style="fill: #1f77b4"/>
   </g>
   <g id="patch_62">
    <path d="M 220.384617 288.430125 
L 222.940952 288.430125 
L 222.940952 288.430125 
L 220.384617 288.430125 
z
" clip-path="url(#pe2c67f816d)" style="fill: #1f77b4"/>
   </g>
   <g id="patch_63">
    <path d="M 222.940952 288.430125 
L 225.497287 288.430125 
L 225.497287 283.483923 
L 222.940952 283.483923 
z
" clip-path="url(#pe2c67f816d)" style="fill: #1f77b4"/>
   </g>
   <g id="patch_64">
    <path d="M 225.497287 288.430125 
L 228.053622 288.430125 
L 228.053622 283.991226 
L 225.497287 283.991226 
z
" clip-path="url(#pe2c67f816d)" style="fill: #1f77b4"/>
   </g>
   <g id="patch_65">
    <path d="M 228.053622 288.430125 
L 230.609957 288.430125 
L 230.609957 284.160327 
L 228.053622 284.160327 
z
" clip-path="url(#pe2c67f816d)" style="fill: #1f77b4"/>
   </g>
   <g id="patch_66">
    <path d="M 230.609957 288.430125 
L 233.166293 288.430125 
L 233.166293 284.709905 
L 230.609957 284.709905 
z
" clip-path="url(#pe2c67f816d)" style="fill: #1f77b4"/>
   </g>
   <g id="patch_67">
    <path d="M 233.166293 288.430125 
L 235.722628 288.430125 
L 235.722628 283.483923 
L 233.166293 283.483923 
z
" clip-path="url(#pe2c67f816d)" style="fill: #1f77b4"/>
   </g>
   <g id="patch_68">
    <path d="M 235.722628 288.430125 
L 238.278963 288.430125 
L 238.278963 284.202602 
L 235.722628 284.202602 
z
" clip-path="url(#pe2c67f816d)" style="fill: #1f77b4"/>
   </g>
   <g id="patch_69">
    <path d="M 238.278963 288.430125 
L 240.835298 288.430125 
L 240.835298 283.187997 
L 238.278963 283.187997 
z
" clip-path="url(#pe2c67f816d)" style="fill: #1f77b4"/>
   </g>
   <g id="patch_70">
    <path d="M 240.835298 288.430125 
L 243.391633 288.430125 
L 243.391633 288.430125 
L 240.835298 288.430125 
z
" clip-path="url(#pe2c67f816d)" style="fill: #1f77b4"/>
   </g>
   <g id="patch_71">
    <path d="M 243.391633 288.430125 
L 245.947968 288.430125 
L 245.947968 283.822125 
L 243.391633 283.822125 
z
" clip-path="url(#pe2c67f816d)" style="fill: #1f77b4"/>
   </g>
   <g id="patch_72">
    <path d="M 245.947968 288.430125 
L 248.504303 288.430125 
L 248.504303 283.77985 
L 245.947968 283.77985 
z
" clip-path="url(#pe2c67f816d)" style="fill: #1f77b4"/>
   </g>
   <g id="patch_73">
    <path d="M 248.504303 288.430125 
L 251.060638 288.430125 
L 251.060638 283.77985 
L 248.504303 283.77985 
z
" clip-path="url(#pe2c67f816d)" style="fill: #1f77b4"/>
   </g>
   <g id="patch_74">
    <path d="M 251.060638 288.430125 
L 253.616973 288.430125 
L 253.616973 283.061171 
L 251.060638 283.061171 
z
" clip-path="url(#pe2c67f816d)" style="fill: #1f77b4"/>
   </g>
   <g id="patch_75">
    <path d="M 253.616973 288.430125 
L 256.173308 288.430125 
L 256.173308 283.568474 
L 253.616973 283.568474 
z
" clip-path="url(#pe2c67f816d)" style="fill: #1f77b4"/>
   </g>
   <g id="patch_76">
    <path d="M 256.173308 288.430125 
L 258.729643 288.430125 
L 258.729643 282.807519 
L 256.173308 282.807519 
z
" clip-path="url(#pe2c67f816d)" style="fill: #1f77b4"/>
   </g>
   <g id="patch_77">
    <path d="M 258.729643 288.430125 
L 261.285978 288.430125 
L 261.285978 283.610749 
L 258.729643 283.610749 
z
" clip-path="url(#pe2c67f816d)" style="fill: #1f77b4"/>
   </g>
   <g id="patch_78">
    <path d="M 261.285978 288.430125 
L 263.842313 288.430125 
L 263.842313 282.765244 
L 261.285978 282.765244 
z
" clip-path="url(#pe2c67f816d)" style="fill: #1f77b4"/>
   </g>
   <g id="patch_79">
    <path d="M 263.842313 288.430125 
L 266.398648 288.430125 
L 266.398648 288.430125 
L 263.842313 288.430125 
z
" clip-path="url(#pe2c67f816d)" style="fill: #1f77b4"/>
   </g>
   <g id="patch_80">
    <path d="M 266.398648 288.430125 
L 268.954983 288.430125 
L 268.954983 283.314822 
L 266.398648 283.314822 
z
" clip-path="url(#pe2c67f816d)" style="fill: #1f77b4"/>
   </g>
   <g id="patch_81">
    <path d="M 268.954983 288.430125 
L 271.511318 288.430125 
L 271.511318 283.230272 
L 268.954983 283.230272 
z
" clip-path="url(#pe2c67f816d)" style="fill: #1f77b4"/>
   </g>
   <g id="patch_82">
    <path d="M 271.511318 288.430125 
L 274.067653 288.430125 
L 274.067653 282.97662 
L 271.511318 282.97662 
z
" clip-path="url(#pe2c67f816d)" style="fill: #1f77b4"/>
   </g>
   <g id="patch_83">
    <path d="M 274.067653 288.430125 
L 276.623988 288.430125 
L 276.623988 283.103446 
L 274.067653 283.103446 
z
" clip-path="url(#pe2c67f816d)" style="fill: #1f77b4"/>
   </g>
   <g id="patch_84">
    <path d="M 276.623988 288.430125 
L 279.180323 288.430125 
L 279.180323 283.061171 
L 276.623988 283.061171 
z
" clip-path="url(#pe2c67f816d)" style="fill: #1f77b4"/>
   </g>
   <g id="patch_85">
    <path d="M 279.180323 288.430125 
L 281.736658 288.430125 
L 281.736658 283.018896 
L 279.180323 283.018896 
z
" clip-path="url(#pe2c67f816d)" style="fill: #1f77b4"/>
   </g>
   <g id="patch_86">
    <path d="M 281.736658 288.430125 
L 284.292993 288.430125 
L 284.292993 283.822125 
L 281.736658 283.822125 
z
" clip-path="url(#pe2c67f816d)" style="fill: #1f77b4"/>
   </g>
   <g id="patch_87">
    <path d="M 284.292993 288.430125 
L 286.849328 288.430125 
L 286.849328 288.430125 
L 284.292993 288.430125 
z
" clip-path="url(#pe2c67f816d)" style="fill: #1f77b4"/>
   </g>
   <g id="patch_88">
    <path d="M 286.849328 288.430125 
L 289.405663 288.430125 
L 289.405663 283.526198 
L 286.849328 283.526198 
z
" clip-path="url(#pe2c67f816d)" style="fill: #1f77b4"/>
   </g>
   <g id="patch_89">
    <path d="M 289.405663 288.430125 
L 291.961998 288.430125 
L 291.961998 284.244877 
L 289.405663 284.244877 
z
" clip-path="url(#pe2c67f816d)" style="fill: #1f77b4"/>
   </g>
   <g id="patch_90">
    <path d="M 291.961998 288.430125 
L 294.518333 288.430125 
L 294.518333 283.145721 
L 291.961998 283.145721 
z
" clip-path="url(#pe2c67f816d)" style="fill: #1f77b4"/>
   </g>
   <g id="patch_91">
    <path d="M 294.518333 288.430125 
L 297.074668 288.430125 
L 297.074668 283.610749 
L 294.518333 283.610749 
z
" clip-path="url(#pe2c67f816d)" style="fill: #1f77b4"/>
   </g>
   <g id="patch_92">
    <path d="M 297.074668 288.430125 
L 299.631003 288.430125 
L 299.631003 282.89207 
L 297.074668 282.89207 
z
" clip-path="url(#pe2c67f816d)" style="fill: #1f77b4"/>
   </g>
   <g id="patch_93">
    <path d="M 299.631003 288.430125 
L 302.187338 288.430125 
L 302.187338 283.906675 
L 299.631003 283.906675 
z
" clip-path="url(#pe2c67f816d)" style="fill: #1f77b4"/>
   </g>
   <g id="patch_94">
    <path d="M 302.187338 288.430125 
L 304.743673 288.430125 
L 304.743673 284.244877 
L 302.187338 284.244877 
z
" clip-path="url(#pe2c67f816d)" style="fill: #1f77b4"/>
   </g>
   <g id="patch_95">
    <path d="M 304.743673 288.430125 
L 307.300008 288.430125 
L 307.300008 284.66763 
L 304.743673 284.66763 
z
" clip-path="url(#pe2c67f816d)" style="fill: #1f77b4"/>
   </g>
   <g id="patch_96">
    <path d="M 307.300008 288.430125 
L 309.856343 288.430125 
L 309.856343 288.430125 
L 307.300008 288.430125 
z
" clip-path="url(#pe2c67f816d)" style="fill: #1f77b4"/>
   </g>
   <g id="patch_97">
    <path d="M 309.856343 288.430125 
L 312.412678 288.430125 
L 312.412678 285.132657 
L 309.856343 285.132657 
z
" clip-path="url(#pe2c67f816d)" style="fill: #1f77b4"/>
   </g>
   <g id="patch_98">
    <path d="M 312.412678 288.430125 
L 314.969013 288.430125 
L 314.969013 285.344033 
L 312.412678 285.344033 
z
" clip-path="url(#pe2c67f816d)" style="fill: #1f77b4"/>
   </g>
   <g id="patch_99">
    <path d="M 314.969013 288.430125 
L 317.525348 288.430125 
L 317.525348 285.513134 
L 314.969013 285.513134 
z
" clip-path="url(#pe2c67f816d)" style="fill: #1f77b4"/>
   </g>
   <g id="patch_100">
    <path d="M 317.525348 288.430125 
L 320.081683 288.430125 
L 320.081683 284.963556 
L 317.525348 284.963556 
z
" clip-path="url(#pe2c67f816d)" style="fill: #1f77b4"/>
   </g>
   <g id="patch_101">
    <path d="M 320.081683 288.430125 
L 322.638018 288.430125 
L 322.638018 285.809061 
L 320.081683 285.809061 
z
" clip-path="url(#pe2c67f816d)" style="fill: #1f77b4"/>
   </g>
   <g id="patch_102">
    <path d="M 322.638018 288.430125 
L 325.194353 288.430125 
L 325.194353 286.358639 
L 322.638018 286.358639 
z
" clip-path="url(#pe2c67f816d)" style="fill: #1f77b4"/>
   </g>
   <g id="patch_103">
    <path d="M 325.194353 288.430125 
L 327.750688 288.430125 
L 327.750688 286.062712 
L 325.194353 286.062712 
z
" clip-path="url(#pe2c67f816d)" style="fill: #1f77b4"/>
   </g>
   <g id="patch_104">
    <path d="M 327.750688 288.430125 
L 330.307023 288.430125 
L 330.307023 288.430125 
L 327.750688 288.430125 
z
" clip-path="url(#pe2c67f816d)" style="fill: #1f77b4"/>
   </g>
   <g id="patch_105">
    <path d="M 330.307023 288.430125 
L 332.863358 288.430125 
L 332.863358 286.400914 
L 330.307023 286.400914 
z
" clip-path="url(#pe2c67f816d)" style="fill: #1f77b4"/>
   </g>
   <g id="patch_106">
    <path d="M 332.863358 288.430125 
L 335.419693 288.430125 
L 335.419693 286.570015 
L 332.863358 286.570015 
z
" clip-path="url(#pe2c67f816d)" style="fill: #1f77b4"/>
   </g>
   <g id="patch_107">
    <path d="M 335.419693 288.430125 
L 337.976028 288.430125 
L 337.976028 286.443189 
L 335.419693 286.443189 
z
" clip-path="url(#pe2c67f816d)" style="fill: #1f77b4"/>
   </g>
   <g id="patch_108">
    <path d="M 337.976028 288.430125 
L 340.532363 288.430125 
L 340.532363 286.570015 
L 337.976028 286.570015 
z
" clip-path="url(#pe2c67f816d)" style="fill: #1f77b4"/>
   </g>
   <g id="patch_109">
    <path d="M 340.532363 288.430125 
L 343.088698 288.430125 
L 343.088698 286.739116 
L 340.532363 286.739116 
z
" clip-path="url(#pe2c67f816d)" style="fill: #1f77b4"/>
   </g>
   <g id="patch_110">
    <path d="M 343.088698 288.430125 
L 345.645033 288.430125 
L 345.645033 287.119593 
L 343.088698 287.119593 
z
" clip-path="url(#pe2c67f816d)" style="fill: #1f77b4"/>
   </g>
   <g id="patch_111">
    <path d="M 345.645033 288.430125 
L 348.201368 288.430125 
L 348.201368 287.626896 
L 345.645033 287.626896 
z
" clip-path="url(#pe2c67f816d)" style="fill: #1f77b4"/>
   </g>
   <g id="patch_112">
    <path d="M 348.201368 288.430125 
L 350.757703 288.430125 
L 350.757703 287.330969 
L 348.201368 287.330969 
z
" clip-path="url(#pe2c67f816d)" style="fill: #1f77b4"/>
   </g>
   <g id="patch_113">
    <path d="M 350.757703 288.430125 
L 353.314038 288.430125 
L 353.314038 288.430125 
L 350.757703 288.430125 
z
" clip-path="url(#pe2c67f816d)" style="fill: #1f77b4"/>
   </g>
   <g id="patch_114">
    <path d="M 353.314038 288.430125 
L 355.870373 288.430125 
L 355.870373 287.457795 
L 353.314038 287.457795 
z
" clip-path="url(#pe2c67f816d)" style="fill: #1f77b4"/>
   </g>
   <g id="patch_115">
    <path d="M 355.870373 288.430125 
L 358.426708 288.430125 
L 358.426708 287.922822 
L 355.870373 287.922822 
z
" clip-path="url(#pe2c67f816d)" style="fill: #1f77b4"/>
   </g>
   <g id="patch_116">
    <path d="M 358.426708 288.430125 
L 360.983043 288.430125 
L 360.983043 287.880547 
L 358.426708 287.880547 
z
" clip-path="url(#pe2c67f816d)" style="fill: #1f77b4"/>
   </g>
   <g id="patch_117">
    <path d="M 360.983043 288.430125 
L 363.539378 288.430125 
L 363.539378 288.176474 
L 360.983043 288.176474 
z
" clip-path="url(#pe2c67f816d)" style="fill: #1f77b4"/>
   </g>
   <g id="patch_118">
    <path d="M 363.539378 288.430125 
L 366.095713 288.430125 
L 366.095713 288.261024 
L 363.539378 288.261024 
z
" clip-path="url(#pe2c67f816d)" style="fill: #1f77b4"/>
   </g>
   <g id="patch_119">
    <path d="M 366.095713 288.430125 
L 368.652048 288.430125 
L 368.652048 288.218749 
L 366.095713 288.218749 
z
" clip-path="url(#pe2c67f816d)" style="fill: #1f77b4"/>
   </g>
   <g id="patch_120">
    <path d="M 368.652048 288.430125 
L 371.208383 288.430125 
L 371.208383 288.091923 
L 368.652048 288.091923 
z
" clip-path="url(#pe2c67f816d)" style="fill: #1f77b4"/>
   </g>
   <g id="patch_121">
    <path d="M 371.208383 288.430125 
L 373.764718 288.430125 
L 373.764718 288.430125 
L 371.208383 288.430125 
z
" clip-path="url(#pe2c67f816d)" style="fill: #1f77b4"/>
   </g>
   <g id="patch_122">
    <path d="M 373.764718 288.430125 
L 376.321053 288.430125 
L 376.321053 288.303299 
L 373.764718 288.303299 
z
" clip-path="url(#pe2c67f816d)" style="fill: #1f77b4"/>
   </g>
   <g id="patch_123">
    <path d="M 376.321053 288.430125 
L 378.877388 288.430125 
L 378.877388 288.134198 
L 376.321053 288.134198 
z
" clip-path="url(#pe2c67f816d)" style="fill: #1f77b4"/>
   </g>
   <g id="patch_124">
    <path d="M 378.877388 288.430125 
L 381.433723 288.430125 
L 381.433723 288.38785 
L 378.877388 288.38785 
z
" clip-path="url(#pe2c67f816d)" style="fill: #1f77b4"/>
   </g>
   <g id="patch_125">
    <path d="M 381.433723 288.430125 
L 383.990058 288.430125 
L 383.990058 288.345575 
L 381.433723 288.345575 
z
" clip-path="url(#pe2c67f816d)" style="fill: #1f77b4"/>
   </g>
   <g id="patch_126">
    <path d="M 383.990058 288.430125 
L 386.546393 288.430125 
L 386.546393 288.345575 
L 383.990058 288.345575 
z
" clip-path="url(#pe2c67f816d)" style="fill: #1f77b4"/>
   </g>
   <g id="patch_127">
    <path d="M 386.546393 288.430125 
L 389.102728 288.430125 
L 389.102728 288.430125 
L 386.546393 288.430125 
z
" clip-path="url(#pe2c67f816d)" style="fill: #1f77b4"/>
   </g>
   <g id="patch_128">
    <path d="M 389.102728 288.430125 
L 391.659063 288.430125 
L 391.659063 288.345575 
L 389.102728 288.345575 
z
" clip-path="url(#pe2c67f816d)" style="fill: #1f77b4"/>
   </g>
   <g id="patch_129">
    <path d="M 391.659063 288.430125 
L 394.215398 288.430125 
L 394.215398 288.38785 
L 391.659063 288.38785 
z
" clip-path="url(#pe2c67f816d)" style="fill: #1f77b4"/>
   </g>
   <g id="matplotlib.axis_1">
    <g id="xtick_1">
     <g id="line2d_1">
      <defs>
       <path id="mce7a97d928" d="M 0 0 
L 0 3.5 
" style="stroke: #000000; stroke-width: 0.8"/>
      </defs>
      <g>
       <use xlink:href="#mce7a97d928" x="69.560852" y="288.430125" style="stroke: #000000; stroke-width: 0.8"/>
      </g>
     </g>
     <g id="text_1">
      <!-- 0 -->
      <g transform="translate(66.379602 303.028562) scale(0.1 -0.1)">
       <defs>
        <path id="DejaVuSans-30" d="M 2034 4250 
Q 1547 4250 1301 3770 
Q 1056 3291 1056 2328 
Q 1056 1369 1301 889 
Q 1547 409 2034 409 
Q 2525 409 2770 889 
Q 3016 1369 3016 2328 
Q 3016 3291 2770 3770 
Q 2525 4250 2034 4250 
z
M 2034 4750 
Q 2819 4750 3233 4129 
Q 3647 3509 3647 2328 
Q 3647 1150 3233 529 
Q 2819 -91 2034 -91 
Q 1250 -91 836 529 
Q 422 1150 422 2328 
Q 422 3509 836 4129 
Q 1250 4750 2034 4750 
z
" transform="scale(0.015625)"/>
       </defs>
       <use xlink:href="#DejaVuSans-30"/>
      </g>
     </g>
    </g>
    <g id="xtick_2">
     <g id="line2d_2">
      <g>
       <use xlink:href="#mce7a97d928" x="127.534878" y="288.430125" style="stroke: #000000; stroke-width: 0.8"/>
      </g>
     </g>
     <g id="text_2">
      <!-- 20 -->
      <g transform="translate(121.172378 303.028562) scale(0.1 -0.1)">
       <defs>
        <path id="DejaVuSans-32" d="M 1228 531 
L 3431 531 
L 3431 0 
L 469 0 
L 469 531 
Q 828 903 1448 1529 
Q 2069 2156 2228 2338 
Q 2531 2678 2651 2914 
Q 2772 3150 2772 3378 
Q 2772 3750 2511 3984 
Q 2250 4219 1831 4219 
Q 1534 4219 1204 4116 
Q 875 4013 500 3803 
L 500 4441 
Q 881 4594 1212 4672 
Q 1544 4750 1819 4750 
Q 2544 4750 2975 4387 
Q 3406 4025 3406 3419 
Q 3406 3131 3298 2873 
Q 3191 2616 2906 2266 
Q 2828 2175 2409 1742 
Q 1991 1309 1228 531 
z
" transform="scale(0.015625)"/>
       </defs>
       <use xlink:href="#DejaVuSans-32"/>
       <use xlink:href="#DejaVuSans-30" x="63.623047"/>
      </g>
     </g>
    </g>
    <g id="xtick_3">
     <g id="line2d_3">
      <g>
       <use xlink:href="#mce7a97d928" x="185.508904" y="288.430125" style="stroke: #000000; stroke-width: 0.8"/>
      </g>
     </g>
     <g id="text_3">
      <!-- 40 -->
      <g transform="translate(179.146404 303.028562) scale(0.1 -0.1)">
       <defs>
        <path id="DejaVuSans-34" d="M 2419 4116 
L 825 1625 
L 2419 1625 
L 2419 4116 
z
M 2253 4666 
L 3047 4666 
L 3047 1625 
L 3713 1625 
L 3713 1100 
L 3047 1100 
L 3047 0 
L 2419 0 
L 2419 1100 
L 313 1100 
L 313 1709 
L 2253 4666 
z
" transform="scale(0.015625)"/>
       </defs>
       <use xlink:href="#DejaVuSans-34"/>
       <use xlink:href="#DejaVuSans-30" x="63.623047"/>
      </g>
     </g>
    </g>
    <g id="xtick_4">
     <g id="line2d_4">
      <g>
       <use xlink:href="#mce7a97d928" x="243.48293" y="288.430125" style="stroke: #000000; stroke-width: 0.8"/>
      </g>
     </g>
     <g id="text_4">
      <!-- 60 -->
      <g transform="translate(237.12043 303.028562) scale(0.1 -0.1)">
       <defs>
        <path id="DejaVuSans-36" d="M 2113 2584 
Q 1688 2584 1439 2293 
Q 1191 2003 1191 1497 
Q 1191 994 1439 701 
Q 1688 409 2113 409 
Q 2538 409 2786 701 
Q 3034 994 3034 1497 
Q 3034 2003 2786 2293 
Q 2538 2584 2113 2584 
z
M 3366 4563 
L 3366 3988 
Q 3128 4100 2886 4159 
Q 2644 4219 2406 4219 
Q 1781 4219 1451 3797 
Q 1122 3375 1075 2522 
Q 1259 2794 1537 2939 
Q 1816 3084 2150 3084 
Q 2853 3084 3261 2657 
Q 3669 2231 3669 1497 
Q 3669 778 3244 343 
Q 2819 -91 2113 -91 
Q 1303 -91 875 529 
Q 447 1150 447 2328 
Q 447 3434 972 4092 
Q 1497 4750 2381 4750 
Q 2619 4750 2861 4703 
Q 3103 4656 3366 4563 
z
" transform="scale(0.015625)"/>
       </defs>
       <use xlink:href="#DejaVuSans-36"/>
       <use xlink:href="#DejaVuSans-30" x="63.623047"/>
      </g>
     </g>
    </g>
    <g id="xtick_5">
     <g id="line2d_5">
      <g>
       <use xlink:href="#mce7a97d928" x="301.456956" y="288.430125" style="stroke: #000000; stroke-width: 0.8"/>
      </g>
     </g>
     <g id="text_5">
      <!-- 80 -->
      <g transform="translate(295.094456 303.028562) scale(0.1 -0.1)">
       <defs>
        <path id="DejaVuSans-38" d="M 2034 2216 
Q 1584 2216 1326 1975 
Q 1069 1734 1069 1313 
Q 1069 891 1326 650 
Q 1584 409 2034 409 
Q 2484 409 2743 651 
Q 3003 894 3003 1313 
Q 3003 1734 2745 1975 
Q 2488 2216 2034 2216 
z
M 1403 2484 
Q 997 2584 770 2862 
Q 544 3141 544 3541 
Q 544 4100 942 4425 
Q 1341 4750 2034 4750 
Q 2731 4750 3128 4425 
Q 3525 4100 3525 3541 
Q 3525 3141 3298 2862 
Q 3072 2584 2669 2484 
Q 3125 2378 3379 2068 
Q 3634 1759 3634 1313 
Q 3634 634 3220 271 
Q 2806 -91 2034 -91 
Q 1263 -91 848 271 
Q 434 634 434 1313 
Q 434 1759 690 2068 
Q 947 2378 1403 2484 
z
M 1172 3481 
Q 1172 3119 1398 2916 
Q 1625 2713 2034 2713 
Q 2441 2713 2670 2916 
Q 2900 3119 2900 3481 
Q 2900 3844 2670 4047 
Q 2441 4250 2034 4250 
Q 1625 4250 1398 4047 
Q 1172 3844 1172 3481 
z
" transform="scale(0.015625)"/>
       </defs>
       <use xlink:href="#DejaVuSans-38"/>
       <use xlink:href="#DejaVuSans-30" x="63.623047"/>
      </g>
     </g>
    </g>
    <g id="xtick_6">
     <g id="line2d_6">
      <g>
       <use xlink:href="#mce7a97d928" x="359.430982" y="288.430125" style="stroke: #000000; stroke-width: 0.8"/>
      </g>
     </g>
     <g id="text_6">
      <!-- 100 -->
      <g transform="translate(349.887232 303.028562) scale(0.1 -0.1)">
       <defs>
        <path id="DejaVuSans-31" d="M 794 531 
L 1825 531 
L 1825 4091 
L 703 3866 
L 703 4441 
L 1819 4666 
L 2450 4666 
L 2450 531 
L 3481 531 
L 3481 0 
L 794 0 
L 794 531 
z
" transform="scale(0.015625)"/>
       </defs>
       <use xlink:href="#DejaVuSans-31"/>
       <use xlink:href="#DejaVuSans-30" x="63.623047"/>
       <use xlink:href="#DejaVuSans-30" x="127.246094"/>
      </g>
     </g>
    </g>
   </g>
   <g id="matplotlib.axis_2">
    <g id="ytick_1">
     <g id="line2d_7">
      <defs>
       <path id="me4be74ddc9" d="M 0 0 
L -3.5 0 
" style="stroke: #000000; stroke-width: 0.8"/>
      </defs>
      <g>
       <use xlink:href="#me4be74ddc9" x="53.328125" y="288.430125" style="stroke: #000000; stroke-width: 0.8"/>
      </g>
     </g>
     <g id="text_7">
      <!-- 0 -->
      <g transform="translate(39.965625 292.229344) scale(0.1 -0.1)">
       <use xlink:href="#DejaVuSans-30"/>
      </g>
     </g>
    </g>
    <g id="ytick_2">
     <g id="line2d_8">
      <g>
       <use xlink:href="#me4be74ddc9" x="53.328125" y="246.154896" style="stroke: #000000; stroke-width: 0.8"/>
      </g>
     </g>
     <g id="text_8">
      <!-- 1000 -->
      <g transform="translate(20.878125 249.954114) scale(0.1 -0.1)">
       <use xlink:href="#DejaVuSans-31"/>
       <use xlink:href="#DejaVuSans-30" x="63.623047"/>
       <use xlink:href="#DejaVuSans-30" x="127.246094"/>
       <use xlink:href="#DejaVuSans-30" x="190.869141"/>
      </g>
     </g>
    </g>
    <g id="ytick_3">
     <g id="line2d_9">
      <g>
       <use xlink:href="#me4be74ddc9" x="53.328125" y="203.879666" style="stroke: #000000; stroke-width: 0.8"/>
      </g>
     </g>
     <g id="text_9">
      <!-- 2000 -->
      <g transform="translate(20.878125 207.678885) scale(0.1 -0.1)">
       <use xlink:href="#DejaVuSans-32"/>
       <use xlink:href="#DejaVuSans-30" x="63.623047"/>
       <use xlink:href="#DejaVuSans-30" x="127.246094"/>
       <use xlink:href="#DejaVuSans-30" x="190.869141"/>
      </g>
     </g>
    </g>
    <g id="ytick_4">
     <g id="line2d_10">
      <g>
       <use xlink:href="#me4be74ddc9" x="53.328125" y="161.604437" style="stroke: #000000; stroke-width: 0.8"/>
      </g>
     </g>
     <g id="text_10">
      <!-- 3000 -->
      <g transform="translate(20.878125 165.403656) scale(0.1 -0.1)">
       <defs>
        <path id="DejaVuSans-33" d="M 2597 2516 
Q 3050 2419 3304 2112 
Q 3559 1806 3559 1356 
Q 3559 666 3084 287 
Q 2609 -91 1734 -91 
Q 1441 -91 1130 -33 
Q 819 25 488 141 
L 488 750 
Q 750 597 1062 519 
Q 1375 441 1716 441 
Q 2309 441 2620 675 
Q 2931 909 2931 1356 
Q 2931 1769 2642 2001 
Q 2353 2234 1838 2234 
L 1294 2234 
L 1294 2753 
L 1863 2753 
Q 2328 2753 2575 2939 
Q 2822 3125 2822 3475 
Q 2822 3834 2567 4026 
Q 2313 4219 1838 4219 
Q 1578 4219 1281 4162 
Q 984 4106 628 3988 
L 628 4550 
Q 988 4650 1302 4700 
Q 1616 4750 1894 4750 
Q 2613 4750 3031 4423 
Q 3450 4097 3450 3541 
Q 3450 3153 3228 2886 
Q 3006 2619 2597 2516 
z
" transform="scale(0.015625)"/>
       </defs>
       <use xlink:href="#DejaVuSans-33"/>
       <use xlink:href="#DejaVuSans-30" x="63.623047"/>
       <use xlink:href="#DejaVuSans-30" x="127.246094"/>
       <use xlink:href="#DejaVuSans-30" x="190.869141"/>
      </g>
     </g>
    </g>
    <g id="ytick_5">
     <g id="line2d_11">
      <g>
       <use xlink:href="#me4be74ddc9" x="53.328125" y="119.329208" style="stroke: #000000; stroke-width: 0.8"/>
      </g>
     </g>
     <g id="text_11">
      <!-- 4000 -->
      <g transform="translate(20.878125 123.128426) scale(0.1 -0.1)">
       <use xlink:href="#DejaVuSans-34"/>
       <use xlink:href="#DejaVuSans-30" x="63.623047"/>
       <use xlink:href="#DejaVuSans-30" x="127.246094"/>
       <use xlink:href="#DejaVuSans-30" x="190.869141"/>
      </g>
     </g>
    </g>
    <g id="ytick_6">
     <g id="line2d_12">
      <g>
       <use xlink:href="#me4be74ddc9" x="53.328125" y="77.053978" style="stroke: #000000; stroke-width: 0.8"/>
      </g>
     </g>
     <g id="text_12">
      <!-- 5000 -->
      <g transform="translate(20.878125 80.853197) scale(0.1 -0.1)">
       <defs>
        <path id="DejaVuSans-35" d="M 691 4666 
L 3169 4666 
L 3169 4134 
L 1269 4134 
L 1269 2991 
Q 1406 3038 1543 3061 
Q 1681 3084 1819 3084 
Q 2600 3084 3056 2656 
Q 3513 2228 3513 1497 
Q 3513 744 3044 326 
Q 2575 -91 1722 -91 
Q 1428 -91 1123 -41 
Q 819 9 494 109 
L 494 744 
Q 775 591 1075 516 
Q 1375 441 1709 441 
Q 2250 441 2565 725 
Q 2881 1009 2881 1497 
Q 2881 1984 2565 2268 
Q 2250 2553 1709 2553 
Q 1456 2553 1204 2497 
Q 953 2441 691 2322 
L 691 4666 
z
" transform="scale(0.015625)"/>
       </defs>
       <use xlink:href="#DejaVuSans-35"/>
       <use xlink:href="#DejaVuSans-30" x="63.623047"/>
       <use xlink:href="#DejaVuSans-30" x="127.246094"/>
       <use xlink:href="#DejaVuSans-30" x="190.869141"/>
      </g>
     </g>
    </g>
    <g id="ytick_7">
     <g id="line2d_13">
      <g>
       <use xlink:href="#me4be74ddc9" x="53.328125" y="34.778749" style="stroke: #000000; stroke-width: 0.8"/>
      </g>
     </g>
     <g id="text_13">
      <!-- 6000 -->
      <g transform="translate(20.878125 38.577968) scale(0.1 -0.1)">
       <use xlink:href="#DejaVuSans-36"/>
       <use xlink:href="#DejaVuSans-30" x="63.623047"/>
       <use xlink:href="#DejaVuSans-30" x="127.246094"/>
       <use xlink:href="#DejaVuSans-30" x="190.869141"/>
      </g>
     </g>
    </g>
    <g id="text_14">
     <!-- Frequency -->
     <g transform="translate(14.798438 181.203812) rotate(-90) scale(0.1 -0.1)">
      <defs>
       <path id="DejaVuSans-46" d="M 628 4666 
L 3309 4666 
L 3309 4134 
L 1259 4134 
L 1259 2759 
L 3109 2759 
L 3109 2228 
L 1259 2228 
L 1259 0 
L 628 0 
L 628 4666 
z
" transform="scale(0.015625)"/>
       <path id="DejaVuSans-72" d="M 2631 2963 
Q 2534 3019 2420 3045 
Q 2306 3072 2169 3072 
Q 1681 3072 1420 2755 
Q 1159 2438 1159 1844 
L 1159 0 
L 581 0 
L 581 3500 
L 1159 3500 
L 1159 2956 
Q 1341 3275 1631 3429 
Q 1922 3584 2338 3584 
Q 2397 3584 2469 3576 
Q 2541 3569 2628 3553 
L 2631 2963 
z
" transform="scale(0.015625)"/>
       <path id="DejaVuSans-65" d="M 3597 1894 
L 3597 1613 
L 953 1613 
Q 991 1019 1311 708 
Q 1631 397 2203 397 
Q 2534 397 2845 478 
Q 3156 559 3463 722 
L 3463 178 
Q 3153 47 2828 -22 
Q 2503 -91 2169 -91 
Q 1331 -91 842 396 
Q 353 884 353 1716 
Q 353 2575 817 3079 
Q 1281 3584 2069 3584 
Q 2775 3584 3186 3129 
Q 3597 2675 3597 1894 
z
M 3022 2063 
Q 3016 2534 2758 2815 
Q 2500 3097 2075 3097 
Q 1594 3097 1305 2825 
Q 1016 2553 972 2059 
L 3022 2063 
z
" transform="scale(0.015625)"/>
       <path id="DejaVuSans-71" d="M 947 1747 
Q 947 1113 1208 752 
Q 1469 391 1925 391 
Q 2381 391 2643 752 
Q 2906 1113 2906 1747 
Q 2906 2381 2643 2742 
Q 2381 3103 1925 3103 
Q 1469 3103 1208 2742 
Q 947 2381 947 1747 
z
M 2906 525 
Q 2725 213 2448 61 
Q 2172 -91 1784 -91 
Q 1150 -91 751 415 
Q 353 922 353 1747 
Q 353 2572 751 3078 
Q 1150 3584 1784 3584 
Q 2172 3584 2448 3432 
Q 2725 3281 2906 2969 
L 2906 3500 
L 3481 3500 
L 3481 -1331 
L 2906 -1331 
L 2906 525 
z
" transform="scale(0.015625)"/>
       <path id="DejaVuSans-75" d="M 544 1381 
L 544 3500 
L 1119 3500 
L 1119 1403 
Q 1119 906 1312 657 
Q 1506 409 1894 409 
Q 2359 409 2629 706 
Q 2900 1003 2900 1516 
L 2900 3500 
L 3475 3500 
L 3475 0 
L 2900 0 
L 2900 538 
Q 2691 219 2414 64 
Q 2138 -91 1772 -91 
Q 1169 -91 856 284 
Q 544 659 544 1381 
z
M 1991 3584 
L 1991 3584 
z
" transform="scale(0.015625)"/>
       <path id="DejaVuSans-6e" d="M 3513 2113 
L 3513 0 
L 2938 0 
L 2938 2094 
Q 2938 2591 2744 2837 
Q 2550 3084 2163 3084 
Q 1697 3084 1428 2787 
Q 1159 2491 1159 1978 
L 1159 0 
L 581 0 
L 581 3500 
L 1159 3500 
L 1159 2956 
Q 1366 3272 1645 3428 
Q 1925 3584 2291 3584 
Q 2894 3584 3203 3211 
Q 3513 2838 3513 2113 
z
" transform="scale(0.015625)"/>
       <path id="DejaVuSans-63" d="M 3122 3366 
L 3122 2828 
Q 2878 2963 2633 3030 
Q 2388 3097 2138 3097 
Q 1578 3097 1268 2742 
Q 959 2388 959 1747 
Q 959 1106 1268 751 
Q 1578 397 2138 397 
Q 2388 397 2633 464 
Q 2878 531 3122 666 
L 3122 134 
Q 2881 22 2623 -34 
Q 2366 -91 2075 -91 
Q 1284 -91 818 406 
Q 353 903 353 1747 
Q 353 2603 823 3093 
Q 1294 3584 2113 3584 
Q 2378 3584 2631 3529 
Q 2884 3475 3122 3366 
z
" transform="scale(0.015625)"/>
       <path id="DejaVuSans-79" d="M 2059 -325 
Q 1816 -950 1584 -1140 
Q 1353 -1331 966 -1331 
L 506 -1331 
L 506 -850 
L 844 -850 
Q 1081 -850 1212 -737 
Q 1344 -625 1503 -206 
L 1606 56 
L 191 3500 
L 800 3500 
L 1894 763 
L 2988 3500 
L 3597 3500 
L 2059 -325 
z
" transform="scale(0.015625)"/>
      </defs>
      <use xlink:href="#DejaVuSans-46"/>
      <use xlink:href="#DejaVuSans-72" x="50.269531"/>
      <use xlink:href="#DejaVuSans-65" x="89.132812"/>
      <use xlink:href="#DejaVuSans-71" x="150.65625"/>
      <use xlink:href="#DejaVuSans-75" x="214.132812"/>
      <use xlink:href="#DejaVuSans-65" x="277.511719"/>
      <use xlink:href="#DejaVuSans-6e" x="339.035156"/>
      <use xlink:href="#DejaVuSans-63" x="402.414062"/>
      <use xlink:href="#DejaVuSans-79" x="457.394531"/>
     </g>
    </g>
   </g>
   <g id="patch_130">
    <path d="M 53.328125 288.430125 
L 53.328125 22.318125 
" style="fill: none; stroke: #000000; stroke-width: 0.8; stroke-linejoin: miter; stroke-linecap: square"/>
   </g>
   <g id="patch_131">
    <path d="M 410.448125 288.430125 
L 410.448125 22.318125 
" style="fill: none; stroke: #000000; stroke-width: 0.8; stroke-linejoin: miter; stroke-linecap: square"/>
   </g>
   <g id="patch_132">
    <path d="M 53.328125 288.430125 
L 410.448125 288.430125 
" style="fill: none; stroke: #000000; stroke-width: 0.8; stroke-linejoin: miter; stroke-linecap: square"/>
   </g>
   <g id="patch_133">
    <path d="M 53.328125 22.318125 
L 410.448125 22.318125 
" style="fill: none; stroke: #000000; stroke-width: 0.8; stroke-linejoin: miter; stroke-linecap: square"/>
   </g>
   <g id="text_15">
    <!-- Distribution of velocity -->
    <g transform="translate(163.837813 16.318125) scale(0.12 -0.12)">
     <defs>
      <path id="DejaVuSans-44" d="M 1259 4147 
L 1259 519 
L 2022 519 
Q 2988 519 3436 956 
Q 3884 1394 3884 2338 
Q 3884 3275 3436 3711 
Q 2988 4147 2022 4147 
L 1259 4147 
z
M 628 4666 
L 1925 4666 
Q 3281 4666 3915 4102 
Q 4550 3538 4550 2338 
Q 4550 1131 3912 565 
Q 3275 0 1925 0 
L 628 0 
L 628 4666 
z
" transform="scale(0.015625)"/>
      <path id="DejaVuSans-69" d="M 603 3500 
L 1178 3500 
L 1178 0 
L 603 0 
L 603 3500 
z
M 603 4863 
L 1178 4863 
L 1178 4134 
L 603 4134 
L 603 4863 
z
" transform="scale(0.015625)"/>
      <path id="DejaVuSans-73" d="M 2834 3397 
L 2834 2853 
Q 2591 2978 2328 3040 
Q 2066 3103 1784 3103 
Q 1356 3103 1142 2972 
Q 928 2841 928 2578 
Q 928 2378 1081 2264 
Q 1234 2150 1697 2047 
L 1894 2003 
Q 2506 1872 2764 1633 
Q 3022 1394 3022 966 
Q 3022 478 2636 193 
Q 2250 -91 1575 -91 
Q 1294 -91 989 -36 
Q 684 19 347 128 
L 347 722 
Q 666 556 975 473 
Q 1284 391 1588 391 
Q 1994 391 2212 530 
Q 2431 669 2431 922 
Q 2431 1156 2273 1281 
Q 2116 1406 1581 1522 
L 1381 1569 
Q 847 1681 609 1914 
Q 372 2147 372 2553 
Q 372 3047 722 3315 
Q 1072 3584 1716 3584 
Q 2034 3584 2315 3537 
Q 2597 3491 2834 3397 
z
" transform="scale(0.015625)"/>
      <path id="DejaVuSans-74" d="M 1172 4494 
L 1172 3500 
L 2356 3500 
L 2356 3053 
L 1172 3053 
L 1172 1153 
Q 1172 725 1289 603 
Q 1406 481 1766 481 
L 2356 481 
L 2356 0 
L 1766 0 
Q 1100 0 847 248 
Q 594 497 594 1153 
L 594 3053 
L 172 3053 
L 172 3500 
L 594 3500 
L 594 4494 
L 1172 4494 
z
" transform="scale(0.015625)"/>
      <path id="DejaVuSans-62" d="M 3116 1747 
Q 3116 2381 2855 2742 
Q 2594 3103 2138 3103 
Q 1681 3103 1420 2742 
Q 1159 2381 1159 1747 
Q 1159 1113 1420 752 
Q 1681 391 2138 391 
Q 2594 391 2855 752 
Q 3116 1113 3116 1747 
z
M 1159 2969 
Q 1341 3281 1617 3432 
Q 1894 3584 2278 3584 
Q 2916 3584 3314 3078 
Q 3713 2572 3713 1747 
Q 3713 922 3314 415 
Q 2916 -91 2278 -91 
Q 1894 -91 1617 61 
Q 1341 213 1159 525 
L 1159 0 
L 581 0 
L 581 4863 
L 1159 4863 
L 1159 2969 
z
" transform="scale(0.015625)"/>
      <path id="DejaVuSans-6f" d="M 1959 3097 
Q 1497 3097 1228 2736 
Q 959 2375 959 1747 
Q 959 1119 1226 758 
Q 1494 397 1959 397 
Q 2419 397 2687 759 
Q 2956 1122 2956 1747 
Q 2956 2369 2687 2733 
Q 2419 3097 1959 3097 
z
M 1959 3584 
Q 2709 3584 3137 3096 
Q 3566 2609 3566 1747 
Q 3566 888 3137 398 
Q 2709 -91 1959 -91 
Q 1206 -91 779 398 
Q 353 888 353 1747 
Q 353 2609 779 3096 
Q 1206 3584 1959 3584 
z
" transform="scale(0.015625)"/>
      <path id="DejaVuSans-20" transform="scale(0.015625)"/>
      <path id="DejaVuSans-66" d="M 2375 4863 
L 2375 4384 
L 1825 4384 
Q 1516 4384 1395 4259 
Q 1275 4134 1275 3809 
L 1275 3500 
L 2222 3500 
L 2222 3053 
L 1275 3053 
L 1275 0 
L 697 0 
L 697 3053 
L 147 3053 
L 147 3500 
L 697 3500 
L 697 3744 
Q 697 4328 969 4595 
Q 1241 4863 1831 4863 
L 2375 4863 
z
" transform="scale(0.015625)"/>
      <path id="DejaVuSans-76" d="M 191 3500 
L 800 3500 
L 1894 563 
L 2988 3500 
L 3597 3500 
L 2284 0 
L 1503 0 
L 191 3500 
z
" transform="scale(0.015625)"/>
      <path id="DejaVuSans-6c" d="M 603 4863 
L 1178 4863 
L 1178 0 
L 603 0 
L 603 4863 
z
" transform="scale(0.015625)"/>
     </defs>
     <use xlink:href="#DejaVuSans-44"/>
     <use xlink:href="#DejaVuSans-69" x="77.001953"/>
     <use xlink:href="#DejaVuSans-73" x="104.785156"/>
     <use xlink:href="#DejaVuSans-74" x="156.884766"/>
     <use xlink:href="#DejaVuSans-72" x="196.09375"/>
     <use xlink:href="#DejaVuSans-69" x="237.207031"/>
     <use xlink:href="#DejaVuSans-62" x="264.990234"/>
     <use xlink:href="#DejaVuSans-75" x="328.466797"/>
     <use xlink:href="#DejaVuSans-74" x="391.845703"/>
     <use xlink:href="#DejaVuSans-69" x="431.054688"/>
     <use xlink:href="#DejaVuSans-6f" x="458.837891"/>
     <use xlink:href="#DejaVuSans-6e" x="520.019531"/>
     <use xlink:href="#DejaVuSans-20" x="583.398438"/>
     <use xlink:href="#DejaVuSans-6f" x="615.185547"/>
     <use xlink:href="#DejaVuSans-66" x="676.367188"/>
     <use xlink:href="#DejaVuSans-20" x="711.572266"/>
     <use xlink:href="#DejaVuSans-76" x="743.359375"/>
     <use xlink:href="#DejaVuSans-65" x="802.539062"/>
     <use xlink:href="#DejaVuSans-6c" x="864.0625"/>
     <use xlink:href="#DejaVuSans-6f" x="891.845703"/>
     <use xlink:href="#DejaVuSans-63" x="953.027344"/>
     <use xlink:href="#DejaVuSans-69" x="1008.007812"/>
     <use xlink:href="#DejaVuSans-74" x="1035.791016"/>
     <use xlink:href="#DejaVuSans-79" x="1075"/>
    </g>
   </g>
  </g>
 </g>
 <defs>
  <clipPath id="pe2c67f816d">
   <rect x="53.328125" y="22.318125" width="357.12" height="266.112"/>
  </clipPath>
 </defs>
</svg>