<?xml version="1.0" encoding="utf-8" standalone="no"?>
<!DOCTYPE svg PUBLIC "-//W3C//DTD SVG 1.1//EN"
  "http://www.w3.org/Graphics/SVG/1.1/DTD/svg11.dtd">
<svg xmlns:xlink="http://www.w3.org/1999/xlink" width="400.785625pt" height="298.032544pt" viewBox="0 0 400.785625 298.032544" xmlns="http://www.w3.org/2000/svg" version="1.1">
 <metadata>
  <rdf:RDF xmlns:dc="http://purl.org/dc/elements/1.1/" xmlns:cc="http://creativecommons.org/ns#" xmlns:rdf="http://www.w3.org/1999/02/22-rdf-syntax-ns#">
   <cc:Work>
    <dc:type rdf:resource="http://purl.org/dc/dcmitype/StillImage"/>
    <dc:date>2024-08-21T20:29:38.696659</dc:date>
    <dc:format>image/svg+xml</dc:format>
    <dc:creator>
     <cc:Agent>
      <dc:title>Matplotlib v3.8.4, https://matplotlib.org/</dc:title>
     </cc:Agent>
    </dc:creator>
   </cc:Work>
  </rdf:RDF>
 </metadata>
 <defs>
  <style type="text/css">*{stroke-linejoin: round; stroke-linecap: butt}</style>
 </defs>
 <g id="figure_1">
  <g id="patch_1">
   <path d="M 0 298.032544 
L 400.785625 298.032544 
L 400.785625 0 
L 0 0 
z
" style="fill: #ffffff"/>
  </g>
  <g id="axes_1">
   <g id="patch_2">
    <path d="M 36.465625 274.154419 
L 393.585625 274.154419 
L 393.585625 8.042419 
L 36.465625 8.042419 
z
" style="fill: #ffffff"/>
   </g>
   <g id="patch_3">
    <path d="M 52.698352 274.154419 
L 55.65648 274.154419 
L 55.65648 274.154419 
L 52.698352 274.154419 
z
" clip-path="url(#p096ddce706)" style="fill: #1f77b4"/>
   </g>
   <g id="patch_4">
    <path d="M 56.396012 274.154419 
L 59.35414 274.154419 
L 59.35414 274.154419 
L 56.396012 274.154419 
z
" clip-path="url(#p096ddce706)" style="fill: #1f77b4"/>
   </g>
   <g id="patch_5">
    <path d="M 60.093672 274.154419 
L 63.0518 274.154419 
L 63.0518 274.154419 
L 60.093672 274.154419 
z
" clip-path="url(#p096ddce706)" style="fill: #1f77b4"/>
   </g>
   <g id="patch_6">
    <path d="M 63.791332 274.154419 
L 66.74946 274.154419 
L 66.74946 274.154419 
L 63.791332 274.154419 
z
" clip-path="url(#p096ddce706)" style="fill: #1f77b4"/>
   </g>
   <g id="patch_7">
    <path d="M 67.488992 274.154419 
L 70.44712 274.154419 
L 70.44712 274.154419 
L 67.488992 274.154419 
z
" clip-path="url(#p096ddce706)" style="fill: #1f77b4"/>
   </g>
   <g id="patch_8">
    <path d="M 71.186652 274.154419 
L 74.14478 274.154419 
L 74.14478 274.154419 
L 71.186652 274.154419 
z
" clip-path="url(#p096ddce706)" style="fill: #1f77b4"/>
   </g>
   <g id="patch_9">
    <path d="M 74.884312 274.154419 
L 77.84244 274.154419 
L 77.84244 274.154419 
L 74.884312 274.154419 
z
" clip-path="url(#p096ddce706)" style="fill: #1f77b4"/>
   </g>
   <g id="patch_10">
    <path d="M 78.581972 274.154419 
L 81.5401 274.154419 
L 81.5401 274.154419 
L 78.581972 274.154419 
z
" clip-path="url(#p096ddce706)" style="fill: #1f77b4"/>
   </g>
   <g id="patch_11">
    <path d="M 82.279632 274.154419 
L 85.23776 274.154419 
L 85.23776 274.154419 
L 82.279632 274.154419 
z
" clip-path="url(#p096ddce706)" style="fill: #1f77b4"/>
   </g>
   <g id="patch_12">
    <path d="M 85.977292 274.154419 
L 88.93542 274.154419 
L 88.93542 274.154419 
L 85.977292 274.154419 
z
" clip-path="url(#p096ddce706)" style="fill: #1f77b4"/>
   </g>
   <g id="patch_13">
    <path d="M 89.674952 274.154419 
L 92.63308 274.154419 
L 92.63308 274.154419 
L 89.674952 274.154419 
z
" clip-path="url(#p096ddce706)" style="fill: #1f77b4"/>
   </g>
   <g id="patch_14">
    <path d="M 93.372612 274.154419 
L 96.33074 274.154419 
L 96.33074 274.154419 
L 93.372612 274.154419 
z
" clip-path="url(#p096ddce706)" style="fill: #1f77b4"/>
   </g>
   <g id="patch_15">
    <path d="M 97.070272 274.154419 
L 100.0284 274.154419 
L 100.0284 274.154419 
L 97.070272 274.154419 
z
" clip-path="url(#p096ddce706)" style="fill: #1f77b4"/>
   </g>
   <g id="patch_16">
    <path d="M 100.767932 274.154419 
L 103.72606 274.154419 
L 103.72606 274.154419 
L 100.767932 274.154419 
z
" clip-path="url(#p096ddce706)" style="fill: #1f77b4"/>
   </g>
   <g id="patch_17">
    <path d="M 104.465592 274.154419 
L 107.42372 274.154419 
L 107.42372 274.154419 
L 104.465592 274.154419 
z
" clip-path="url(#p096ddce706)" style="fill: #1f77b4"/>
   </g>
   <g id="patch_18">
    <path d="M 108.163252 274.154419 
L 111.12138 274.154419 
L 111.12138 274.154419 
L 108.163252 274.154419 
z
" clip-path="url(#p096ddce706)" style="fill: #1f77b4"/>
   </g>
   <g id="patch_19">
    <path d="M 111.860912 274.154419 
L 114.81904 274.154419 
L 114.81904 274.154419 
L 111.860912 274.154419 
z
" clip-path="url(#p096ddce706)" style="fill: #1f77b4"/>
   </g>
   <g id="patch_20">
    <path d="M 115.558572 274.154419 
L 118.5167 274.154419 
L 118.5167 274.154419 
L 115.558572 274.154419 
z
" clip-path="url(#p096ddce706)" style="fill: #1f77b4"/>
   </g>
   <g id="patch_21">
    <path d="M 119.256232 274.154419 
L 122.21436 274.154419 
L 122.21436 274.154419 
L 119.256232 274.154419 
z
" clip-path="url(#p096ddce706)" style="fill: #1f77b4"/>
   </g>
   <g id="patch_22">
    <path d="M 122.953892 274.154419 
L 125.91202 274.154419 
L 125.91202 274.154419 
L 122.953892 274.154419 
z
" clip-path="url(#p096ddce706)" style="fill: #1f77b4"/>
   </g>
   <g id="patch_23">
    <path d="M 126.651552 274.154419 
L 129.60968 274.154419 
L 129.60968 253.034419 
L 126.651552 253.034419 
z
" clip-path="url(#p096ddce706)" style="fill: #1f77b4"/>
   </g>
   <g id="patch_24">
    <path d="M 130.349212 274.154419 
L 133.30734 274.154419 
L 133.30734 274.154419 
L 130.349212 274.154419 
z
" clip-path="url(#p096ddce706)" style="fill: #1f77b4"/>
   </g>
   <g id="patch_25">
    <path d="M 134.046872 274.154419 
L 137.005 274.154419 
L 137.005 253.034419 
L 134.046872 253.034419 
z
" clip-path="url(#p096ddce706)" style="fill: #1f77b4"/>
   </g>
   <g id="patch_26">
    <path d="M 137.744532 274.154419 
L 140.70266 274.154419 
L 140.70266 210.794419 
L 137.744532 210.794419 
z
" clip-path="url(#p096ddce706)" style="fill: #1f77b4"/>
   </g>
   <g id="patch_27">
    <path d="M 141.442192 274.154419 
L 144.40032 274.154419 
L 144.40032 274.154419 
L 141.442192 274.154419 
z
" clip-path="url(#p096ddce706)" style="fill: #1f77b4"/>
   </g>
   <g id="patch_28">
    <path d="M 145.139852 274.154419 
L 148.09798 274.154419 
L 148.09798 253.034419 
L 145.139852 253.034419 
z
" clip-path="url(#p096ddce706)" style="fill: #1f77b4"/>
   </g>
   <g id="patch_29">
    <path d="M 148.837512 274.154419 
L 151.795639 274.154419 
L 151.795639 274.154419 
L 148.837512 274.154419 
z
" clip-path="url(#p096ddce706)" style="fill: #1f77b4"/>
   </g>
   <g id="patch_30">
    <path d="M 152.535171 274.154419 
L 155.493299 274.154419 
L 155.493299 274.154419 
L 152.535171 274.154419 
z
" clip-path="url(#p096ddce706)" style="fill: #1f77b4"/>
   </g>
   <g id="patch_31">
    <path d="M 156.232831 274.154419 
L 159.190959 274.154419 
L 159.190959 253.034419 
L 156.232831 253.034419 
z
" clip-path="url(#p096ddce706)" style="fill: #1f77b4"/>
   </g>
   <g id="patch_32">
    <path d="M 159.930491 274.154419 
L 162.888619 274.154419 
L 162.888619 274.154419 
L 159.930491 274.154419 
z
" clip-path="url(#p096ddce706)" style="fill: #1f77b4"/>
   </g>
   <g id="patch_33">
    <path d="M 163.628151 274.154419 
L 166.586279 274.154419 
L 166.586279 147.434419 
L 163.628151 147.434419 
z
" clip-path="url(#p096ddce706)" style="fill: #1f77b4"/>
   </g>
   <g id="patch_34">
    <path d="M 167.325811 274.154419 
L 170.283939 274.154419 
L 170.283939 253.034419 
L 167.325811 253.034419 
z
" clip-path="url(#p096ddce706)" style="fill: #1f77b4"/>
   </g>
   <g id="patch_35">
    <path d="M 171.023471 274.154419 
L 173.981599 274.154419 
L 173.981599 189.674419 
L 171.023471 189.674419 
z
" clip-path="url(#p096ddce706)" style="fill: #1f77b4"/>
   </g>
   <g id="patch_36">
    <path d="M 174.721131 274.154419 
L 177.679259 274.154419 
L 177.679259 189.674419 
L 174.721131 189.674419 
z
" clip-path="url(#p096ddce706)" style="fill: #1f77b4"/>
   </g>
   <g id="patch_37">
    <path d="M 178.418791 274.154419 
L 181.376919 274.154419 
L 181.376919 253.034419 
L 178.418791 253.034419 
z
" clip-path="url(#p096ddce706)" style="fill: #1f77b4"/>
   </g>
   <g id="patch_38">
    <path d="M 182.116451 274.154419 
L 185.074579 274.154419 
L 185.074579 20.714419 
L 182.116451 20.714419 
z
" clip-path="url(#p096ddce706)" style="fill: #1f77b4"/>
   </g>
   <g id="patch_39">
    <path d="M 185.814111 274.154419 
L 188.772239 274.154419 
L 188.772239 274.154419 
L 185.814111 274.154419 
z
" clip-path="url(#p096ddce706)" style="fill: #1f77b4"/>
   </g>
   <g id="patch_40">
    <path d="M 189.511771 274.154419 
L 192.469899 274.154419 
L 192.469899 210.794419 
L 189.511771 210.794419 
z
" clip-path="url(#p096ddce706)" style="fill: #1f77b4"/>
   </g>
   <g id="patch_41">
    <path d="M 193.209431 274.154419 
L 196.167559 274.154419 
L 196.167559 274.154419 
L 193.209431 274.154419 
z
" clip-path="url(#p096ddce706)" style="fill: #1f77b4"/>
   </g>
   <g id="patch_42">
    <path d="M 196.907091 274.154419 
L 199.865219 274.154419 
L 199.865219 189.674419 
L 196.907091 189.674419 
z
" clip-path="url(#p096ddce706)" style="fill: #1f77b4"/>
   </g>
   <g id="patch_43">
    <path d="M 200.604751 274.154419 
L 203.562879 274.154419 
L 203.562879 105.194419 
L 200.604751 105.194419 
z
" clip-path="url(#p096ddce706)" style="fill: #1f77b4"/>
   </g>
   <g id="patch_44">
    <path d="M 204.302411 274.154419 
L 207.260539 274.154419 
L 207.260539 274.154419 
L 204.302411 274.154419 
z
" clip-path="url(#p096ddce706)" style="fill: #1f77b4"/>
   </g>
   <g id="patch_45">
    <path d="M 208.000071 274.154419 
L 210.958199 274.154419 
L 210.958199 189.674419 
L 208.000071 189.674419 
z
" clip-path="url(#p096ddce706)" style="fill: #1f77b4"/>
   </g>
   <g id="patch_46">
    <path d="M 211.697731 274.154419 
L 214.655859 274.154419 
L 214.655859 274.154419 
L 211.697731 274.154419 
z
" clip-path="url(#p096ddce706)" style="fill: #1f77b4"/>
   </g>
   <g id="patch_47">
    <path d="M 215.395391 274.154419 
L 218.353519 274.154419 
L 218.353519 189.674419 
L 215.395391 189.674419 
z
" clip-path="url(#p096ddce706)" style="fill: #1f77b4"/>
   </g>
   <g id="patch_48">
    <path d="M 219.093051 274.154419 
L 222.051179 274.154419 
L 222.051179 253.034419 
L 219.093051 253.034419 
z
" clip-path="url(#p096ddce706)" style="fill: #1f77b4"/>
   </g>
   <g id="patch_49">
    <path d="M 222.790711 274.154419 
L 225.748839 274.154419 
L 225.748839 253.034419 
L 222.790711 253.034419 
z
" clip-path="url(#p096ddce706)" style="fill: #1f77b4"/>
   </g>
   <g id="patch_50">
    <path d="M 226.488371 274.154419 
L 229.446499 274.154419 
L 229.446499 84.074419 
L 226.488371 84.074419 
z
" clip-path="url(#p096ddce706)" style="fill: #1f77b4"/>
   </g>
   <g id="patch_51">
    <path d="M 230.186031 274.154419 
L 233.144159 274.154419 
L 233.144159 274.154419 
L 230.186031 274.154419 
z
" clip-path="url(#p096ddce706)" style="fill: #1f77b4"/>
   </g>
   <g id="patch_52">
    <path d="M 233.883691 274.154419 
L 236.841819 274.154419 
L 236.841819 210.794419 
L 233.883691 210.794419 
z
" clip-path="url(#p096ddce706)" style="fill: #1f77b4"/>
   </g>
   <g id="patch_53">
    <path d="M 237.581351 274.154419 
L 240.539479 274.154419 
L 240.539479 274.154419 
L 237.581351 274.154419 
z
" clip-path="url(#p096ddce706)" style="fill: #1f77b4"/>
   </g>
   <g id="patch_54">
    <path d="M 241.279011 274.154419 
L 244.237139 274.154419 
L 244.237139 274.154419 
L 241.279011 274.154419 
z
" clip-path="url(#p096ddce706)" style="fill: #1f77b4"/>
   </g>
   <g id="patch_55">
    <path d="M 244.976671 274.154419 
L 247.934799 274.154419 
L 247.934799 126.314419 
L 244.976671 126.314419 
z
" clip-path="url(#p096ddce706)" style="fill: #1f77b4"/>
   </g>
   <g id="patch_56">
    <path d="M 248.674331 274.154419 
L 251.632459 274.154419 
L 251.632459 253.034419 
L 248.674331 253.034419 
z
" clip-path="url(#p096ddce706)" style="fill: #1f77b4"/>
   </g>
   <g id="patch_57">
    <path d="M 252.371991 274.154419 
L 255.330119 274.154419 
L 255.330119 168.554419 
L 252.371991 168.554419 
z
" clip-path="url(#p096ddce706)" style="fill: #1f77b4"/>
   </g>
   <g id="patch_58">
    <path d="M 256.069651 274.154419 
L 259.027779 274.154419 
L 259.027779 274.154419 
L 256.069651 274.154419 
z
" clip-path="url(#p096ddce706)" style="fill: #1f77b4"/>
   </g>
   <g id="patch_59">
    <path d="M 259.767311 274.154419 
L 262.725439 274.154419 
L 262.725439 274.154419 
L 259.767311 274.154419 
z
" clip-path="url(#p096ddce706)" style="fill: #1f77b4"/>
   </g>
   <g id="patch_60">
    <path d="M 263.464971 274.154419 
L 266.423099 274.154419 
L 266.423099 274.154419 
L 263.464971 274.154419 
z
" clip-path="url(#p096ddce706)" style="fill: #1f77b4"/>
   </g>
   <g id="patch_61">
    <path d="M 267.162631 274.154419 
L 270.120759 274.154419 
L 270.120759 274.154419 
L 267.162631 274.154419 
z
" clip-path="url(#p096ddce706)" style="fill: #1f77b4"/>
   </g>
   <g id="patch_62">
    <path d="M 270.860291 274.154419 
L 273.818419 274.154419 
L 273.818419 210.794419 
L 270.860291 210.794419 
z
" clip-path="url(#p096ddce706)" style="fill: #1f77b4"/>
   </g>
   <g id="patch_63">
    <path d="M 274.557951 274.154419 
L 277.516079 274.154419 
L 277.516079 274.154419 
L 274.557951 274.154419 
z
" clip-path="url(#p096ddce706)" style="fill: #1f77b4"/>
   </g>
   <g id="patch_64">
    <path d="M 278.255611 274.154419 
L 281.213738 274.154419 
L 281.213738 274.154419 
L 278.255611 274.154419 
z
" clip-path="url(#p096ddce706)" style="fill: #1f77b4"/>
   </g>
   <g id="patch_65">
    <path d="M 281.95327 274.154419 
L 284.911398 274.154419 
L 284.911398 274.154419 
L 281.95327 274.154419 
z
" clip-path="url(#p096ddce706)" style="fill: #1f77b4"/>
   </g>
   <g id="patch_66">
    <path d="M 285.65093 274.154419 
L 288.609058 274.154419 
L 288.609058 253.034419 
L 285.65093 253.034419 
z
" clip-path="url(#p096ddce706)" style="fill: #1f77b4"/>
   </g>
   <g id="patch_67">
    <path d="M 289.34859 274.154419 
L 292.306718 274.154419 
L 292.306718 274.154419 
L 289.34859 274.154419 
z
" clip-path="url(#p096ddce706)" style="fill: #1f77b4"/>
   </g>
   <g id="patch_68">
    <path d="M 293.04625 274.154419 
L 296.004378 274.154419 
L 296.004378 274.154419 
L 293.04625 274.154419 
z
" clip-path="url(#p096ddce706)" style="fill: #1f77b4"/>
   </g>
   <g id="patch_69">
    <path d="M 296.74391 274.154419 
L 299.702038 274.154419 
L 299.702038 274.154419 
L 296.74391 274.154419 
z
" clip-path="url(#p096ddce706)" style="fill: #1f77b4"/>
   </g>
   <g id="patch_70">
    <path d="M 300.44157 274.154419 
L 303.399698 274.154419 
L 303.399698 274.154419 
L 300.44157 274.154419 
z
" clip-path="url(#p096ddce706)" style="fill: #1f77b4"/>
   </g>
   <g id="patch_71">
    <path d="M 304.13923 274.154419 
L 307.097358 274.154419 
L 307.097358 274.154419 
L 304.13923 274.154419 
z
" clip-path="url(#p096ddce706)" style="fill: #1f77b4"/>
   </g>
   <g id="patch_72">
    <path d="M 307.83689 274.154419 
L 310.795018 274.154419 
L 310.795018 274.154419 
L 307.83689 274.154419 
z
" clip-path="url(#p096ddce706)" style="fill: #1f77b4"/>
   </g>
   <g id="patch_73">
    <path d="M 311.53455 274.154419 
L 314.492678 274.154419 
L 314.492678 274.154419 
L 311.53455 274.154419 
z
" clip-path="url(#p096ddce706)" style="fill: #1f77b4"/>
   </g>
   <g id="patch_74">
    <path d="M 315.23221 274.154419 
L 318.190338 274.154419 
L 318.190338 274.154419 
L 315.23221 274.154419 
z
" clip-path="url(#p096ddce706)" style="fill: #1f77b4"/>
   </g>
   <g id="patch_75">
    <path d="M 318.92987 274.154419 
L 321.887998 274.154419 
L 321.887998 274.154419 
L 318.92987 274.154419 
z
" clip-path="url(#p096ddce706)" style="fill: #1f77b4"/>
   </g>
   <g id="patch_76">
    <path d="M 322.62753 274.154419 
L 325.585658 274.154419 
L 325.585658 274.154419 
L 322.62753 274.154419 
z
" clip-path="url(#p096ddce706)" style="fill: #1f77b4"/>
   </g>
   <g id="patch_77">
    <path d="M 326.32519 274.154419 
L 329.283318 274.154419 
L 329.283318 274.154419 
L 326.32519 274.154419 
z
" clip-path="url(#p096ddce706)" style="fill: #1f77b4"/>
   </g>
   <g id="patch_78">
    <path d="M 330.02285 274.154419 
L 332.980978 274.154419 
L 332.980978 274.154419 
L 330.02285 274.154419 
z
" clip-path="url(#p096ddce706)" style="fill: #1f77b4"/>
   </g>
   <g id="patch_79">
    <path d="M 333.72051 274.154419 
L 336.678638 274.154419 
L 336.678638 274.154419 
L 333.72051 274.154419 
z
" clip-path="url(#p096ddce706)" style="fill: #1f77b4"/>
   </g>
   <g id="patch_80">
    <path d="M 337.41817 274.154419 
L 340.376298 274.154419 
L 340.376298 274.154419 
L 337.41817 274.154419 
z
" clip-path="url(#p096ddce706)" style="fill: #1f77b4"/>
   </g>
   <g id="patch_81">
    <path d="M 341.11583 274.154419 
L 344.073958 274.154419 
L 344.073958 274.154419 
L 341.11583 274.154419 
z
" clip-path="url(#p096ddce706)" style="fill: #1f77b4"/>
   </g>
   <g id="patch_82">
    <path d="M 344.81349 274.154419 
L 347.771618 274.154419 
L 347.771618 274.154419 
L 344.81349 274.154419 
z
" clip-path="url(#p096ddce706)" style="fill: #1f77b4"/>
   </g>
   <g id="patch_83">
    <path d="M 348.51115 274.154419 
L 351.469278 274.154419 
L 351.469278 274.154419 
L 348.51115 274.154419 
z
" clip-path="url(#p096ddce706)" style="fill: #1f77b4"/>
   </g>
   <g id="patch_84">
    <path d="M 352.20881 274.154419 
L 355.166938 274.154419 
L 355.166938 274.154419 
L 352.20881 274.154419 
z
" clip-path="url(#p096ddce706)" style="fill: #1f77b4"/>
   </g>
   <g id="patch_85">
    <path d="M 355.90647 274.154419 
L 358.864598 274.154419 
L 358.864598 274.154419 
L 355.90647 274.154419 
z
" clip-path="url(#p096ddce706)" style="fill: #1f77b4"/>
   </g>
   <g id="patch_86">
    <path d="M 359.60413 274.154419 
L 362.562258 274.154419 
L 362.562258 274.154419 
L 359.60413 274.154419 
z
" clip-path="url(#p096ddce706)" style="fill: #1f77b4"/>
   </g>
   <g id="patch_87">
    <path d="M 363.30179 274.154419 
L 366.259918 274.154419 
L 366.259918 274.154419 
L 363.30179 274.154419 
z
" clip-path="url(#p096ddce706)" style="fill: #1f77b4"/>
   </g>
   <g id="patch_88">
    <path d="M 366.99945 274.154419 
L 369.957578 274.154419 
L 369.957578 274.154419 
L 366.99945 274.154419 
z
" clip-path="url(#p096ddce706)" style="fill: #1f77b4"/>
   </g>
   <g id="patch_89">
    <path d="M 370.69711 274.154419 
L 373.655238 274.154419 
L 373.655238 274.154419 
L 370.69711 274.154419 
z
" clip-path="url(#p096ddce706)" style="fill: #1f77b4"/>
   </g>
   <g id="patch_90">
    <path d="M 374.39477 274.154419 
L 377.352898 274.154419 
L 377.352898 274.154419 
L 374.39477 274.154419 
z
" clip-path="url(#p096ddce706)" style="fill: #1f77b4"/>
   </g>
   <g id="matplotlib.axis_1">
    <g id="xtick_1">
     <g id="line2d_1">
      <path d="M 54.177416 274.154419 
L 54.177416 8.042419 
" clip-path="url(#p096ddce706)" style="fill: none; stroke: #b0b0b0; stroke-width: 0.8; stroke-linecap: square"/>
     </g>
     <g id="line2d_2">
      <defs>
       <path id="me405f3b393" d="M 0 0 
L 0 3.5 
" style="stroke: #000000; stroke-width: 0.8"/>
      </defs>
      <g>
       <use xlink:href="#me405f3b393" x="54.177416" y="274.154419" style="stroke: #000000; stroke-width: 0.8"/>
      </g>
     </g>
     <g id="text_1">
      <!-- 0 -->
      <g transform="translate(50.996166 288.752856) scale(0.1 -0.1)">
       <defs>
        <path id="DejaVuSans-30" d="M 2034 4250 
Q 1547 4250 1301 3770 
Q 1056 3291 1056 2328 
Q 1056 1369 1301 889 
Q 1547 409 2034 409 
Q 2525 409 2770 889 
Q 3016 1369 3016 2328 
Q 3016 3291 2770 3770 
Q 2525 4250 2034 4250 
z
M 2034 4750 
Q 2819 4750 3233 4129 
Q 3647 3509 3647 2328 
Q 3647 1150 3233 529 
Q 2819 -91 2034 -91 
Q 1250 -91 836 529 
Q 422 1150 422 2328 
Q 422 3509 836 4129 
Q 1250 4750 2034 4750 
z
" transform="scale(0.015625)"/>
       </defs>
       <use xlink:href="#DejaVuSans-30"/>
      </g>
     </g>
    </g>
    <g id="xtick_2">
     <g id="line2d_3">
      <path d="M 128.130616 274.154419 
L 128.130616 8.042419 
" clip-path="url(#p096ddce706)" style="fill: none; stroke: #b0b0b0; stroke-width: 0.8; stroke-linecap: square"/>
     </g>
     <g id="line2d_4">
      <g>
       <use xlink:href="#me405f3b393" x="128.130616" y="274.154419" style="stroke: #000000; stroke-width: 0.8"/>
      </g>
     </g>
     <g id="text_2">
      <!-- 20 -->
      <g transform="translate(121.768116 288.752856) scale(0.1 -0.1)">
       <defs>
        <path id="DejaVuSans-32" d="M 1228 531 
L 3431 531 
L 3431 0 
L 469 0 
L 469 531 
Q 828 903 1448 1529 
Q 2069 2156 2228 2338 
Q 2531 2678 2651 2914 
Q 2772 3150 2772 3378 
Q 2772 3750 2511 3984 
Q 2250 4219 1831 4219 
Q 1534 4219 1204 4116 
Q 875 4013 500 3803 
L 500 4441 
Q 881 4594 1212 4672 
Q 1544 4750 1819 4750 
Q 2544 4750 2975 4387 
Q 3406 4025 3406 3419 
Q 3406 3131 3298 2873 
Q 3191 2616 2906 2266 
Q 2828 2175 2409 1742 
Q 1991 1309 1228 531 
z
" transform="scale(0.015625)"/>
       </defs>
       <use xlink:href="#DejaVuSans-32"/>
       <use xlink:href="#DejaVuSans-30" x="63.623047"/>
      </g>
     </g>
    </g>
    <g id="xtick_3">
     <g id="line2d_5">
      <path d="M 202.083815 274.154419 
L 202.083815 8.042419 
" clip-path="url(#p096ddce706)" style="fill: none; stroke: #b0b0b0; stroke-width: 0.8; stroke-linecap: square"/>
     </g>
     <g id="line2d_6">
      <g>
       <use xlink:href="#me405f3b393" x="202.083815" y="274.154419" style="stroke: #000000; stroke-width: 0.8"/>
      </g>
     </g>
     <g id="text_3">
      <!-- 40 -->
      <g transform="translate(195.721315 288.752856) scale(0.1 -0.1)">
       <defs>
        <path id="DejaVuSans-34" d="M 2419 4116 
L 825 1625 
L 2419 1625 
L 2419 4116 
z
M 2253 4666 
L 3047 4666 
L 3047 1625 
L 3713 1625 
L 3713 1100 
L 3047 1100 
L 3047 0 
L 2419 0 
L 2419 1100 
L 313 1100 
L 313 1709 
L 2253 4666 
z
" transform="scale(0.015625)"/>
       </defs>
       <use xlink:href="#DejaVuSans-34"/>
       <use xlink:href="#DejaVuSans-30" x="63.623047"/>
      </g>
     </g>
    </g>
    <g id="xtick_4">
     <g id="line2d_7">
      <path d="M 276.037015 274.154419 
L 276.037015 8.042419 
" clip-path="url(#p096ddce706)" style="fill: none; stroke: #b0b0b0; stroke-width: 0.8; stroke-linecap: square"/>
     </g>
     <g id="line2d_8">
      <g>
       <use xlink:href="#me405f3b393" x="276.037015" y="274.154419" style="stroke: #000000; stroke-width: 0.8"/>
      </g>
     </g>
     <g id="text_4">
      <!-- 60 -->
      <g transform="translate(269.674515 288.752856) scale(0.1 -0.1)">
       <defs>
        <path id="DejaVuSans-36" d="M 2113 2584 
Q 1688 2584 1439 2293 
Q 1191 2003 1191 1497 
Q 1191 994 1439 701 
Q 1688 409 2113 409 
Q 2538 409 2786 701 
Q 3034 994 3034 1497 
Q 3034 2003 2786 2293 
Q 2538 2584 2113 2584 
z
M 3366 4563 
L 3366 3988 
Q 3128 4100 2886 4159 
Q 2644 4219 2406 4219 
Q 1781 4219 1451 3797 
Q 1122 3375 1075 2522 
Q 1259 2794 1537 2939 
Q 1816 3084 2150 3084 
Q 2853 3084 3261 2657 
Q 3669 2231 3669 1497 
Q 3669 778 3244 343 
Q 2819 -91 2113 -91 
Q 1303 -91 875 529 
Q 447 1150 447 2328 
Q 447 3434 972 4092 
Q 1497 4750 2381 4750 
Q 2619 4750 2861 4703 
Q 3103 4656 3366 4563 
z
" transform="scale(0.015625)"/>
       </defs>
       <use xlink:href="#DejaVuSans-36"/>
       <use xlink:href="#DejaVuSans-30" x="63.623047"/>
      </g>
     </g>
    </g>
    <g id="xtick_5">
     <g id="line2d_9">
      <path d="M 349.990214 274.154419 
L 349.990214 8.042419 
" clip-path="url(#p096ddce706)" style="fill: none; stroke: #b0b0b0; stroke-width: 0.8; stroke-linecap: square"/>
     </g>
     <g id="line2d_10">
      <g>
       <use xlink:href="#me405f3b393" x="349.990214" y="274.154419" style="stroke: #000000; stroke-width: 0.8"/>
      </g>
     </g>
     <g id="text_5">
      <!-- 80 -->
      <g transform="translate(343.627714 288.752856) scale(0.1 -0.1)">
       <defs>
        <path id="DejaVuSans-38" d="M 2034 2216 
Q 1584 2216 1326 1975 
Q 1069 1734 1069 1313 
Q 1069 891 1326 650 
Q 1584 409 2034 409 
Q 2484 409 2743 651 
Q 3003 894 3003 1313 
Q 3003 1734 2745 1975 
Q 2488 2216 2034 2216 
z
M 1403 2484 
Q 997 2584 770 2862 
Q 544 3141 544 3541 
Q 544 4100 942 4425 
Q 1341 4750 2034 4750 
Q 2731 4750 3128 4425 
Q 3525 4100 3525 3541 
Q 3525 3141 3298 2862 
Q 3072 2584 2669 2484 
Q 3125 2378 3379 2068 
Q 3634 1759 3634 1313 
Q 3634 634 3220 271 
Q 2806 -91 2034 -91 
Q 1263 -91 848 271 
Q 434 634 434 1313 
Q 434 1759 690 2068 
Q 947 2378 1403 2484 
z
M 1172 3481 
Q 1172 3119 1398 2916 
Q 1625 2713 2034 2713 
Q 2441 2713 2670 2916 
Q 2900 3119 2900 3481 
Q 2900 3844 2670 4047 
Q 2441 4250 2034 4250 
Q 1625 4250 1398 4047 
Q 1172 3844 1172 3481 
z
" transform="scale(0.015625)"/>
       </defs>
       <use xlink:href="#DejaVuSans-38"/>
       <use xlink:href="#DejaVuSans-30" x="63.623047"/>
      </g>
     </g>
    </g>
   </g>
   <g id="matplotlib.axis_2">
    <g id="ytick_1">
     <g id="line2d_11">
      <path d="M 36.465625 274.154419 
L 393.585625 274.154419 
" clip-path="url(#p096ddce706)" style="fill: none; stroke: #b0b0b0; stroke-width: 0.8; stroke-linecap: square"/>
     </g>
     <g id="line2d_12">
      <defs>
       <path id="maf1b5bd21c" d="M 0 0 
L -3.5 0 
" style="stroke: #000000; stroke-width: 0.8"/>
      </defs>
      <g>
       <use xlink:href="#maf1b5bd21c" x="36.465625" y="274.154419" style="stroke: #000000; stroke-width: 0.8"/>
      </g>
     </g>
     <g id="text_6">
      <!-- 0.00 -->
      <g transform="translate(7.2 277.953637) scale(0.1 -0.1)">
       <defs>
        <path id="DejaVuSans-2e" d="M 684 794 
L 1344 794 
L 1344 0 
L 684 0 
L 684 794 
z
" transform="scale(0.015625)"/>
       </defs>
       <use xlink:href="#DejaVuSans-30"/>
       <use xlink:href="#DejaVuSans-2e" x="63.623047"/>
       <use xlink:href="#DejaVuSans-30" x="95.410156"/>
       <use xlink:href="#DejaVuSans-30" x="159.033203"/>
      </g>
     </g>
    </g>
    <g id="ytick_2">
     <g id="line2d_13">
      <path d="M 36.465625 236.560819 
L 393.585625 236.560819 
" clip-path="url(#p096ddce706)" style="fill: none; stroke: #b0b0b0; stroke-width: 0.8; stroke-linecap: square"/>
     </g>
     <g id="line2d_14">
      <g>
       <use xlink:href="#maf1b5bd21c" x="36.465625" y="236.560819" style="stroke: #000000; stroke-width: 0.8"/>
      </g>
     </g>
     <g id="text_7">
      <!-- 0.02 -->
      <g transform="translate(7.2 240.360037) scale(0.1 -0.1)">
       <use xlink:href="#DejaVuSans-30"/>
       <use xlink:href="#DejaVuSans-2e" x="63.623047"/>
       <use xlink:href="#DejaVuSans-30" x="95.410156"/>
       <use xlink:href="#DejaVuSans-32" x="159.033203"/>
      </g>
     </g>
    </g>
    <g id="ytick_3">
     <g id="line2d_15">
      <path d="M 36.465625 198.967219 
L 393.585625 198.967219 
" clip-path="url(#p096ddce706)" style="fill: none; stroke: #b0b0b0; stroke-width: 0.8; stroke-linecap: square"/>
     </g>
     <g id="line2d_16">
      <g>
       <use xlink:href="#maf1b5bd21c" x="36.465625" y="198.967219" style="stroke: #000000; stroke-width: 0.8"/>
      </g>
     </g>
     <g id="text_8">
      <!-- 0.04 -->
      <g transform="translate(7.2 202.766437) scale(0.1 -0.1)">
       <use xlink:href="#DejaVuSans-30"/>
       <use xlink:href="#DejaVuSans-2e" x="63.623047"/>
       <use xlink:href="#DejaVuSans-30" x="95.410156"/>
       <use xlink:href="#DejaVuSans-34" x="159.033203"/>
      </g>
     </g>
    </g>
    <g id="ytick_4">
     <g id="line2d_17">
      <path d="M 36.465625 161.373619 
L 393.585625 161.373619 
" clip-path="url(#p096ddce706)" style="fill: none; stroke: #b0b0b0; stroke-width: 0.8; stroke-linecap: square"/>
     </g>
     <g id="line2d_18">
      <g>
       <use xlink:href="#maf1b5bd21c" x="36.465625" y="161.373619" style="stroke: #000000; stroke-width: 0.8"/>
      </g>
     </g>
     <g id="text_9">
      <!-- 0.06 -->
      <g transform="translate(7.2 165.172837) scale(0.1 -0.1)">
       <use xlink:href="#DejaVuSans-30"/>
       <use xlink:href="#DejaVuSans-2e" x="63.623047"/>
       <use xlink:href="#DejaVuSans-30" x="95.410156"/>
       <use xlink:href="#DejaVuSans-36" x="159.033203"/>
      </g>
     </g>
    </g>
    <g id="ytick_5">
     <g id="line2d_19">
      <path d="M 36.465625 123.780019 
L 393.585625 123.780019 
" clip-path="url(#p096ddce706)" style="fill: none; stroke: #b0b0b0; stroke-width: 0.8; stroke-linecap: square"/>
     </g>
     <g id="line2d_20">
      <g>
       <use xlink:href="#maf1b5bd21c" x="36.465625" y="123.780019" style="stroke: #000000; stroke-width: 0.8"/>
      </g>
     </g>
     <g id="text_10">
      <!-- 0.08 -->
      <g transform="translate(7.2 127.579237) scale(0.1 -0.1)">
       <use xlink:href="#DejaVuSans-30"/>
       <use xlink:href="#DejaVuSans-2e" x="63.623047"/>
       <use xlink:href="#DejaVuSans-30" x="95.410156"/>
       <use xlink:href="#DejaVuSans-38" x="159.033203"/>
      </g>
     </g>
    </g>
    <g id="ytick_6">
     <g id="line2d_21">
      <path d="M 36.465625 86.186419 
L 393.585625 86.186419 
" clip-path="url(#p096ddce706)" style="fill: none; stroke: #b0b0b0; stroke-width: 0.8; stroke-linecap: square"/>
     </g>
     <g id="line2d_22">
      <g>
       <use xlink:href="#maf1b5bd21c" x="36.465625" y="86.186419" style="stroke: #000000; stroke-width: 0.8"/>
      </g>
     </g>
     <g id="text_11">
      <!-- 0.10 -->
      <g transform="translate(7.2 89.985637) scale(0.1 -0.1)">
       <defs>
        <path id="DejaVuSans-31" d="M 794 531 
L 1825 531 
L 1825 4091 
L 703 3866 
L 703 4441 
L 1819 4666 
L 2450 4666 
L 2450 531 
L 3481 531 
L 3481 0 
L 794 0 
L 794 531 
z
" transform="scale(0.015625)"/>
       </defs>
       <use xlink:href="#DejaVuSans-30"/>
       <use xlink:href="#DejaVuSans-2e" x="63.623047"/>
       <use xlink:href="#DejaVuSans-31" x="95.410156"/>
       <use xlink:href="#DejaVuSans-30" x="159.033203"/>
      </g>
     </g>
    </g>
    <g id="ytick_7">
     <g id="line2d_23">
      <path d="M 36.465625 48.592819 
L 393.585625 48.592819 
" clip-path="url(#p096ddce706)" style="fill: none; stroke: #b0b0b0; stroke-width: 0.8; stroke-linecap: square"/>
     </g>
     <g id="line2d_24">
      <g>
       <use xlink:href="#maf1b5bd21c" x="36.465625" y="48.592819" style="stroke: #000000; stroke-width: 0.8"/>
      </g>
     </g>
     <g id="text_12">
      <!-- 0.12 -->
      <g transform="translate(7.2 52.392037) scale(0.1 -0.1)">
       <use xlink:href="#DejaVuSans-30"/>
       <use xlink:href="#DejaVuSans-2e" x="63.623047"/>
       <use xlink:href="#DejaVuSans-31" x="95.410156"/>
       <use xlink:href="#DejaVuSans-32" x="159.033203"/>
      </g>
     </g>
    </g>
    <g id="ytick_8">
     <g id="line2d_25">
      <path d="M 36.465625 10.999219 
L 393.585625 10.999219 
" clip-path="url(#p096ddce706)" style="fill: none; stroke: #b0b0b0; stroke-width: 0.8; stroke-linecap: square"/>
     </g>
     <g id="line2d_26">
      <g>
       <use xlink:href="#maf1b5bd21c" x="36.465625" y="10.999219" style="stroke: #000000; stroke-width: 0.8"/>
      </g>
     </g>
     <g id="text_13">
      <!-- 0.14 -->
      <g transform="translate(7.2 14.798437) scale(0.1 -0.1)">
       <use xlink:href="#DejaVuSans-30"/>
       <use xlink:href="#DejaVuSans-2e" x="63.623047"/>
       <use xlink:href="#DejaVuSans-31" x="95.410156"/>
       <use xlink:href="#DejaVuSans-34" x="159.033203"/>
      </g>
     </g>
    </g>
   </g>
   <g id="LineCollection_1">
    <path d="M 242.758075 274.154419 
L 242.758075 86.186419 
" clip-path="url(#p096ddce706)" style="fill: none; stroke: #ff0000; stroke-width: 1.5"/>
   </g>
   <g id="patch_91">
    <path d="M 36.465625 274.154419 
L 36.465625 8.042419 
" style="fill: none; stroke: #000000; stroke-width: 0.8; stroke-linejoin: miter; stroke-linecap: square"/>
   </g>
   <g id="patch_92">
    <path d="M 393.585625 274.154419 
L 393.585625 8.042419 
" style="fill: none; stroke: #000000; stroke-width: 0.8; stroke-linejoin: miter; stroke-linecap: square"/>
   </g>
   <g id="patch_93">
    <path d="M 36.465625 274.154419 
L 393.585625 274.154419 
" style="fill: none; stroke: #000000; stroke-width: 0.8; stroke-linejoin: miter; stroke-linecap: square"/>
   </g>
   <g id="patch_94">
    <path d="M 36.465625 8.042419 
L 393.585625 8.042419 
" style="fill: none; stroke: #000000; stroke-width: 0.8; stroke-linejoin: miter; stroke-linecap: square"/>
   </g>
   <g id="legend_1">
    <g id="patch_95">
     <path d="M 262.621563 30.720544 
L 386.585625 30.720544 
Q 388.585625 30.720544 388.585625 28.720544 
L 388.585625 15.042419 
Q 388.585625 13.042419 386.585625 13.042419 
L 262.621563 13.042419 
Q 260.621563 13.042419 260.621563 15.042419 
L 260.621563 28.720544 
Q 260.621563 30.720544 262.621563 30.720544 
z
" style="fill: #ffffff; opacity: 0.8; stroke: #cccccc; stroke-linejoin: miter"/>
    </g>
    <g id="line2d_27">
     <path d="M 264.621563 21.140856 
L 284.621563 21.140856 
" style="fill: none; stroke: #ff0000; stroke-width: 1.5"/>
    </g>
    <g id="text_14">
     <!-- Reference note 51 -->
     <g transform="translate(292.621563 24.640856) scale(0.1 -0.1)">
      <defs>
       <path id="DejaVuSans-52" d="M 2841 2188 
Q 3044 2119 3236 1894 
Q 3428 1669 3622 1275 
L 4263 0 
L 3584 0 
L 2988 1197 
Q 2756 1666 2539 1819 
Q 2322 1972 1947 1972 
L 1259 1972 
L 1259 0 
L 628 0 
L 628 4666 
L 2053 4666 
Q 2853 4666 3247 4331 
Q 3641 3997 3641 3322 
Q 3641 2881 3436 2590 
Q 3231 2300 2841 2188 
z
M 1259 4147 
L 1259 2491 
L 2053 2491 
Q 2509 2491 2742 2702 
Q 2975 2913 2975 3322 
Q 2975 3731 2742 3939 
Q 2509 4147 2053 4147 
L 1259 4147 
z
" transform="scale(0.015625)"/>
       <path id="DejaVuSans-65" d="M 3597 1894 
L 3597 1613 
L 953 1613 
Q 991 1019 1311 708 
Q 1631 397 2203 397 
Q 2534 397 2845 478 
Q 3156 559 3463 722 
L 3463 178 
Q 3153 47 2828 -22 
Q 2503 -91 2169 -91 
Q 1331 -91 842 396 
Q 353 884 353 1716 
Q 353 2575 817 3079 
Q 1281 3584 2069 3584 
Q 2775 3584 3186 3129 
Q 3597 2675 3597 1894 
z
M 3022 2063 
Q 3016 2534 2758 2815 
Q 2500 3097 2075 3097 
Q 1594 3097 1305 2825 
Q 1016 2553 972 2059 
L 3022 2063 
z
" transform="scale(0.015625)"/>
       <path id="DejaVuSans-66" d="M 2375 4863 
L 2375 4384 
L 1825 4384 
Q 1516 4384 1395 4259 
Q 1275 4134 1275 3809 
L 1275 3500 
L 2222 3500 
L 2222 3053 
L 1275 3053 
L 1275 0 
L 697 0 
L 697 3053 
L 147 3053 
L 147 3500 
L 697 3500 
L 697 3744 
Q 697 4328 969 4595 
Q 1241 4863 1831 4863 
L 2375 4863 
z
" transform="scale(0.015625)"/>
       <path id="DejaVuSans-72" d="M 2631 2963 
Q 2534 3019 2420 3045 
Q 2306 3072 2169 3072 
Q 1681 3072 1420 2755 
Q 1159 2438 1159 1844 
L 1159 0 
L 581 0 
L 581 3500 
L 1159 3500 
L 1159 2956 
Q 1341 3275 1631 3429 
Q 1922 3584 2338 3584 
Q 2397 3584 2469 3576 
Q 2541 3569 2628 3553 
L 2631 2963 
z
" transform="scale(0.015625)"/>
       <path id="DejaVuSans-6e" d="M 3513 2113 
L 3513 0 
L 2938 0 
L 2938 2094 
Q 2938 2591 2744 2837 
Q 2550 3084 2163 3084 
Q 1697 3084 1428 2787 
Q 1159 2491 1159 1978 
L 1159 0 
L 581 0 
L 581 3500 
L 1159 3500 
L 1159 2956 
Q 1366 3272 1645 3428 
Q 1925 3584 2291 3584 
Q 2894 3584 3203 3211 
Q 3513 2838 3513 2113 
z
" transform="scale(0.015625)"/>
       <path id="DejaVuSans-63" d="M 3122 3366 
L 3122 2828 
Q 2878 2963 2633 3030 
Q 2388 3097 2138 3097 
Q 1578 3097 1268 2742 
Q 959 2388 959 1747 
Q 959 1106 1268 751 
Q 1578 397 2138 397 
Q 2388 397 2633 464 
Q 2878 531 3122 666 
L 3122 134 
Q 2881 22 2623 -34 
Q 2366 -91 2075 -91 
Q 1284 -91 818 406 
Q 353 903 353 1747 
Q 353 2603 823 3093 
Q 1294 3584 2113 3584 
Q 2378 3584 2631 3529 
Q 2884 3475 3122 3366 
z
" transform="scale(0.015625)"/>
       <path id="DejaVuSans-20" transform="scale(0.015625)"/>
       <path id="DejaVuSans-6f" d="M 1959 3097 
Q 1497 3097 1228 2736 
Q 959 2375 959 1747 
Q 959 1119 1226 758 
Q 1494 397 1959 397 
Q 2419 397 2687 759 
Q 2956 1122 2956 1747 
Q 2956 2369 2687 2733 
Q 2419 3097 1959 3097 
z
M 1959 3584 
Q 2709 3584 3137 3096 
Q 3566 2609 3566 1747 
Q 3566 888 3137 398 
Q 2709 -91 1959 -91 
Q 1206 -91 779 398 
Q 353 888 353 1747 
Q 353 2609 779 3096 
Q 1206 3584 1959 3584 
z
" transform="scale(0.015625)"/>
       <path id="DejaVuSans-74" d="M 1172 4494 
L 1172 3500 
L 2356 3500 
L 2356 3053 
L 1172 3053 
L 1172 1153 
Q 1172 725 1289 603 
Q 1406 481 1766 481 
L 2356 481 
L 2356 0 
L 1766 0 
Q 1100 0 847 248 
Q 594 497 594 1153 
L 594 3053 
L 172 3053 
L 172 3500 
L 594 3500 
L 594 4494 
L 1172 4494 
z
" transform="scale(0.015625)"/>
       <path id="DejaVuSans-35" d="M 691 4666 
L 3169 4666 
L 3169 4134 
L 1269 4134 
L 1269 2991 
Q 1406 3038 1543 3061 
Q 1681 3084 1819 3084 
Q 2600 3084 3056 2656 
Q 3513 2228 3513 1497 
Q 3513 744 3044 326 
Q 2575 -91 1722 -91 
Q 1428 -91 1123 -41 
Q 819 9 494 109 
L 494 744 
Q 775 591 1075 516 
Q 1375 441 1709 441 
Q 2250 441 2565 725 
Q 2881 1009 2881 1497 
Q 2881 1984 2565 2268 
Q 2250 2553 1709 2553 
Q 1456 2553 1204 2497 
Q 953 2441 691 2322 
L 691 4666 
z
" transform="scale(0.015625)"/>
      </defs>
      <use xlink:href="#DejaVuSans-52"/>
      <use xlink:href="#DejaVuSans-65" x="64.982422"/>
      <use xlink:href="#DejaVuSans-66" x="126.505859"/>
      <use xlink:href="#DejaVuSans-65" x="161.710938"/>
      <use xlink:href="#DejaVuSans-72" x="223.234375"/>
      <use xlink:href="#DejaVuSans-65" x="262.097656"/>
      <use xlink:href="#DejaVuSans-6e" x="323.621094"/>
      <use xlink:href="#DejaVuSans-63" x="387"/>
      <use xlink:href="#DejaVuSans-65" x="441.980469"/>
      <use xlink:href="#DejaVuSans-20" x="503.503906"/>
      <use xlink:href="#DejaVuSans-6e" x="535.291016"/>
      <use xlink:href="#DejaVuSans-6f" x="598.669922"/>
      <use xlink:href="#DejaVuSans-74" x="659.851562"/>
      <use xlink:href="#DejaVuSans-65" x="699.060547"/>
      <use xlink:href="#DejaVuSans-20" x="760.583984"/>
      <use xlink:href="#DejaVuSans-35" x="792.371094"/>
      <use xlink:href="#DejaVuSans-31" x="855.994141"/>
     </g>
    </g>
   </g>
  </g>
 </g>
 <defs>
  <clipPath id="p096ddce706">
   <rect x="36.465625" y="8.042419" width="357.12" height="266.112"/>
  </clipPath>
 </defs>
</svg>