<?xml version="1.0" encoding="utf-8" standalone="no"?>
<!DOCTYPE svg PUBLIC "-//W3C//DTD SVG 1.1//EN"
  "http://www.w3.org/Graphics/SVG/1.1/DTD/svg11.dtd">
<svg xmlns:xlink="http://www.w3.org/1999/xlink" width="394.423125pt" height="325.986375pt" viewBox="0 0 394.423125 325.986375" xmlns="http://www.w3.org/2000/svg" version="1.1">
 <metadata>
  <rdf:RDF xmlns:dc="http://purl.org/dc/elements/1.1/" xmlns:cc="http://creativecommons.org/ns#" xmlns:rdf="http://www.w3.org/1999/02/22-rdf-syntax-ns#">
   <cc:Work>
    <dc:type rdf:resource="http://purl.org/dc/dcmitype/StillImage"/>
    <dc:date>2024-08-22T20:17:15.168229</dc:date>
    <dc:format>image/svg+xml</dc:format>
    <dc:creator>
     <cc:Agent>
      <dc:title>Matplotlib v3.8.4, https://matplotlib.org/</dc:title>
     </cc:Agent>
    </dc:creator>
   </cc:Work>
  </rdf:RDF>
 </metadata>
 <defs>
  <style type="text/css">*{stroke-linejoin: round; stroke-linecap: butt}</style>
 </defs>
 <g id="figure_1">
  <g id="patch_1">
   <path d="M 0 325.986375 
L 394.423125 325.986375 
L 394.423125 0 
L 0 0 
z
" style="fill: #ffffff"/>
  </g>
  <g id="axes_1">
   <g id="patch_2">
    <path d="M 30.103125 288.430125 
L 387.223125 288.430125 
L 387.223125 22.318125 
L 30.103125 22.318125 
z
" style="fill: #ffffff"/>
   </g>
   <g id="matplotlib.axis_1">
    <g id="xtick_1">
     <g id="line2d_1">
      <path d="M 45.444644 288.430125 
L 45.444644 22.318125 
" clip-path="url(#p7fc6672574)" style="fill: none; stroke: #b0b0b0; stroke-width: 0.8; stroke-linecap: square"/>
     </g>
     <g id="line2d_2">
      <defs>
       <path id="ma14a23777f" d="M 0 0 
L 0 3.5 
" style="stroke: #000000; stroke-width: 0.8"/>
      </defs>
      <g>
       <use xlink:href="#ma14a23777f" x="45.444644" y="288.430125" style="stroke: #000000; stroke-width: 0.8"/>
      </g>
     </g>
     <g id="text_1">
      <!-- 0 -->
      <g transform="translate(42.263394 303.028562) scale(0.1 -0.1)">
       <defs>
        <path id="DejaVuSans-30" d="M 2034 4250 
Q 1547 4250 1301 3770 
Q 1056 3291 1056 2328 
Q 1056 1369 1301 889 
Q 1547 409 2034 409 
Q 2525 409 2770 889 
Q 3016 1369 3016 2328 
Q 3016 3291 2770 3770 
Q 2525 4250 2034 4250 
z
M 2034 4750 
Q 2819 4750 3233 4129 
Q 3647 3509 3647 2328 
Q 3647 1150 3233 529 
Q 2819 -91 2034 -91 
Q 1250 -91 836 529 
Q 422 1150 422 2328 
Q 422 3509 836 4129 
Q 1250 4750 2034 4750 
z
" transform="scale(0.015625)"/>
       </defs>
       <use xlink:href="#DejaVuSans-30"/>
      </g>
     </g>
    </g>
    <g id="xtick_2">
     <g id="line2d_3">
      <path d="M 90.914468 288.430125 
L 90.914468 22.318125 
" clip-path="url(#p7fc6672574)" style="fill: none; stroke: #b0b0b0; stroke-width: 0.8; stroke-linecap: square"/>
     </g>
     <g id="line2d_4">
      <g>
       <use xlink:href="#ma14a23777f" x="90.914468" y="288.430125" style="stroke: #000000; stroke-width: 0.8"/>
      </g>
     </g>
     <g id="text_2">
      <!-- 2500 -->
      <g transform="translate(78.189468 303.028562) scale(0.1 -0.1)">
       <defs>
        <path id="DejaVuSans-32" d="M 1228 531 
L 3431 531 
L 3431 0 
L 469 0 
L 469 531 
Q 828 903 1448 1529 
Q 2069 2156 2228 2338 
Q 2531 2678 2651 2914 
Q 2772 3150 2772 3378 
Q 2772 3750 2511 3984 
Q 2250 4219 1831 4219 
Q 1534 4219 1204 4116 
Q 875 4013 500 3803 
L 500 4441 
Q 881 4594 1212 4672 
Q 1544 4750 1819 4750 
Q 2544 4750 2975 4387 
Q 3406 4025 3406 3419 
Q 3406 3131 3298 2873 
Q 3191 2616 2906 2266 
Q 2828 2175 2409 1742 
Q 1991 1309 1228 531 
z
" transform="scale(0.015625)"/>
        <path id="DejaVuSans-35" d="M 691 4666 
L 3169 4666 
L 3169 4134 
L 1269 4134 
L 1269 2991 
Q 1406 3038 1543 3061 
Q 1681 3084 1819 3084 
Q 2600 3084 3056 2656 
Q 3513 2228 3513 1497 
Q 3513 744 3044 326 
Q 2575 -91 1722 -91 
Q 1428 -91 1123 -41 
Q 819 9 494 109 
L 494 744 
Q 775 591 1075 516 
Q 1375 441 1709 441 
Q 2250 441 2565 725 
Q 2881 1009 2881 1497 
Q 2881 1984 2565 2268 
Q 2250 2553 1709 2553 
Q 1456 2553 1204 2497 
Q 953 2441 691 2322 
L 691 4666 
z
" transform="scale(0.015625)"/>
       </defs>
       <use xlink:href="#DejaVuSans-32"/>
       <use xlink:href="#DejaVuSans-35" x="63.623047"/>
       <use xlink:href="#DejaVuSans-30" x="127.246094"/>
       <use xlink:href="#DejaVuSans-30" x="190.869141"/>
      </g>
     </g>
    </g>
    <g id="xtick_3">
     <g id="line2d_5">
      <path d="M 136.384292 288.430125 
L 136.384292 22.318125 
" clip-path="url(#p7fc6672574)" style="fill: none; stroke: #b0b0b0; stroke-width: 0.8; stroke-linecap: square"/>
     </g>
     <g id="line2d_6">
      <g>
       <use xlink:href="#ma14a23777f" x="136.384292" y="288.430125" style="stroke: #000000; stroke-width: 0.8"/>
      </g>
     </g>
     <g id="text_3">
      <!-- 5000 -->
      <g transform="translate(123.659292 303.028562) scale(0.1 -0.1)">
       <use xlink:href="#DejaVuSans-35"/>
       <use xlink:href="#DejaVuSans-30" x="63.623047"/>
       <use xlink:href="#DejaVuSans-30" x="127.246094"/>
       <use xlink:href="#DejaVuSans-30" x="190.869141"/>
      </g>
     </g>
    </g>
    <g id="xtick_4">
     <g id="line2d_7">
      <path d="M 181.854117 288.430125 
L 181.854117 22.318125 
" clip-path="url(#p7fc6672574)" style="fill: none; stroke: #b0b0b0; stroke-width: 0.8; stroke-linecap: square"/>
     </g>
     <g id="line2d_8">
      <g>
       <use xlink:href="#ma14a23777f" x="181.854117" y="288.430125" style="stroke: #000000; stroke-width: 0.8"/>
      </g>
     </g>
     <g id="text_4">
      <!-- 7500 -->
      <g transform="translate(169.129117 303.028562) scale(0.1 -0.1)">
       <defs>
        <path id="DejaVuSans-37" d="M 525 4666 
L 3525 4666 
L 3525 4397 
L 1831 0 
L 1172 0 
L 2766 4134 
L 525 4134 
L 525 4666 
z
" transform="scale(0.015625)"/>
       </defs>
       <use xlink:href="#DejaVuSans-37"/>
       <use xlink:href="#DejaVuSans-35" x="63.623047"/>
       <use xlink:href="#DejaVuSans-30" x="127.246094"/>
       <use xlink:href="#DejaVuSans-30" x="190.869141"/>
      </g>
     </g>
    </g>
    <g id="xtick_5">
     <g id="line2d_9">
      <path d="M 227.323941 288.430125 
L 227.323941 22.318125 
" clip-path="url(#p7fc6672574)" style="fill: none; stroke: #b0b0b0; stroke-width: 0.8; stroke-linecap: square"/>
     </g>
     <g id="line2d_10">
      <g>
       <use xlink:href="#ma14a23777f" x="227.323941" y="288.430125" style="stroke: #000000; stroke-width: 0.8"/>
      </g>
     </g>
     <g id="text_5">
      <!-- 10000 -->
      <g transform="translate(211.417691 303.028562) scale(0.1 -0.1)">
       <defs>
        <path id="DejaVuSans-31" d="M 794 531 
L 1825 531 
L 1825 4091 
L 703 3866 
L 703 4441 
L 1819 4666 
L 2450 4666 
L 2450 531 
L 3481 531 
L 3481 0 
L 794 0 
L 794 531 
z
" transform="scale(0.015625)"/>
       </defs>
       <use xlink:href="#DejaVuSans-31"/>
       <use xlink:href="#DejaVuSans-30" x="63.623047"/>
       <use xlink:href="#DejaVuSans-30" x="127.246094"/>
       <use xlink:href="#DejaVuSans-30" x="190.869141"/>
       <use xlink:href="#DejaVuSans-30" x="254.492188"/>
      </g>
     </g>
    </g>
    <g id="xtick_6">
     <g id="line2d_11">
      <path d="M 272.793765 288.430125 
L 272.793765 22.318125 
" clip-path="url(#p7fc6672574)" style="fill: none; stroke: #b0b0b0; stroke-width: 0.8; stroke-linecap: square"/>
     </g>
     <g id="line2d_12">
      <g>
       <use xlink:href="#ma14a23777f" x="272.793765" y="288.430125" style="stroke: #000000; stroke-width: 0.8"/>
      </g>
     </g>
     <g id="text_6">
      <!-- 12500 -->
      <g transform="translate(256.887515 303.028562) scale(0.1 -0.1)">
       <use xlink:href="#DejaVuSans-31"/>
       <use xlink:href="#DejaVuSans-32" x="63.623047"/>
       <use xlink:href="#DejaVuSans-35" x="127.246094"/>
       <use xlink:href="#DejaVuSans-30" x="190.869141"/>
       <use xlink:href="#DejaVuSans-30" x="254.492188"/>
      </g>
     </g>
    </g>
    <g id="xtick_7">
     <g id="line2d_13">
      <path d="M 318.263589 288.430125 
L 318.263589 22.318125 
" clip-path="url(#p7fc6672574)" style="fill: none; stroke: #b0b0b0; stroke-width: 0.8; stroke-linecap: square"/>
     </g>
     <g id="line2d_14">
      <g>
       <use xlink:href="#ma14a23777f" x="318.263589" y="288.430125" style="stroke: #000000; stroke-width: 0.8"/>
      </g>
     </g>
     <g id="text_7">
      <!-- 15000 -->
      <g transform="translate(302.357339 303.028562) scale(0.1 -0.1)">
       <use xlink:href="#DejaVuSans-31"/>
       <use xlink:href="#DejaVuSans-35" x="63.623047"/>
       <use xlink:href="#DejaVuSans-30" x="127.246094"/>
       <use xlink:href="#DejaVuSans-30" x="190.869141"/>
       <use xlink:href="#DejaVuSans-30" x="254.492188"/>
      </g>
     </g>
    </g>
    <g id="xtick_8">
     <g id="line2d_15">
      <path d="M 363.733414 288.430125 
L 363.733414 22.318125 
" clip-path="url(#p7fc6672574)" style="fill: none; stroke: #b0b0b0; stroke-width: 0.8; stroke-linecap: square"/>
     </g>
     <g id="line2d_16">
      <g>
       <use xlink:href="#ma14a23777f" x="363.733414" y="288.430125" style="stroke: #000000; stroke-width: 0.8"/>
      </g>
     </g>
     <g id="text_8">
      <!-- 17500 -->
      <g transform="translate(347.827164 303.028562) scale(0.1 -0.1)">
       <use xlink:href="#DejaVuSans-31"/>
       <use xlink:href="#DejaVuSans-37" x="63.623047"/>
       <use xlink:href="#DejaVuSans-35" x="127.246094"/>
       <use xlink:href="#DejaVuSans-30" x="190.869141"/>
       <use xlink:href="#DejaVuSans-30" x="254.492188"/>
      </g>
     </g>
    </g>
    <g id="text_9">
     <!-- step -->
     <g transform="translate(197.8475 316.706687) scale(0.1 -0.1)">
      <defs>
       <path id="DejaVuSans-73" d="M 2834 3397 
L 2834 2853 
Q 2591 2978 2328 3040 
Q 2066 3103 1784 3103 
Q 1356 3103 1142 2972 
Q 928 2841 928 2578 
Q 928 2378 1081 2264 
Q 1234 2150 1697 2047 
L 1894 2003 
Q 2506 1872 2764 1633 
Q 3022 1394 3022 966 
Q 3022 478 2636 193 
Q 2250 -91 1575 -91 
Q 1294 -91 989 -36 
Q 684 19 347 128 
L 347 722 
Q 666 556 975 473 
Q 1284 391 1588 391 
Q 1994 391 2212 530 
Q 2431 669 2431 922 
Q 2431 1156 2273 1281 
Q 2116 1406 1581 1522 
L 1381 1569 
Q 847 1681 609 1914 
Q 372 2147 372 2553 
Q 372 3047 722 3315 
Q 1072 3584 1716 3584 
Q 2034 3584 2315 3537 
Q 2597 3491 2834 3397 
z
" transform="scale(0.015625)"/>
       <path id="DejaVuSans-74" d="M 1172 4494 
L 1172 3500 
L 2356 3500 
L 2356 3053 
L 1172 3053 
L 1172 1153 
Q 1172 725 1289 603 
Q 1406 481 1766 481 
L 2356 481 
L 2356 0 
L 1766 0 
Q 1100 0 847 248 
Q 594 497 594 1153 
L 594 3053 
L 172 3053 
L 172 3500 
L 594 3500 
L 594 4494 
L 1172 4494 
z
" transform="scale(0.015625)"/>
       <path id="DejaVuSans-65" d="M 3597 1894 
L 3597 1613 
L 953 1613 
Q 991 1019 1311 708 
Q 1631 397 2203 397 
Q 2534 397 2845 478 
Q 3156 559 3463 722 
L 3463 178 
Q 3153 47 2828 -22 
Q 2503 -91 2169 -91 
Q 1331 -91 842 396 
Q 353 884 353 1716 
Q 353 2575 817 3079 
Q 1281 3584 2069 3584 
Q 2775 3584 3186 3129 
Q 3597 2675 3597 1894 
z
M 3022 2063 
Q 3016 2534 2758 2815 
Q 2500 3097 2075 3097 
Q 1594 3097 1305 2825 
Q 1016 2553 972 2059 
L 3022 2063 
z
" transform="scale(0.015625)"/>
       <path id="DejaVuSans-70" d="M 1159 525 
L 1159 -1331 
L 581 -1331 
L 581 3500 
L 1159 3500 
L 1159 2969 
Q 1341 3281 1617 3432 
Q 1894 3584 2278 3584 
Q 2916 3584 3314 3078 
Q 3713 2572 3713 1747 
Q 3713 922 3314 415 
Q 2916 -91 2278 -91 
Q 1894 -91 1617 61 
Q 1341 213 1159 525 
z
M 3116 1747 
Q 3116 2381 2855 2742 
Q 2594 3103 2138 3103 
Q 1681 3103 1420 2742 
Q 1159 2381 1159 1747 
Q 1159 1113 1420 752 
Q 1681 391 2138 391 
Q 2594 391 2855 752 
Q 3116 1113 3116 1747 
z
" transform="scale(0.015625)"/>
      </defs>
      <use xlink:href="#DejaVuSans-73"/>
      <use xlink:href="#DejaVuSans-74" x="52.099609"/>
      <use xlink:href="#DejaVuSans-65" x="91.308594"/>
      <use xlink:href="#DejaVuSans-70" x="152.832031"/>
     </g>
    </g>
   </g>
   <g id="matplotlib.axis_2">
    <g id="ytick_1">
     <g id="line2d_17">
      <path d="M 30.103125 257.970919 
L 387.223125 257.970919 
" clip-path="url(#p7fc6672574)" style="fill: none; stroke: #b0b0b0; stroke-width: 0.8; stroke-linecap: square"/>
     </g>
     <g id="line2d_18">
      <defs>
       <path id="md5152e9461" d="M 0 0 
L -3.5 0 
" style="stroke: #000000; stroke-width: 0.8"/>
      </defs>
      <g>
       <use xlink:href="#md5152e9461" x="30.103125" y="257.970919" style="stroke: #000000; stroke-width: 0.8"/>
      </g>
     </g>
     <g id="text_10">
      <!-- 3.4 -->
      <g transform="translate(7.2 261.770138) scale(0.1 -0.1)">
       <defs>
        <path id="DejaVuSans-33" d="M 2597 2516 
Q 3050 2419 3304 2112 
Q 3559 1806 3559 1356 
Q 3559 666 3084 287 
Q 2609 -91 1734 -91 
Q 1441 -91 1130 -33 
Q 819 25 488 141 
L 488 750 
Q 750 597 1062 519 
Q 1375 441 1716 441 
Q 2309 441 2620 675 
Q 2931 909 2931 1356 
Q 2931 1769 2642 2001 
Q 2353 2234 1838 2234 
L 1294 2234 
L 1294 2753 
L 1863 2753 
Q 2328 2753 2575 2939 
Q 2822 3125 2822 3475 
Q 2822 3834 2567 4026 
Q 2313 4219 1838 4219 
Q 1578 4219 1281 4162 
Q 984 4106 628 3988 
L 628 4550 
Q 988 4650 1302 4700 
Q 1616 4750 1894 4750 
Q 2613 4750 3031 4423 
Q 3450 4097 3450 3541 
Q 3450 3153 3228 2886 
Q 3006 2619 2597 2516 
z
" transform="scale(0.015625)"/>
        <path id="DejaVuSans-2e" d="M 684 794 
L 1344 794 
L 1344 0 
L 684 0 
L 684 794 
z
" transform="scale(0.015625)"/>
        <path id="DejaVuSans-34" d="M 2419 4116 
L 825 1625 
L 2419 1625 
L 2419 4116 
z
M 2253 4666 
L 3047 4666 
L 3047 1625 
L 3713 1625 
L 3713 1100 
L 3047 1100 
L 3047 0 
L 2419 0 
L 2419 1100 
L 313 1100 
L 313 1709 
L 2253 4666 
z
" transform="scale(0.015625)"/>
       </defs>
       <use xlink:href="#DejaVuSans-33"/>
       <use xlink:href="#DejaVuSans-2e" x="63.623047"/>
       <use xlink:href="#DejaVuSans-34" x="95.410156"/>
      </g>
     </g>
    </g>
    <g id="ytick_2">
     <g id="line2d_19">
      <path d="M 30.103125 223.642433 
L 387.223125 223.642433 
" clip-path="url(#p7fc6672574)" style="fill: none; stroke: #b0b0b0; stroke-width: 0.8; stroke-linecap: square"/>
     </g>
     <g id="line2d_20">
      <g>
       <use xlink:href="#md5152e9461" x="30.103125" y="223.642433" style="stroke: #000000; stroke-width: 0.8"/>
      </g>
     </g>
     <g id="text_11">
      <!-- 3.6 -->
      <g transform="translate(7.2 227.441652) scale(0.1 -0.1)">
       <defs>
        <path id="DejaVuSans-36" d="M 2113 2584 
Q 1688 2584 1439 2293 
Q 1191 2003 1191 1497 
Q 1191 994 1439 701 
Q 1688 409 2113 409 
Q 2538 409 2786 701 
Q 3034 994 3034 1497 
Q 3034 2003 2786 2293 
Q 2538 2584 2113 2584 
z
M 3366 4563 
L 3366 3988 
Q 3128 4100 2886 4159 
Q 2644 4219 2406 4219 
Q 1781 4219 1451 3797 
Q 1122 3375 1075 2522 
Q 1259 2794 1537 2939 
Q 1816 3084 2150 3084 
Q 2853 3084 3261 2657 
Q 3669 2231 3669 1497 
Q 3669 778 3244 343 
Q 2819 -91 2113 -91 
Q 1303 -91 875 529 
Q 447 1150 447 2328 
Q 447 3434 972 4092 
Q 1497 4750 2381 4750 
Q 2619 4750 2861 4703 
Q 3103 4656 3366 4563 
z
" transform="scale(0.015625)"/>
       </defs>
       <use xlink:href="#DejaVuSans-33"/>
       <use xlink:href="#DejaVuSans-2e" x="63.623047"/>
       <use xlink:href="#DejaVuSans-36" x="95.410156"/>
      </g>
     </g>
    </g>
    <g id="ytick_3">
     <g id="line2d_21">
      <path d="M 30.103125 189.313947 
L 387.223125 189.313947 
" clip-path="url(#p7fc6672574)" style="fill: none; stroke: #b0b0b0; stroke-width: 0.8; stroke-linecap: square"/>
     </g>
     <g id="line2d_22">
      <g>
       <use xlink:href="#md5152e9461" x="30.103125" y="189.313947" style="stroke: #000000; stroke-width: 0.8"/>
      </g>
     </g>
     <g id="text_12">
      <!-- 3.8 -->
      <g transform="translate(7.2 193.113166) scale(0.1 -0.1)">
       <defs>
        <path id="DejaVuSans-38" d="M 2034 2216 
Q 1584 2216 1326 1975 
Q 1069 1734 1069 1313 
Q 1069 891 1326 650 
Q 1584 409 2034 409 
Q 2484 409 2743 651 
Q 3003 894 3003 1313 
Q 3003 1734 2745 1975 
Q 2488 2216 2034 2216 
z
M 1403 2484 
Q 997 2584 770 2862 
Q 544 3141 544 3541 
Q 544 4100 942 4425 
Q 1341 4750 2034 4750 
Q 2731 4750 3128 4425 
Q 3525 4100 3525 3541 
Q 3525 3141 3298 2862 
Q 3072 2584 2669 2484 
Q 3125 2378 3379 2068 
Q 3634 1759 3634 1313 
Q 3634 634 3220 271 
Q 2806 -91 2034 -91 
Q 1263 -91 848 271 
Q 434 634 434 1313 
Q 434 1759 690 2068 
Q 947 2378 1403 2484 
z
M 1172 3481 
Q 1172 3119 1398 2916 
Q 1625 2713 2034 2713 
Q 2441 2713 2670 2916 
Q 2900 3119 2900 3481 
Q 2900 3844 2670 4047 
Q 2441 4250 2034 4250 
Q 1625 4250 1398 4047 
Q 1172 3844 1172 3481 
z
" transform="scale(0.015625)"/>
       </defs>
       <use xlink:href="#DejaVuSans-33"/>
       <use xlink:href="#DejaVuSans-2e" x="63.623047"/>
       <use xlink:href="#DejaVuSans-38" x="95.410156"/>
      </g>
     </g>
    </g>
    <g id="ytick_4">
     <g id="line2d_23">
      <path d="M 30.103125 154.985461 
L 387.223125 154.985461 
" clip-path="url(#p7fc6672574)" style="fill: none; stroke: #b0b0b0; stroke-width: 0.8; stroke-linecap: square"/>
     </g>
     <g id="line2d_24">
      <g>
       <use xlink:href="#md5152e9461" x="30.103125" y="154.985461" style="stroke: #000000; stroke-width: 0.8"/>
      </g>
     </g>
     <g id="text_13">
      <!-- 4.0 -->
      <g transform="translate(7.2 158.78468) scale(0.1 -0.1)">
       <use xlink:href="#DejaVuSans-34"/>
       <use xlink:href="#DejaVuSans-2e" x="63.623047"/>
       <use xlink:href="#DejaVuSans-30" x="95.410156"/>
      </g>
     </g>
    </g>
    <g id="ytick_5">
     <g id="line2d_25">
      <path d="M 30.103125 120.656975 
L 387.223125 120.656975 
" clip-path="url(#p7fc6672574)" style="fill: none; stroke: #b0b0b0; stroke-width: 0.8; stroke-linecap: square"/>
     </g>
     <g id="line2d_26">
      <g>
       <use xlink:href="#md5152e9461" x="30.103125" y="120.656975" style="stroke: #000000; stroke-width: 0.8"/>
      </g>
     </g>
     <g id="text_14">
      <!-- 4.2 -->
      <g transform="translate(7.2 124.456194) scale(0.1 -0.1)">
       <use xlink:href="#DejaVuSans-34"/>
       <use xlink:href="#DejaVuSans-2e" x="63.623047"/>
       <use xlink:href="#DejaVuSans-32" x="95.410156"/>
      </g>
     </g>
    </g>
    <g id="ytick_6">
     <g id="line2d_27">
      <path d="M 30.103125 86.328489 
L 387.223125 86.328489 
" clip-path="url(#p7fc6672574)" style="fill: none; stroke: #b0b0b0; stroke-width: 0.8; stroke-linecap: square"/>
     </g>
     <g id="line2d_28">
      <g>
       <use xlink:href="#md5152e9461" x="30.103125" y="86.328489" style="stroke: #000000; stroke-width: 0.8"/>
      </g>
     </g>
     <g id="text_15">
      <!-- 4.4 -->
      <g transform="translate(7.2 90.127708) scale(0.1 -0.1)">
       <use xlink:href="#DejaVuSans-34"/>
       <use xlink:href="#DejaVuSans-2e" x="63.623047"/>
       <use xlink:href="#DejaVuSans-34" x="95.410156"/>
      </g>
     </g>
    </g>
    <g id="ytick_7">
     <g id="line2d_29">
      <path d="M 30.103125 52.000003 
L 387.223125 52.000003 
" clip-path="url(#p7fc6672574)" style="fill: none; stroke: #b0b0b0; stroke-width: 0.8; stroke-linecap: square"/>
     </g>
     <g id="line2d_30">
      <g>
       <use xlink:href="#md5152e9461" x="30.103125" y="52.000003" style="stroke: #000000; stroke-width: 0.8"/>
      </g>
     </g>
     <g id="text_16">
      <!-- 4.6 -->
      <g transform="translate(7.2 55.799222) scale(0.1 -0.1)">
       <use xlink:href="#DejaVuSans-34"/>
       <use xlink:href="#DejaVuSans-2e" x="63.623047"/>
       <use xlink:href="#DejaVuSans-36" x="95.410156"/>
      </g>
     </g>
    </g>
   </g>
   <g id="line2d_31">
    <path d="M 46.335852 88.993935 
L 47.245249 107.718628 
L 48.154645 117.014475 
L 49.064042 175.763002 
L 49.973438 191.154497 
L 50.882835 98.320392 
L 51.792231 143.89597 
L 52.701628 156.269781 
L 53.611024 131.389571 
L 54.520421 121.500262 
L 55.429817 190.375573 
L 56.339214 124.956515 
L 57.24861 98.449135 
L 58.158007 169.530837 
L 59.067403 130.330654 
L 59.9768 158.942895 
L 60.886196 214.490242 
L 61.795593 140.681162 
L 62.704989 158.531744 
L 63.614386 91.48392 
L 64.523782 176.076716 
L 65.433178 106.345097 
L 66.342575 149.08432 
L 67.251971 214.765406 
L 68.161368 192.563631 
L 69.070764 44.720354 
L 69.980161 172.009568 
L 70.889557 189.997488 
L 71.798954 138.103356 
L 72.70835 193.235664 
L 73.617747 172.760296 
L 74.527143 136.441811 
L 75.43654 133.286094 
L 76.345936 125.46052 
L 77.255333 172.259033 
L 78.164729 117.420837 
L 79.074126 143.69283 
L 79.983522 131.152055 
L 80.892919 98.404693 
L 81.802315 218.551374 
L 82.711712 198.238265 
L 83.621108 137.326233 
L 84.530505 199.401657 
L 85.439901 181.911522 
L 86.349298 195.325547 
L 87.258694 179.336049 
L 88.168091 219.05632 
L 89.077487 154.853199 
L 89.986884 132.280049 
L 90.89628 93.610348 
L 91.805677 211.442888 
L 92.715073 218.624462 
L 93.62447 172.662818 
L 94.533866 214.45161 
L 95.443263 204.672916 
L 96.352659 173.859645 
L 97.262055 252.844838 
L 98.171452 175.252778 
L 99.080848 34.414125 
L 99.990245 204.496621 
L 100.899641 107.026624 
L 101.809038 149.997633 
L 102.718434 236.409609 
L 103.627831 195.975892 
L 104.537227 133.679771 
L 105.446624 216.056519 
L 106.35602 203.019924 
L 107.265417 197.61718 
L 108.174813 198.022193 
L 109.08421 146.939313 
L 109.993606 214.096074 
L 110.903003 89.639941 
L 111.812399 233.029472 
L 112.721796 233.864419 
L 113.631192 220.84894 
L 114.540589 150.732442 
L 115.449985 211.543804 
L 116.359382 215.497596 
L 117.268778 206.349153 
L 118.178175 161.912045 
L 119.087571 142.905231 
L 119.996968 207.417195 
L 120.906364 209.141803 
L 121.815761 196.860437 
L 122.725157 209.559992 
L 123.634554 148.44617 
L 124.54395 165.187583 
L 125.453347 222.848303 
L 126.362743 216.917083 
L 127.27214 222.778366 
L 128.181536 211.155979 
L 129.090932 197.093901 
L 130.000329 178.872845 
L 130.909725 243.091802 
L 131.819122 182.96029 
L 132.728518 175.090478 
L 133.637915 215.588158 
L 134.547311 173.130238 
L 135.456708 192.125348 
L 136.366104 183.306415 
L 137.275501 152.028466 
L 138.184897 124.745845 
L 139.094294 174.073957 
L 140.00369 55.322865 
L 140.913087 167.542114 
L 141.822483 132.144841 
L 142.73188 166.110923 
L 143.641276 155.167035 
L 144.550673 150.556556 
L 145.460069 166.166128 
L 146.369466 155.341366 
L 147.278862 121.04872 
L 148.188259 140.140572 
L 149.097655 232.881578 
L 150.007052 216.442707 
L 150.916448 203.711805 
L 151.825845 181.568385 
L 152.735241 199.171344 
L 153.644638 219.879972 
L 154.554034 117.30478 
L 155.463431 158.349147 
L 156.372827 136.662794 
L 157.282224 164.840845 
L 158.19162 180.579896 
L 159.101017 98.970982 
L 160.010413 213.487552 
L 160.919809 236.959734 
L 161.829206 173.876464 
L 162.738602 253.47423 
L 163.647999 224.299914 
L 164.557395 206.397278 
L 165.466792 177.770304 
L 166.376188 164.942865 
L 167.285585 144.692654 
L 168.194981 227.389418 
L 169.104378 180.425658 
L 170.013774 122.771159 
L 170.923171 132.792975 
L 171.832567 193.501293 
L 172.741964 237.138075 
L 173.65136 156.009307 
L 174.560757 186.199694 
L 175.470153 195.092738 
L 176.37955 129.508188 
L 177.288946 263.584971 
L 178.198343 179.591489 
L 179.107739 210.597588 
L 180.017136 216.047188 
L 181.835929 171.984933 
L 182.745325 201.355514 
L 183.654722 156.861319 
L 184.564118 200.432215 
L 185.473515 237.658244 
L 186.382911 67.305699 
L 187.292308 224.925255 
L 188.201704 209.064704 
L 189.111101 177.659117 
L 190.020497 177.285451 
L 190.929894 219.512935 
L 191.83929 175.111349 
L 192.748686 170.171933 
L 193.658083 231.843981 
L 194.567479 171.905625 
L 195.476876 215.577191 
L 196.386272 267.167717 
L 197.295669 196.174367 
L 198.205065 210.886912 
L 199.114462 231.903974 
L 200.023858 215.865655 
L 200.933255 191.21408 
L 201.842651 148.79295 
L 202.752048 227.402309 
L 203.661444 196.205591 
L 204.570841 221.914937 
L 205.480237 200.909661 
L 206.389634 136.97618 
L 207.29903 166.082073 
L 208.208427 177.607636 
L 209.117823 200.257147 
L 210.02722 158.027904 
L 210.936616 201.800712 
L 211.846013 155.226169 
L 212.755409 135.576213 
L 213.664806 107.77371 
L 214.574202 207.726367 
L 215.483599 203.433734 
L 216.392995 196.615473 
L 217.302392 192.859584 
L 218.211788 122.738912 
L 219.121185 230.182191 
L 220.030581 197.694238 
L 220.939978 160.472424 
L 221.849374 227.140198 
L 222.758771 216.523856 
L 223.668167 188.545467 
L 224.577564 210.019063 
L 225.48696 268.832372 
L 226.396356 231.602496 
L 227.305753 185.934432 
L 228.215149 180.064883 
L 229.124546 49.103999 
L 230.033942 181.612704 
L 230.943339 210.424321 
L 231.852735 112.905667 
L 232.762132 176.655323 
L 233.671528 225.128436 
L 234.580925 94.956051 
L 235.490321 268.229744 
L 236.399718 174.864748 
L 237.309114 214.950745 
L 238.218511 125.233153 
L 239.127907 146.77153 
L 240.037304 228.822 
L 240.9467 184.979418 
L 241.856097 191.993004 
L 242.765493 213.800202 
L 243.67489 193.406475 
L 244.584286 213.868707 
L 245.493683 190.733688 
L 246.403079 190.473501 
L 247.312476 193.69494 
L 248.221872 185.459647 
L 249.131269 84.413861 
L 250.040665 224.67448 
L 250.950062 263.33657 
L 251.859458 227.37309 
L 252.768855 131.453574 
L 253.678251 170.216252 
L 254.587648 143.500084 
L 255.497044 212.027715 
L 256.406441 242.066647 
L 257.315837 168.072309 
L 258.225233 185.121338 
L 259.13463 173.377207 
L 260.044026 154.717663 
L 260.953423 178.776922 
L 261.862819 190.734875 
L 262.772216 157.310119 
L 263.681612 206.474581 
L 264.591009 188.330173 
L 265.500405 112.929157 
L 266.409802 169.458608 
L 267.319198 201.755534 
L 268.228595 148.705866 
L 269.137991 207.13045 
L 270.047388 70.023296 
L 270.956784 273.648897 
L 271.866181 107.978978 
L 272.775577 175.876768 
L 273.684974 223.464886 
L 274.59437 199.447696 
L 275.503767 163.003946 
L 276.413163 152.386049 
L 277.32256 238.086378 
L 278.231956 184.610745 
L 279.141353 180.26033 
L 280.050749 216.741484 
L 280.960146 229.586724 
L 281.869542 165.88237 
L 282.778939 167.780898 
L 283.688335 199.59866 
L 284.597732 110.060636 
L 285.507128 174.586596 
L 286.416525 124.75894 
L 287.325921 189.254536 
L 288.235318 84.412306 
L 289.144714 85.57574 
L 290.05411 263.835623 
L 290.963507 251.496966 
L 291.872903 276.334125 
L 292.7823 224.029906 
L 293.691696 241.779492 
L 294.601093 172.498227 
L 295.510489 258.167332 
L 296.419886 89.381882 
L 297.329282 173.618201 
L 298.238679 199.627633 
L 299.148075 210.077665 
L 300.057472 184.431749 
L 300.966868 168.756619 
L 301.876265 186.621075 
L 302.785661 191.015605 
L 303.695058 182.761897 
L 304.604454 232.332272 
L 305.513851 230.693029 
L 306.423247 143.071541 
L 307.332644 259.653155 
L 308.24204 186.507965 
L 309.151437 168.379721 
L 310.060833 162.657207 
L 310.97023 201.056041 
L 311.879626 189.596077 
L 312.789023 212.596337 
L 313.698419 148.71536 
L 314.607816 232.57167 
L 315.517212 169.09325 
L 316.426609 138.866811 
L 317.336005 162.495276 
L 318.245402 236.9121 
L 319.154798 202.645235 
L 320.064195 205.0048 
L 320.973591 222.83574 
L 321.882987 252.665146 
L 322.792384 138.725136 
L 324.611177 214.559933 
L 325.520573 163.759952 
L 326.42997 273.576178 
L 327.339366 215.46363 
L 328.248763 199.791733 
L 329.158159 114.608053 
L 330.067556 213.538542 
L 330.976952 188.877637 
L 331.886349 203.318946 
L 332.795745 172.235012 
L 333.705142 92.391423 
L 334.614538 193.21864 
L 335.523935 191.315119 
L 336.433331 83.314513 
L 337.342728 184.94799 
L 338.252124 178.831144 
L 339.161521 213.232031 
L 340.070917 177.350191 
L 340.980314 171.959888 
L 341.88971 168.730511 
L 342.799107 161.420072 
L 343.708503 151.674975 
L 344.6179 181.353745 
L 345.527296 180.246253 
L 346.436693 181.403794 
L 347.346089 205.197055 
L 348.255486 209.435832 
L 349.164882 202.822963 
L 350.074279 124.142889 
L 350.983675 182.185459 
L 351.893072 179.83768 
L 352.802468 209.371829 
L 353.711864 173.251328 
L 354.621261 226.826894 
L 355.530657 229.25615 
L 356.440054 256.964285 
L 357.34945 220.152476 
L 359.168243 135.162648 
L 360.07764 212.82931 
L 360.987036 239.28259 
L 361.896433 161.579711 
L 362.805829 137.16598 
L 363.715226 198.78442 
L 364.624622 77.954779 
L 365.534019 235.99674 
L 366.443415 203.400833 
L 367.352812 243.393894 
L 368.262208 228.233777 
L 369.171605 230.838551 
L 370.081001 253.758193 
L 370.990398 213.662784 
L 370.990398 213.662784 
" clip-path="url(#p7fc6672574)" style="fill: none; stroke: #1f77b4; stroke-width: 1.5; stroke-linecap: square"/>
   </g>
   <g id="patch_3">
    <path d="M 30.103125 288.430125 
L 30.103125 22.318125 
" style="fill: none; stroke: #000000; stroke-width: 0.8; stroke-linejoin: miter; stroke-linecap: square"/>
   </g>
   <g id="patch_4">
    <path d="M 387.223125 288.430125 
L 387.223125 22.318125 
" style="fill: none; stroke: #000000; stroke-width: 0.8; stroke-linejoin: miter; stroke-linecap: square"/>
   </g>
   <g id="patch_5">
    <path d="M 30.103125 288.430125 
L 387.223125 288.430125 
" style="fill: none; stroke: #000000; stroke-width: 0.8; stroke-linejoin: miter; stroke-linecap: square"/>
   </g>
   <g id="patch_6">
    <path d="M 30.103125 22.318125 
L 387.223125 22.318125 
" style="fill: none; stroke: #000000; stroke-width: 0.8; stroke-linejoin: miter; stroke-linecap: square"/>
   </g>
   <g id="text_17">
    <!-- Prob FCNN loss -->
    <g transform="translate(163.317188 16.318125) scale(0.12 -0.12)">
     <defs>
      <path id="DejaVuSans-50" d="M 1259 4147 
L 1259 2394 
L 2053 2394 
Q 2494 2394 2734 2622 
Q 2975 2850 2975 3272 
Q 2975 3691 2734 3919 
Q 2494 4147 2053 4147 
L 1259 4147 
z
M 628 4666 
L 2053 4666 
Q 2838 4666 3239 4311 
Q 3641 3956 3641 3272 
Q 3641 2581 3239 2228 
Q 2838 1875 2053 1875 
L 1259 1875 
L 1259 0 
L 628 0 
L 628 4666 
z
" transform="scale(0.015625)"/>
      <path id="DejaVuSans-72" d="M 2631 2963 
Q 2534 3019 2420 3045 
Q 2306 3072 2169 3072 
Q 1681 3072 1420 2755 
Q 1159 2438 1159 1844 
L 1159 0 
L 581 0 
L 581 3500 
L 1159 3500 
L 1159 2956 
Q 1341 3275 1631 3429 
Q 1922 3584 2338 3584 
Q 2397 3584 2469 3576 
Q 2541 3569 2628 3553 
L 2631 2963 
z
" transform="scale(0.015625)"/>
      <path id="DejaVuSans-6f" d="M 1959 3097 
Q 1497 3097 1228 2736 
Q 959 2375 959 1747 
Q 959 1119 1226 758 
Q 1494 397 1959 397 
Q 2419 397 2687 759 
Q 2956 1122 2956 1747 
Q 2956 2369 2687 2733 
Q 2419 3097 1959 3097 
z
M 1959 3584 
Q 2709 3584 3137 3096 
Q 3566 2609 3566 1747 
Q 3566 888 3137 398 
Q 2709 -91 1959 -91 
Q 1206 -91 779 398 
Q 353 888 353 1747 
Q 353 2609 779 3096 
Q 1206 3584 1959 3584 
z
" transform="scale(0.015625)"/>
      <path id="DejaVuSans-62" d="M 3116 1747 
Q 3116 2381 2855 2742 
Q 2594 3103 2138 3103 
Q 1681 3103 1420 2742 
Q 1159 2381 1159 1747 
Q 1159 1113 1420 752 
Q 1681 391 2138 391 
Q 2594 391 2855 752 
Q 3116 1113 3116 1747 
z
M 1159 2969 
Q 1341 3281 1617 3432 
Q 1894 3584 2278 3584 
Q 2916 3584 3314 3078 
Q 3713 2572 3713 1747 
Q 3713 922 3314 415 
Q 2916 -91 2278 -91 
Q 1894 -91 1617 61 
Q 1341 213 1159 525 
L 1159 0 
L 581 0 
L 581 4863 
L 1159 4863 
L 1159 2969 
z
" transform="scale(0.015625)"/>
      <path id="DejaVuSans-20" transform="scale(0.015625)"/>
      <path id="DejaVuSans-46" d="M 628 4666 
L 3309 4666 
L 3309 4134 
L 1259 4134 
L 1259 2759 
L 3109 2759 
L 3109 2228 
L 1259 2228 
L 1259 0 
L 628 0 
L 628 4666 
z
" transform="scale(0.015625)"/>
      <path id="DejaVuSans-43" d="M 4122 4306 
L 4122 3641 
Q 3803 3938 3442 4084 
Q 3081 4231 2675 4231 
Q 1875 4231 1450 3742 
Q 1025 3253 1025 2328 
Q 1025 1406 1450 917 
Q 1875 428 2675 428 
Q 3081 428 3442 575 
Q 3803 722 4122 1019 
L 4122 359 
Q 3791 134 3420 21 
Q 3050 -91 2638 -91 
Q 1578 -91 968 557 
Q 359 1206 359 2328 
Q 359 3453 968 4101 
Q 1578 4750 2638 4750 
Q 3056 4750 3426 4639 
Q 3797 4528 4122 4306 
z
" transform="scale(0.015625)"/>
      <path id="DejaVuSans-4e" d="M 628 4666 
L 1478 4666 
L 3547 763 
L 3547 4666 
L 4159 4666 
L 4159 0 
L 3309 0 
L 1241 3903 
L 1241 0 
L 628 0 
L 628 4666 
z
" transform="scale(0.015625)"/>
      <path id="DejaVuSans-6c" d="M 603 4863 
L 1178 4863 
L 1178 0 
L 603 0 
L 603 4863 
z
" transform="scale(0.015625)"/>
     </defs>
     <use xlink:href="#DejaVuSans-50"/>
     <use xlink:href="#DejaVuSans-72" x="58.552734"/>
     <use xlink:href="#DejaVuSans-6f" x="97.416016"/>
     <use xlink:href="#DejaVuSans-62" x="158.597656"/>
     <use xlink:href="#DejaVuSans-20" x="222.074219"/>
     <use xlink:href="#DejaVuSans-46" x="253.861328"/>
     <use xlink:href="#DejaVuSans-43" x="311.380859"/>
     <use xlink:href="#DejaVuSans-4e" x="381.205078"/>
     <use xlink:href="#DejaVuSans-4e" x="456.009766"/>
     <use xlink:href="#DejaVuSans-20" x="530.814453"/>
     <use xlink:href="#DejaVuSans-6c" x="562.601562"/>
     <use xlink:href="#DejaVuSans-6f" x="590.384766"/>
     <use xlink:href="#DejaVuSans-73" x="651.566406"/>
     <use xlink:href="#DejaVuSans-73" x="703.666016"/>
    </g>
   </g>
   <g id="legend_1">
    <g id="patch_7">
     <path d="M 300.6325 45.274375 
L 380.223125 45.274375 
Q 382.223125 45.274375 382.223125 43.274375 
L 382.223125 29.318125 
Q 382.223125 27.318125 380.223125 27.318125 
L 300.6325 27.318125 
Q 298.6325 27.318125 298.6325 29.318125 
L 298.6325 43.274375 
Q 298.6325 45.274375 300.6325 45.274375 
z
" style="fill: #ffffff; opacity: 0.8; stroke: #cccccc; stroke-linejoin: miter"/>
    </g>
    <g id="line2d_32">
     <path d="M 302.6325 35.416562 
L 312.6325 35.416562 
L 322.6325 35.416562 
" style="fill: none; stroke: #1f77b4; stroke-width: 1.5; stroke-linecap: square"/>
    </g>
    <g id="text_18">
     <!-- train_loss -->
     <g transform="translate(330.6325 38.916562) scale(0.1 -0.1)">
      <defs>
       <path id="DejaVuSans-61" d="M 2194 1759 
Q 1497 1759 1228 1600 
Q 959 1441 959 1056 
Q 959 750 1161 570 
Q 1363 391 1709 391 
Q 2188 391 2477 730 
Q 2766 1069 2766 1631 
L 2766 1759 
L 2194 1759 
z
M 3341 1997 
L 3341 0 
L 2766 0 
L 2766 531 
Q 2569 213 2275 61 
Q 1981 -91 1556 -91 
Q 1019 -91 701 211 
Q 384 513 384 1019 
Q 384 1609 779 1909 
Q 1175 2209 1959 2209 
L 2766 2209 
L 2766 2266 
Q 2766 2663 2505 2880 
Q 2244 3097 1772 3097 
Q 1472 3097 1187 3025 
Q 903 2953 641 2809 
L 641 3341 
Q 956 3463 1253 3523 
Q 1550 3584 1831 3584 
Q 2591 3584 2966 3190 
Q 3341 2797 3341 1997 
z
" transform="scale(0.015625)"/>
       <path id="DejaVuSans-69" d="M 603 3500 
L 1178 3500 
L 1178 0 
L 603 0 
L 603 3500 
z
M 603 4863 
L 1178 4863 
L 1178 4134 
L 603 4134 
L 603 4863 
z
" transform="scale(0.015625)"/>
       <path id="DejaVuSans-6e" d="M 3513 2113 
L 3513 0 
L 2938 0 
L 2938 2094 
Q 2938 2591 2744 2837 
Q 2550 3084 2163 3084 
Q 1697 3084 1428 2787 
Q 1159 2491 1159 1978 
L 1159 0 
L 581 0 
L 581 3500 
L 1159 3500 
L 1159 2956 
Q 1366 3272 1645 3428 
Q 1925 3584 2291 3584 
Q 2894 3584 3203 3211 
Q 3513 2838 3513 2113 
z
" transform="scale(0.015625)"/>
       <path id="DejaVuSans-5f" d="M 3263 -1063 
L 3263 -1509 
L -63 -1509 
L -63 -1063 
L 3263 -1063 
z
" transform="scale(0.015625)"/>
      </defs>
      <use xlink:href="#DejaVuSans-74"/>
      <use xlink:href="#DejaVuSans-72" x="39.208984"/>
      <use xlink:href="#DejaVuSans-61" x="80.322266"/>
      <use xlink:href="#DejaVuSans-69" x="141.601562"/>
      <use xlink:href="#DejaVuSans-6e" x="169.384766"/>
      <use xlink:href="#DejaVuSans-5f" x="232.763672"/>
      <use xlink:href="#DejaVuSans-6c" x="282.763672"/>
      <use xlink:href="#DejaVuSans-6f" x="310.546875"/>
      <use xlink:href="#DejaVuSans-73" x="371.728516"/>
      <use xlink:href="#DejaVuSans-73" x="423.828125"/>
     </g>
    </g>
   </g>
  </g>
 </g>
 <defs>
  <clipPath id="p7fc6672574">
   <rect x="30.103125" y="22.318125" width="357.12" height="266.112"/>
  </clipPath>
 </defs>
</svg>